Literata-M3Italic.ufo
<glyph name="parenright" format="2">
	<unicode hex="0029"/>
	<advance width="293"/>
	<outline>
		<contour>
			<point x="226" y="323" type="curve"/>
			<point x="226" y="513"/>
			<point x="146" y="691"/>
			<point x="80" y="802" type="curve"/>
			<point x="57" y="789" type="line"/>
			<point x="135" y="630"/>
			<point x="179" y="473"/>
			<point x="179" y="306" type="curve" smooth="yes"/>
			<point x="179" y="119"/>
			<point x="123" y="-26"/>
			<point x="24" y="-196" type="curve"/>
			<point x="47" y="-209" type="line"/>
			<point x="171" y="-37"/>
			<point x="226" y="140"/>
		</contour>
	</outline>
</glyph>
<glyph name="period" format="2">
	<unicode hex="002E"/>
	<advance width="218"/>
	<outline>
		<contour>
			<point x="73" y="37" type="curve" smooth="yes"/>
			<point x="73" y="8"/>
			<point x="92" y="-10"/>
			<point x="116" y="-10" type="curve" smooth="yes"/>
			<point x="144" y="-10"/>
			<point x="161" y="14"/>
			<point x="161" y="40" type="curve" smooth="yes"/>
			<point x="161" y="69"/>
			<point x="145" y="87"/>
			<point x="117" y="87" type="curve" smooth="yes"/>
			<point x="91" y="87"/>
			<point x="73" y="65"/>
		</contour>
	</outline>
</glyph>
<glyph name="zero" format="2">
	<unicode hex="0030"/>
	<advance width="563"/>
	<outline>
		<contour>
			<point x="62" y="306" type="curve" smooth="yes"/>
			<point x="62" y="105"/>
			<point x="145" y="-13"/>
			<point x="280" y="-13" type="curve" smooth="yes"/>
			<point x="430" y="-13"/>
			<point x="528" y="157"/>
			<point x="528" y="399" type="curve" smooth="yes"/>
			<point x="528" y="606"/>
			<point x="443" y="714"/>
			<point x="317" y="714" type="curve" smooth="yes"/>
			<point x="158" y="714"/>
			<point x="62" y="552"/>
		</contour>
		<contour>
			<point x="310" y="669" type="curve" smooth="yes"/>
			<point x="409" y="669"/>
			<point x="477" y="580"/>
			<point x="477" y="401" type="curve" smooth="yes"/>
			<point x="477" y="161"/>
			<point x="394" y="32"/>
			<point x="287" y="32" type="curve" smooth="yes"/>
			<point x="182" y="32"/>
			<point x="113" y="118"/>
			<point x="113" y="315" type="curve" smooth="yes"/>
			<point x="113" y="533"/>
			<point x="201" y="669"/>
		</contour>
	</outline>
</glyph>
<glyph name="one" format="2">
	<unicode hex="0031"/>
	<advance width="358"/>
	<outline>
		<contour>
			<point x="189" y="655" type="line"/>
			<point x="165" y="46" type="line"/>
			<point x="49" y="30" type="line"/>
			<point x="45" y="0" type="line"/>
			<point x="318" y="0" type="line"/>
			<point x="321" y="31" type="line"/>
			<point x="212" y="45" type="line"/>
			<point x="238" y="710" type="line"/>
			<point x="224" y="710" type="line"/>
			<point x="68" y="687" type="line"/>
			<point x="64" y="655" type="line"/>
		</contour>
	</outline>
</glyph>
<glyph name="two" format="2">
	<unicode hex="0032"/>
	<advance width="506"/>
	<outline>
		<contour>
			<point x="62" y="585" type="curve" smooth="yes"/>
			<point x="62" y="559"/>
			<point x="77" y="541"/>
			<point x="101" y="541" type="curve" smooth="yes"/>
			<point x="125" y="541"/>
			<point x="143" y="555"/>
			<point x="147" y="572" type="curve"/>
			<point x="136" y="589" type="line" smooth="yes"/>
			<point x="109" y="631"/>
			<point x="158" y="674"/>
			<point x="248" y="674" type="curve" smooth="yes"/>
			<point x="341" y="674"/>
			<point x="392" y="613"/>
			<point x="392" y="536" type="curve" smooth="yes"/>
			<point x="392" y="419"/>
			<point x="314" y="319"/>
			<point x="45" y="51" type="curve"/>
			<point x="52" y="0" type="line"/>
			<point x="456" y="0" type="line"/>
			<point x="478" y="157" type="line"/>
			<point x="442" y="157" type="line"/>
			<point x="408" y="45"/>
			<point x="392" y="44"/>
			<point x="324" y="44" type="curve" smooth="yes"/>
			<point x="98" y="44" type="line"/>
			<point x="98" y="49" type="line"/>
			<point x="351" y="298"/>
			<point x="443" y="411"/>
			<point x="443" y="536" type="curve" smooth="yes"/>
			<point x="443" y="643"/>
			<point x="370" y="715"/>
			<point x="250" y="715" type="curve" smooth="yes"/>
			<point x="148" y="715"/>
			<point x="62" y="653"/>
		</contour>
	</outline>
</glyph>
<glyph name="three" format="2">
	<unicode hex="0033"/>
	<advance width="512"/>
	<outline>
		<contour>
			<point x="446" y="553" type="curve" smooth="yes"/>
			<point x="446" y="657"/>
			<point x="383" y="715"/>
			<point x="266" y="715" type="curve" smooth="yes"/>
			<point x="156" y="715"/>
			<point x="70" y="653"/>
			<point x="70" y="585" type="curve" smooth="yes"/>
			<point x="70" y="554"/>
			<point x="84" y="541"/>
			<point x="110" y="541" type="curve" smooth="yes"/>
			<point x="136" y="541"/>
			<point x="151" y="555"/>
			<point x="155" y="572" type="curve"/>
			<point x="144" y="589" type="line" smooth="yes"/>
			<point x="115" y="633"/>
			<point x="168" y="675"/>
			<point x="255" y="675" type="curve" smooth="yes"/>
			<point x="348" y="675"/>
			<point x="395" y="630"/>
			<point x="395" y="550" type="curve" smooth="yes"/>
			<point x="395" y="455"/>
			<point x="311" y="396"/>
			<point x="172" y="376" type="curve"/>
			<point x="179" y="333" type="line"/>
			<point x="198" y="337"/>
			<point x="229" y="339"/>
			<point x="254" y="339" type="curve" smooth="yes"/>
			<point x="367" y="339"/>
			<point x="425" y="291"/>
			<point x="425" y="209" type="curve" smooth="yes"/>
			<point x="425" y="109"/>
			<point x="336" y="27"/>
			<point x="211" y="27" type="curve" smooth="yes"/>
			<point x="129" y="27"/>
			<point x="98" y="60"/>
			<point x="118" y="102" type="curve" smooth="yes"/>
			<point x="128" y="123" type="line"/>
			<point x="117" y="139"/>
			<point x="102" y="146"/>
			<point x="85" y="146" type="curve" smooth="yes"/>
			<point x="60" y="146"/>
			<point x="39" y="129"/>
			<point x="39" y="91" type="curve" smooth="yes"/>
			<point x="39" y="40"/>
			<point x="97" y="-14"/>
			<point x="208" y="-14" type="curve" smooth="yes"/>
			<point x="356" y="-14"/>
			<point x="476" y="87"/>
			<point x="476" y="218" type="curve" smooth="yes"/>
			<point x="476" y="310"/>
			<point x="418" y="361"/>
			<point x="304" y="373" type="curve"/>
			<point x="304" y="381" type="line"/>
			<point x="395" y="412"/>
			<point x="446" y="477"/>
		</contour>
	</outline>
</glyph>
<glyph name="eight" format="2">
	<unicode hex="0038"/>
	<advance width="506"/>
	<outline>
		<contour>
			<point x="52" y="167" type="curve" smooth="yes"/>
			<point x="52" y="62"/>
			<point x="136" y="-14"/>
			<point x="254" y="-14" type="curve" smooth="yes"/>
			<point x="385" y="-14"/>
			<point x="479" y="75"/>
			<point x="479" y="195" type="curve" smooth="yes"/>
			<point x="479" y="277"/>
			<point x="435" y="320"/>
			<point x="333" y="376" type="curve"/>
			<point x="421" y="435"/>
			<point x="463" y="490"/>
			<point x="463" y="562" type="curve" smooth="yes"/>
			<point x="463" y="651"/>
			<point x="392" y="715"/>
			<point x="293" y="715" type="curve" smooth="yes"/>
			<point x="170" y="715"/>
			<point x="89" y="645"/>
			<point x="89" y="544" type="curve" smooth="yes"/>
			<point x="89" y="473"/>
			<point x="132" y="422"/>
			<point x="212" y="383" type="curve"/>
			<point x="102" y="330"/>
			<point x="52" y="252"/>
		</contour>
		<contour>
			<point x="252" y="363" type="curve"/>
			<point x="395" y="296"/>
			<point x="427" y="259"/>
			<point x="427" y="188" type="curve" smooth="yes"/>
			<point x="427" y="98"/>
			<point x="365" y="31"/>
			<point x="262" y="31" type="curve" smooth="yes"/>
			<point x="158" y="31"/>
			<point x="102" y="88"/>
			<point x="102" y="180" type="curve" smooth="yes"/>
			<point x="102" y="254"/>
			<point x="156" y="318"/>
		</contour>
		<contour>
			<point x="141" y="549" type="curve" smooth="yes"/>
			<point x="141" y="624"/>
			<point x="196" y="670"/>
			<point x="286" y="670" type="curve" smooth="yes"/>
			<point x="364" y="670"/>
			<point x="411" y="622"/>
			<point x="411" y="552" type="curve" smooth="yes"/>
			<point x="411" y="493"/>
			<point x="380" y="447"/>
			<point x="292" y="394" type="curve"/>
			<point x="160" y="454"/>
			<point x="141" y="492"/>
		</contour>
	</outline>
</glyph>
<glyph name="nine" format="2">
	<unicode hex="0039"/>
	<advance width="527"/>
	<outline>
		<contour>
			<point x="227" y="-14" type="curve" smooth="yes"/>
			<point x="377" y="-14"/>
			<point x="488" y="155"/>
			<point x="488" y="427" type="curve" smooth="yes"/>
			<point x="488" y="599"/>
			<point x="411" y="715"/>
			<point x="287" y="715" type="curve" smooth="yes"/>
			<point x="159" y="715"/>
			<point x="70" y="604"/>
			<point x="70" y="447" type="curve" smooth="yes"/>
			<point x="70" y="339"/>
			<point x="133" y="257"/>
			<point x="231" y="257" type="curve" smooth="yes"/>
			<point x="302" y="257"/>
			<point x="372" y="301"/>
			<point x="432" y="377" type="curve"/>
			<point x="436" y="374" type="line"/>
			<point x="419" y="156"/>
			<point x="339" y="31"/>
			<point x="229" y="31" type="curve" smooth="yes"/>
			<point x="169" y="31"/>
			<point x="123" y="63"/>
			<point x="83" y="117" type="curve"/>
			<point x="54" y="89" type="line"/>
			<point x="91" y="29"/>
			<point x="150" y="-14"/>
		</contour>
		<contour>
			<point x="240" y="302" type="curve" smooth="yes"/>
			<point x="161" y="302"/>
			<point x="121" y="359"/>
			<point x="121" y="456" type="curve" smooth="yes"/>
			<point x="121" y="585"/>
			<point x="192" y="669"/>
			<point x="285" y="669" type="curve" smooth="yes"/>
			<point x="375" y="669"/>
			<point x="437" y="565"/>
			<point x="435" y="438" type="curve"/>
			<point x="384" y="364"/>
			<point x="307" y="302"/>
		</contour>
	</outline>
</glyph>
<glyph name="greater" format="2">
	<unicode hex="003E"/>
	<advance width="582"/>
	<outline>
		<contour>
			<point x="131" y="37" type="line"/>
			<point x="517" y="263" type="line"/>
			<point x="519" y="305" type="line"/>
			<point x="149" y="532" type="line"/>
			<point x="126" y="497" type="line"/>
			<point x="477" y="283" type="line"/>
			<point x="112" y="72" type="line"/>
		</contour>
	</outline>
</glyph>
<glyph name="B" format="2">
	<unicode hex="0042"/>
	<advance width="587"/>
	<outline>
		<contour>
			<point x="527" y="549" type="curve" smooth="yes"/>
			<point x="527" y="651"/>
			<point x="459" y="700"/>
			<point x="282" y="700" type="curve" smooth="yes"/>
			<point x="79" y="700" type="line"/>
			<point x="75" y="668" type="line"/>
			<point x="162" y="655" type="line"/>
			<point x="138" y="46" type="line"/>
			<point x="54" y="32" type="line"/>
			<point x="50" y="0" type="line"/>
			<point x="279" y="0" type="line" smooth="yes"/>
			<point x="455" y="0"/>
			<point x="555" y="71"/>
			<point x="555" y="203" type="curve" smooth="yes"/>
			<point x="555" y="303"/>
			<point x="480" y="362"/>
			<point x="366" y="369" type="curve"/>
			<point x="366" y="374" type="line"/>
			<point x="457" y="401"/>
			<point x="527" y="460"/>
		</contour>
		<contour>
			<point x="254" y="374" type="curve"/>
			<point x="252" y="333" type="line"/>
			<point x="277" y="338"/>
			<point x="301" y="340"/>
			<point x="329" y="340" type="curve" smooth="yes"/>
			<point x="430" y="340"/>
			<point x="503" y="295"/>
			<point x="503" y="206" type="curve" smooth="yes"/>
			<point x="503" y="88"/>
			<point x="421" y="39"/>
			<point x="282" y="39" type="curve" smooth="yes"/>
			<point x="185" y="39" type="line"/>
			<point x="209" y="661" type="line"/>
			<point x="286" y="661" type="line" smooth="yes"/>
			<point x="418" y="661"/>
			<point x="475" y="623"/>
			<point x="475" y="545" type="curve" smooth="yes"/>
			<point x="475" y="445"/>
			<point x="383" y="395"/>
		</contour>
	</outline>
</glyph>
<glyph name="C" format="2">
	<unicode hex="0043"/>
	<advance width="608"/>
	<outline>
		<contour>
			<point x="480" y="584" type="curve" smooth="yes"/>
			<point x="467" y="558" type="line"/>
			<point x="483" y="542"/>
			<point x="499" y="533"/>
			<point x="523" y="533" type="curve" smooth="yes"/>
			<point x="549" y="533"/>
			<point x="571" y="553"/>
			<point x="571" y="585" type="curve" smooth="yes"/>
			<point x="571" y="659"/>
			<point x="473" y="715"/>
			<point x="369" y="715" type="curve" smooth="yes"/>
			<point x="187" y="715"/>
			<point x="65" y="565"/>
			<point x="65" y="326" type="curve" smooth="yes"/>
			<point x="65" y="109"/>
			<point x="173" y="-14"/>
			<point x="326" y="-14" type="curve" smooth="yes"/>
			<point x="419" y="-14"/>
			<point x="504" y="39"/>
			<point x="563" y="121" type="curve"/>
			<point x="535" y="149" type="line"/>
			<point x="468" y="66"/>
			<point x="404" y="31"/>
			<point x="330" y="31" type="curve" smooth="yes"/>
			<point x="200" y="31"/>
			<point x="116" y="145"/>
			<point x="116" y="331" type="curve" smooth="yes"/>
			<point x="116" y="536"/>
			<point x="219" y="670"/>
			<point x="367" y="670" type="curve" smooth="yes"/>
			<point x="460" y="670"/>
			<point x="504" y="633"/>
		</contour>
	</outline>
	<anchor name="bottom" x="327" y="-30"/>
	<anchor name="top" x="364" y="730"/>
</glyph>
<glyph name="D" format="2">
	<unicode hex="0044"/>
	<advance width="702"/>
	<outline>
		<contour>
			<point x="50" y="0" type="line"/>
			<point x="239" y="0" type="line" smooth="yes"/>
			<point x="505" y="0"/>
			<point x="654" y="149"/>
			<point x="654" y="392" type="curve" smooth="yes"/>
			<point x="654" y="589"/>
			<point x="532" y="700"/>
			<point x="335" y="700" type="curve" smooth="yes"/>
			<point x="79" y="700" type="line"/>
			<point x="75" y="668" type="line"/>
			<point x="163" y="655" type="line"/>
			<point x="139" y="46" type="line"/>
			<point x="54" y="32" type="line"/>
		</contour>
		<contour>
			<point x="186" y="39" type="line"/>
			<point x="210" y="661" type="line"/>
			<point x="326" y="661" type="line" smooth="yes"/>
			<point x="502" y="661"/>
			<point x="603" y="558"/>
			<point x="603" y="383" type="curve" smooth="yes"/>
			<point x="603" y="160"/>
			<point x="473" y="39"/>
			<point x="227" y="39" type="curve" smooth="yes"/>
		</contour>
	</outline>
	<anchor name="bottom" x="334" y="-30"/>
	<anchor name="top" x="339" y="730"/>
</glyph>
<glyph name="E" format="2">
	<unicode hex="0045"/>
	<advance width="569"/>
	<outline>
		<contour>
			<point x="163" y="655" type="line"/>
			<point x="139" y="46" type="line"/>
			<point x="54" y="32" type="line"/>
			<point x="50" y="0" type="line"/>
			<point x="507" y="0" type="line"/>
			<point x="529" y="157" type="line"/>
			<point x="493" y="157" type="line"/>
			<point x="481" y="114" type="line" smooth="yes"/>
			<point x="460" y="39"/>
			<point x="434" y="39"/>
			<point x="382" y="39" type="curve" smooth="yes"/>
			<point x="186" y="39" type="line"/>
			<point x="198" y="340" type="line"/>
			<point x="465" y="340" type="line"/>
			<point x="469" y="380" type="line"/>
			<point x="199" y="380" type="line"/>
			<point x="210" y="661" type="line"/>
			<point x="384" y="661" type="line" smooth="yes"/>
			<point x="438" y="661"/>
			<point x="462" y="655"/>
			<point x="479" y="591" type="curve" smooth="yes"/>
			<point x="492" y="542" type="line"/>
			<point x="527" y="547" type="line"/>
			<point x="513" y="700" type="line"/>
			<point x="79" y="700" type="line"/>
			<point x="75" y="668" type="line"/>
		</contour>
	</outline>
	<anchor name="bottom" x="285" y="-30"/>
	<anchor name="top" x="315" y="730"/>
</glyph>
<glyph name="G" format="2">
	<unicode hex="0047"/>
	<advance width="631"/>
	<outline>
		<contour>
			<point x="575" y="330" type="line"/>
			<point x="442" y="330" type="line"/>
			<point x="438" y="298" type="line"/>
			<point x="526" y="285" type="line"/>
			<point x="518" y="75" type="line"/>
			<point x="483" y="52"/>
			<point x="418" y="28"/>
			<point x="351" y="28" type="curve" smooth="yes"/>
			<point x="213" y="28"/>
			<point x="116" y="145"/>
			<point x="116" y="331" type="curve" smooth="yes"/>
			<point x="116" y="536"/>
			<point x="214" y="670"/>
			<point x="376" y="670" type="curve" smooth="yes"/>
			<point x="476" y="670"/>
			<point x="535" y="636"/>
			<point x="511" y="587" type="curve" smooth="yes"/>
			<point x="498" y="561" type="line"/>
			<point x="512" y="545"/>
			<point x="528" y="536"/>
			<point x="549" y="536" type="curve" smooth="yes"/>
			<point x="576" y="536"/>
			<point x="593" y="554"/>
			<point x="593" y="584" type="curve" smooth="yes"/>
			<point x="593" y="649"/>
			<point x="505" y="715"/>
			<point x="377" y="715" type="curve" smooth="yes"/>
			<point x="182" y="715"/>
			<point x="65" y="564"/>
			<point x="65" y="326" type="curve" smooth="yes"/>
			<point x="65" y="113"/>
			<point x="186" y="-14"/>
			<point x="351" y="-14" type="curve" smooth="yes"/>
			<point x="428" y="-14"/>
			<point x="503" y="10"/>
			<point x="564" y="54" type="curve"/>
		</contour>
	</outline>
	<anchor name="bottom" x="344" y="-30"/>
	<anchor name="top" x="374" y="730"/>
</glyph>
<glyph name="I" format="2">
	<unicode hex="0049"/>
	<advance width="323"/>
	<outline>
		<contour>
			<point x="163" y="655" type="line"/>
			<point x="139" y="46" type="line"/>
			<point x="54" y="32" type="line"/>
			<point x="50" y="0" type="line"/>
			<point x="280" y="0" type="line"/>
			<point x="283" y="33" type="line"/>
			<point x="186" y="45" type="line"/>
			<point x="210" y="655" type="line"/>
			<point x="297" y="668" type="line"/>
			<point x="300" y="700" type="line"/>
			<point x="79" y="700" type="line"/>
			<point x="75" y="668" type="line"/>
		</contour>
	</outline>
	<anchor name="bottom" x="157" y="-30"/>
	<anchor name="top" x="182" y="730"/>
</glyph>
<glyph name="K" format="2">
	<unicode hex="004B"/>
	<advance width="638"/>
	<outline>
		<contour>
			<point x="548" y="-14" type="curve" smooth="yes"/>
			<point x="580" y="-14"/>
			<point x="614" y="3"/>
			<point x="640" y="28" type="curve"/>
			<point x="626" y="55" type="line"/>
			<point x="604" y="39"/>
			<point x="582" y="28"/>
			<point x="560" y="28" type="curve" smooth="yes"/>
			<point x="509" y="28"/>
			<point x="483" y="58"/>
			<point x="437" y="199" type="curve" smooth="yes"/>
			<point x="398" y="318"/>
			<point x="356" y="361"/>
			<point x="284" y="374" type="curve"/>
			<point x="284" y="378" type="line"/>
			<point x="563" y="655" type="line"/>
			<point x="640" y="668" type="line"/>
			<point x="646" y="700" type="line"/>
			<point x="421" y="700" type="line"/>
			<point x="417" y="668" type="line"/>
			<point x="510" y="655" type="line"/>
			<point x="225" y="366" type="line"/>
			<point x="225" y="350" type="line"/>
			<point x="318" y="340"/>
			<point x="344" y="319"/>
			<point x="391" y="173" type="curve" smooth="yes"/>
			<point x="440" y="21"/>
			<point x="477" y="-14"/>
		</contour>
		<contour>
			<point x="50" y="0" type="line"/>
			<point x="280" y="0" type="line"/>
			<point x="283" y="33" type="line"/>
			<point x="186" y="45" type="line"/>
			<point x="210" y="655" type="line"/>
			<point x="297" y="668" type="line"/>
			<point x="300" y="700" type="line"/>
			<point x="79" y="700" type="line"/>
			<point x="75" y="668" type="line"/>
			<point x="163" y="655" type="line"/>
			<point x="139" y="46" type="line"/>
			<point x="54" y="32" type="line"/>
		</contour>
	</outline>
	<anchor name="bottom" x="325" y="-30"/>
	<anchor name="top" x="346" y="730"/>
</glyph>
<glyph name="O" format="2">
	<unicode hex="004F"/>
	<advance width="693"/>
	<outline>
		<contour>
			<point x="65" y="331" type="curve" smooth="yes"/>
			<point x="65" y="120"/>
			<point x="170" y="-14"/>
			<point x="344" y="-14" type="curve" smooth="yes"/>
			<point x="532" y="-14"/>
			<point x="644" y="144"/>
			<point x="644" y="378" type="curve" smooth="yes"/>
			<point x="644" y="583"/>
			<point x="541" y="715"/>
			<point x="373" y="715" type="curve" smooth="yes"/>
			<point x="182" y="715"/>
			<point x="65" y="561"/>
		</contour>
		<contour>
			<point x="116" y="346" type="curve" smooth="yes"/>
			<point x="118" y="547"/>
			<point x="217" y="670"/>
			<point x="366" y="670" type="curve" smooth="yes"/>
			<point x="514" y="670"/>
			<point x="595" y="559"/>
			<point x="593" y="367" type="curve" smooth="yes"/>
			<point x="591" y="155"/>
			<point x="501" y="31"/>
			<point x="353" y="31" type="curve" smooth="yes"/>
			<point x="200" y="31"/>
			<point x="114" y="146"/>
		</contour>
	</outline>
	<anchor name="bottom" x="344" y="-30"/>
	<anchor name="top" x="372" y="730"/>
</glyph>
<glyph name="P" format="2">
	<unicode hex="0050"/>
	<advance width="530"/>
	<outline>
		<contour>
			<point x="247" y="334" type="curve"/>
			<point x="245" y="301" type="line"/>
			<point x="255" y="299"/>
			<point x="268" y="298"/>
			<point x="282" y="298" type="curve" smooth="yes"/>
			<point x="425" y="298"/>
			<point x="509" y="377"/>
			<point x="509" y="502" type="curve" smooth="yes"/>
			<point x="509" y="616"/>
			<point x="436" y="700"/>
			<point x="276" y="700" type="curve" smooth="yes"/>
			<point x="79" y="700" type="line"/>
			<point x="75" y="668" type="line"/>
			<point x="162" y="655" type="line"/>
			<point x="138" y="46" type="line"/>
			<point x="54" y="32" type="line"/>
			<point x="50" y="0" type="line"/>
			<point x="318" y="0" type="line"/>
			<point x="321" y="32" type="line"/>
			<point x="185" y="45" type="line"/>
			<point x="209" y="661" type="line"/>
			<point x="268" y="661" type="line" smooth="yes"/>
			<point x="391" y="661"/>
			<point x="458" y="607"/>
			<point x="458" y="505" type="curve" smooth="yes"/>
			<point x="458" y="392"/>
			<point x="400" y="333"/>
			<point x="278" y="333" type="curve" smooth="yes"/>
			<point x="265" y="333"/>
			<point x="255" y="333"/>
		</contour>
	</outline>
</glyph>
<glyph name="Q" format="2">
	<unicode hex="0051"/>
	<advance width="692"/>
	<outline>
		<contour>
			<point x="66" y="344" type="curve" smooth="yes"/>
			<point x="66" y="168"/>
			<point x="152" y="58"/>
			<point x="277" y="29" type="curve"/>
			<point x="277" y="26" type="line"/>
			<point x="248" y="20"/>
			<point x="218" y="12"/>
			<point x="188" y="-3" type="curve"/>
			<point x="205" y="-40" type="line"/>
			<point x="238" y="-21"/>
			<point x="284" y="-7"/>
			<point x="321" y="-7" type="curve" smooth="yes"/>
			<point x="377" y="-7"/>
			<point x="413" y="-22"/>
			<point x="498" y="-85" type="curve" smooth="yes"/>
			<point x="569" y="-138"/>
			<point x="608" y="-157"/>
			<point x="650" y="-157" type="curve" smooth="yes"/>
			<point x="689" y="-157"/>
			<point x="717" y="-133"/>
			<point x="717" y="-100" type="curve" smooth="yes"/>
			<point x="717" y="-68"/>
			<point x="692" y="-57"/>
			<point x="657" y="-60" type="curve"/>
			<point x="652" y="-82" type="line" smooth="yes"/>
			<point x="644" y="-115"/>
			<point x="610" y="-117"/>
			<point x="522" y="-53" type="curve" smooth="yes"/>
			<point x="460" y="-8"/>
			<point x="426" y="14"/>
			<point x="381" y="22" type="curve"/>
			<point x="381" y="25" type="line"/>
			<point x="533" y="40"/>
			<point x="645" y="170"/>
			<point x="645" y="391" type="curve" smooth="yes"/>
			<point x="645" y="586"/>
			<point x="542" y="715"/>
			<point x="376" y="715" type="curve" smooth="yes"/>
			<point x="183" y="715"/>
			<point x="66" y="566"/>
		</contour>
		<contour>
			<point x="117" y="359" type="curve" smooth="yes"/>
			<point x="117" y="552"/>
			<point x="218" y="670"/>
			<point x="367" y="670" type="curve" smooth="yes"/>
			<point x="515" y="670"/>
			<point x="594" y="564"/>
			<point x="594" y="382" type="curve" smooth="yes"/>
			<point x="594" y="195"/>
			<point x="501" y="60"/>
			<point x="354" y="60" type="curve" smooth="yes"/>
			<point x="194" y="60"/>
			<point x="117" y="173"/>
		</contour>
	</outline>
</glyph>
<glyph name="R" format="2">
	<unicode hex="0052"/>
	<advance width="617"/>
	<outline>
		<contour>
			<point x="245" y="363" type="curve"/>
			<point x="242" y="320" type="line"/>
			<point x="288" y="308"/>
			<point x="311" y="290"/>
			<point x="354" y="196" type="curve" smooth="yes"/>
			<point x="392" y="112" type="line" smooth="yes"/>
			<point x="434" y="19"/>
			<point x="475" y="-14"/>
			<point x="531" y="-14" type="curve" smooth="yes"/>
			<point x="568" y="-14"/>
			<point x="598" y="0"/>
			<point x="619" y="21" type="curve"/>
			<point x="603" y="48" type="line"/>
			<point x="583" y="33"/>
			<point x="561" y="28"/>
			<point x="541" y="28" type="curve" smooth="yes"/>
			<point x="494" y="28"/>
			<point x="475" y="48"/>
			<point x="432" y="142" type="curve" smooth="yes"/>
			<point x="394" y="224" type="line" smooth="yes"/>
			<point x="360" y="297"/>
			<point x="338" y="318"/>
			<point x="297" y="335" type="curve"/>
			<point x="297" y="338" type="line"/>
			<point x="412" y="353"/>
			<point x="502" y="424"/>
			<point x="502" y="532" type="curve" smooth="yes"/>
			<point x="502" y="646"/>
			<point x="426" y="700"/>
			<point x="257" y="700" type="curve" smooth="yes"/>
			<point x="79" y="700" type="line"/>
			<point x="75" y="668" type="line"/>
			<point x="162" y="655" type="line"/>
			<point x="138" y="46" type="line"/>
			<point x="54" y="32" type="line"/>
			<point x="50" y="0" type="line"/>
			<point x="298" y="0" type="line"/>
			<point x="302" y="32" type="line"/>
			<point x="185" y="44" type="line"/>
			<point x="209" y="661" type="line"/>
			<point x="274" y="661" type="line" smooth="yes"/>
			<point x="382" y="661"/>
			<point x="451" y="631"/>
			<point x="451" y="530" type="curve" smooth="yes"/>
			<point x="451" y="422"/>
			<point x="356" y="368"/>
		</contour>
	</outline>
	<anchor name="bottom" x="301" y="-32"/>
	<anchor name="top" x="292" y="730"/>
</glyph>
<glyph name="S" format="2">
	<unicode hex="0053"/>
	<advance width="499"/>
	<outline>
		<contour>
			<point x="462" y="192" type="curve" smooth="yes"/>
			<point x="462" y="305"/>
			<point x="371" y="346"/>
			<point x="276" y="389" type="curve" smooth="yes"/>
			<point x="156" y="443"/>
			<point x="133" y="483"/>
			<point x="133" y="543" type="curve" smooth="yes"/>
			<point x="133" y="599"/>
			<point x="170" y="673"/>
			<point x="296" y="673" type="curve" smooth="yes"/>
			<point x="380" y="673"/>
			<point x="405" y="639"/>
			<point x="387" y="605" type="curve" smooth="yes"/>
			<point x="374" y="580" type="line"/>
			<point x="385" y="567"/>
			<point x="400" y="557"/>
			<point x="423" y="557" type="curve" smooth="yes"/>
			<point x="450" y="557"/>
			<point x="466" y="574"/>
			<point x="466" y="606" type="curve" smooth="yes"/>
			<point x="466" y="662"/>
			<point x="396" y="715"/>
			<point x="296" y="715" type="curve" smooth="yes"/>
			<point x="144" y="715"/>
			<point x="84" y="622"/>
			<point x="84" y="535" type="curve" smooth="yes"/>
			<point x="84" y="461"/>
			<point x="115" y="410"/>
			<point x="252" y="348" type="curve" smooth="yes"/>
			<point x="354" y="302"/>
			<point x="413" y="263"/>
			<point x="413" y="184" type="curve" smooth="yes"/>
			<point x="413" y="82"/>
			<point x="340" y="26"/>
			<point x="246" y="26" type="curve" smooth="yes"/>
			<point x="145" y="26"/>
			<point x="112" y="66"/>
			<point x="135" y="113" type="curve" smooth="yes"/>
			<point x="149" y="142" type="line"/>
			<point x="133" y="155"/>
			<point x="119" y="161"/>
			<point x="102" y="161" type="curve" smooth="yes"/>
			<point x="78" y="161"/>
			<point x="55" y="142"/>
			<point x="55" y="107" type="curve" smooth="yes"/>
			<point x="55" y="45"/>
			<point x="118" y="-14"/>
			<point x="232" y="-14" type="curve" smooth="yes"/>
			<point x="390" y="-14"/>
			<point x="462" y="77"/>
		</contour>
	</outline>
	<anchor name="bottom" x="245" y="-34"/>
	<anchor name="top" x="282" y="730"/>
</glyph>
<glyph name="T" format="2">
	<unicode hex="0054"/>
	<advance width="604"/>
	<outline>
		<contour>
			<point x="187" y="32" type="line"/>
			<point x="183" y="0" type="line"/>
			<point x="413" y="0" type="line"/>
			<point x="416" y="33" type="line"/>
			<point x="319" y="45" type="line"/>
			<point x="343" y="661" type="line"/>
			<point x="466" y="661" type="line" smooth="yes"/>
			<point x="524" y="661"/>
			<point x="541" y="651"/>
			<point x="555" y="592" type="curve" smooth="yes"/>
			<point x="567" y="543" type="line"/>
			<point x="602" y="547" type="line"/>
			<point x="588" y="700" type="line"/>
			<point x="56" y="700" type="line"/>
			<point x="35" y="547" type="line"/>
			<point x="70" y="543" type="line"/>
			<point x="85" y="592" type="line" smooth="yes"/>
			<point x="105" y="658"/>
			<point x="120" y="661"/>
			<point x="179" y="661" type="curve" smooth="yes"/>
			<point x="296" y="661" type="line"/>
			<point x="272" y="46" type="line"/>
		</contour>
	</outline>
	<anchor name="bottom" x="292" y="-30"/>
	<anchor name="top" x="321" y="730"/>
</glyph>
<glyph name="V" format="2">
	<unicode hex="0056"/>
	<advance width="656"/>
	<outline>
		<contour>
			<point x="328" y="57" type="line"/>
			<point x="147" y="656" type="line"/>
			<point x="232" y="668" type="line"/>
			<point x="237" y="700" type="line"/>
			<point x="17" y="700" type="line"/>
			<point x="13" y="668" type="line"/>
			<point x="97" y="656" type="line"/>
			<point x="304" y="-9" type="line"/>
			<point x="347" y="-2" type="line"/>
			<point x="595" y="656" type="line"/>
			<point x="674" y="668" type="line"/>
			<point x="679" y="700" type="line"/>
			<point x="460" y="700" type="line"/>
			<point x="456" y="668" type="line"/>
			<point x="548" y="656" type="line"/>
			<point x="329" y="57" type="line"/>
		</contour>
	</outline>
	<anchor name="top" x="364" y="730"/>
</glyph>
<glyph name="W" format="2">
	<unicode hex="0057"/>
	<advance width="968"/>
	<outline>
		<contour>
			<point x="674" y="50" type="line"/>
			<point x="480" y="700" type="line"/>
			<point x="436" y="689" type="line"/>
			<point x="486" y="525" type="line"/>
			<point x="293" y="50" type="line"/>
			<point x="292" y="50" type="line"/>
			<point x="146" y="656" type="line"/>
			<point x="231" y="668" type="line"/>
			<point x="236" y="700" type="line"/>
			<point x="18" y="700" type="line"/>
			<point x="13" y="668" type="line"/>
			<point x="97" y="656" type="line"/>
			<point x="265" y="-9" type="line"/>
			<point x="308" y="-2" type="line"/>
			<point x="504" y="467" type="line"/>
			<point x="649" y="-9" type="line"/>
			<point x="692" y="-2" type="line"/>
			<point x="907" y="656" type="line"/>
			<point x="986" y="668" type="line"/>
			<point x="991" y="700" type="line"/>
			<point x="771" y="700" type="line"/>
			<point x="768" y="668" type="line"/>
			<point x="860" y="656" type="line"/>
			<point x="675" y="50" type="line"/>
		</contour>
	</outline>
	<anchor name="top" x="488" y="730"/>
</glyph>
<glyph name="X" format="2">
	<unicode hex="0058"/>
	<advance width="645"/>
	<outline>
		<contour>
			<point x="17" y="0" type="line"/>
			<point x="234" y="0" type="line"/>
			<point x="238" y="32" type="line"/>
			<point x="151" y="43" type="line"/>
			<point x="333" y="321" type="line"/>
			<point x="501" y="44" type="line"/>
			<point x="416" y="32" type="line"/>
			<point x="411" y="0" type="line"/>
			<point x="633" y="0" type="line"/>
			<point x="637" y="32" type="line"/>
			<point x="553" y="44" type="line"/>
			<point x="361" y="355" type="line"/>
			<point x="556" y="656" type="line"/>
			<point x="635" y="668" type="line"/>
			<point x="640" y="700" type="line"/>
			<point x="421" y="700" type="line"/>
			<point x="417" y="668" type="line"/>
			<point x="509" y="656" type="line"/>
			<point x="336" y="386" type="line"/>
			<point x="184" y="656" type="line"/>
			<point x="269" y="668" type="line"/>
			<point x="274" y="700" type="line"/>
			<point x="54" y="700" type="line"/>
			<point x="50" y="668" type="line"/>
			<point x="134" y="656" type="line"/>
			<point x="304" y="354" type="line"/>
			<point x="101" y="44" type="line"/>
			<point x="22" y="32" type="line"/>
		</contour>
	</outline>
</glyph>
<glyph name="Y" format="2">
	<unicode hex="0059"/>
	<advance width="647"/>
	<outline>
		<contour>
			<point x="334" y="299" type="line"/>
			<point x="149" y="656" type="line"/>
			<point x="234" y="668" type="line"/>
			<point x="239" y="700" type="line"/>
			<point x="17" y="700" type="line"/>
			<point x="13" y="668" type="line"/>
			<point x="97" y="656" type="line"/>
			<point x="310" y="252" type="line"/>
			<point x="302" y="46" type="line"/>
			<point x="217" y="32" type="line"/>
			<point x="213" y="0" type="line"/>
			<point x="443" y="0" type="line"/>
			<point x="446" y="33" type="line"/>
			<point x="349" y="45" type="line"/>
			<point x="357" y="256" type="line"/>
			<point x="586" y="656" type="line"/>
			<point x="665" y="668" type="line"/>
			<point x="670" y="700" type="line"/>
			<point x="450" y="700" type="line"/>
			<point x="446" y="668" type="line"/>
			<point x="538" y="656" type="line"/>
			<point x="338" y="299" type="line"/>
		</contour>
	</outline>
	<anchor name="bottom" x="316" y="-30"/>
	<anchor name="top" x="335" y="730"/>
</glyph>
<glyph name="Z" format="2">
	<unicode hex="005A"/>
	<advance width="595"/>
	<outline>
		<contour>
			<point x="558" y="657" type="line"/>
			<point x="552" y="700" type="line"/>
			<point x="115" y="700" type="line"/>
			<point x="91" y="537" type="line"/>
			<point x="126" y="532" type="line"/>
			<point x="145" y="591" type="line" smooth="yes"/>
			<point x="168" y="661"/>
			<point x="195" y="661"/>
			<point x="244" y="661" type="curve" smooth="yes"/>
			<point x="505" y="661" type="line"/>
			<point x="64" y="38" type="line"/>
			<point x="61" y="0" type="line"/>
			<point x="527" y="0" type="line"/>
			<point x="552" y="167" type="line"/>
			<point x="516" y="167" type="line"/>
			<point x="501" y="114" type="line" smooth="yes"/>
			<point x="480" y="39"/>
			<point x="455" y="39"/>
			<point x="402" y="39" type="curve" smooth="yes"/>
			<point x="120" y="39" type="line"/>
		</contour>
	</outline>
	<anchor name="bottom" x="299" y="-30"/>
	<anchor name="top" x="325" y="730"/>
</glyph>
<glyph name="bracketleft" format="2">
	<unicode hex="005B"/>
	<advance width="294"/>
	<outline>
		<contour>
			<point x="141" y="-176" type="line"/>
			<point x="172" y="778" type="line"/>
			<point x="275" y="787" type="line"/>
			<point x="277" y="812" type="line"/>
			<point x="132" y="812" type="line"/>
			<point x="98" y="-212" type="line"/>
			<point x="249" y="-212" type="line"/>
			<point x="251" y="-183" type="line"/>
		</contour>
	</outline>
</glyph>
<glyph name="bracketright" format="2">
	<unicode hex="005D"/>
	<advance width="297"/>
	<outline>
		<contour>
			<point x="178" y="776" type="line"/>
			<point x="147" y="-178" type="line"/>
			<point x="37" y="-187" type="line"/>
			<point x="35" y="-212" type="line"/>
			<point x="187" y="-212" type="line"/>
			<point x="221" y="812" type="line"/>
			<point x="80" y="812" type="line"/>
			<point x="77" y="783" type="line"/>
		</contour>
	</outline>
</glyph>
<glyph name="underscore" format="2">
	<unicode hex="005F"/>
	<advance width="499"/>
	<outline>
		<contour>
			<point x="11" y="-96" type="line"/>
			<point x="481" y="-96" type="line"/>
			<point x="482" y="-46" type="line"/>
			<point x="12" y="-46" type="line"/>
		</contour>
	</outline>
</glyph>
<glyph name="grave" format="2">
	<unicode hex="0060"/>
	<advance width="500"/>
	<outline>
		<contour>
			<point x="327" y="601" type="line"/>
			<point x="209" y="758" type="line"/>
			<point x="175" y="764"/>
			<point x="157" y="749"/>
			<point x="157" y="729" type="curve" smooth="yes"/>
			<point x="157" y="715"/>
			<point x="163" y="703"/>
			<point x="184" y="686" type="curve" smooth="yes"/>
			<point x="311" y="585" type="line"/>
		</contour>
	</outline>
	<anchor name="_top" x="268" y="550"/>
</glyph>
<glyph name="h" format="2">
	<unicode hex="0068"/>
	<advance width="567"/>
	<outline>
		<contour>
			<point x="550" y="30" type="curve"/>
			<point x="531" y="58" type="line"/>
			<point x="507" y="41"/>
			<point x="486" y="30"/>
			<point x="461" y="30" type="curve" smooth="yes"/>
			<point x="441" y="30"/>
			<point x="435" y="38"/>
			<point x="438" y="67" type="curve" smooth="yes"/>
			<point x="465" y="348" type="line" smooth="yes"/>
			<point x="474" y="447"/>
			<point x="464" y="517"/>
			<point x="377" y="517" type="curve" smooth="yes"/>
			<point x="299" y="517"/>
			<point x="260" y="462"/>
			<point x="227" y="368" type="curve" smooth="yes"/>
			<point x="137" y="113" type="line"/>
			<point x="131" y="114" type="line"/>
			<point x="154" y="409" type="line"/>
			<point x="168" y="756" type="line"/>
			<point x="152" y="767" type="line"/>
			<point x="35" y="767" type="line"/>
			<point x="32" y="734" type="line"/>
			<point x="117" y="721" type="line"/>
			<point x="88" y="0" type="line"/>
			<point x="128" y="0" type="line"/>
			<point x="258" y="336" type="line" smooth="yes"/>
			<point x="302" y="450"/>
			<point x="323" y="474"/>
			<point x="370" y="474" type="curve" smooth="yes"/>
			<point x="410" y="474"/>
			<point x="425" y="448"/>
			<point x="417" y="359" type="curve" smooth="yes"/>
			<point x="389" y="61" type="line" smooth="yes"/>
			<point x="385" y="19"/>
			<point x="400" y="-14"/>
			<point x="447" y="-14" type="curve" smooth="yes"/>
			<point x="486" y="-14"/>
			<point x="528" y="10"/>
		</contour>
	</outline>
	<anchor name="bottom" x="277" y="-30"/>
	<anchor name="top" x="106" y="780"/>
</glyph>
<glyph name="i" format="2">
	<unicode hex="0069"/>
	<advance width="282"/>
	<outline>
		<contour>
			<point x="129" y="429" type="curve" smooth="yes"/>
			<point x="101" y="66" type="line" smooth="yes"/>
			<point x="98" y="30"/>
			<point x="106" y="-14"/>
			<point x="156" y="-14" type="curve" smooth="yes"/>
			<point x="195" y="-14"/>
			<point x="235" y="8"/>
			<point x="260" y="30" type="curve"/>
			<point x="241" y="58" type="line"/>
			<point x="213" y="38"/>
			<point x="193" y="30"/>
			<point x="173" y="30" type="curve" smooth="yes"/>
			<point x="154" y="30"/>
			<point x="147" y="40"/>
			<point x="150" y="75" type="curve" smooth="yes"/>
			<point x="178" y="421" type="line" smooth="yes"/>
			<point x="183" y="477"/>
			<point x="178" y="517"/>
			<point x="123" y="517" type="curve" smooth="yes"/>
			<point x="96" y="517"/>
			<point x="47" y="502"/>
			<point x="22" y="488" type="curve"/>
			<point x="34" y="454" type="line"/>
			<point x="62" y="466"/>
			<point x="85" y="473"/>
			<point x="104" y="473" type="curve" smooth="yes"/>
			<point x="125" y="473"/>
			<point x="131" y="457"/>
		</contour>
		<contour>
			<point x="108" y="683" type="curve" smooth="yes"/>
			<point x="108" y="656"/>
			<point x="125" y="637"/>
			<point x="149" y="637" type="curve" smooth="yes"/>
			<point x="177" y="637"/>
			<point x="192" y="661"/>
			<point x="192" y="687" type="curve" smooth="yes"/>
			<point x="192" y="716"/>
			<point x="178" y="734"/>
			<point x="150" y="734" type="curve" smooth="yes"/>
			<point x="125" y="734"/>
			<point x="108" y="712"/>
		</contour>
	</outline>
	<anchor name="bottom" x="157" y="-30"/>
</glyph>
<glyph name="p" format="2">
	<unicode hex="0070"/>
	<advance width="558"/>
	<outline>
		<contour>
			<point x="119" y="430" type="curve" smooth="yes"/>
			<point x="109" y="60" type="line"/>
			<point x="90" y="-216" type="line"/>
			<point x="103" y="-227" type="line"/>
			<point x="224" y="-222" type="line"/>
			<point x="227" y="-188" type="line"/>
			<point x="139" y="-181" type="line"/>
			<point x="152" y="14" type="line"/>
			<point x="174" y="2"/>
			<point x="230" y="-14"/>
			<point x="275" y="-14" type="curve" smooth="yes"/>
			<point x="390" y="-14"/>
			<point x="504" y="81"/>
			<point x="504" y="305" type="curve" smooth="yes"/>
			<point x="504" y="426"/>
			<point x="467" y="517"/>
			<point x="359" y="517" type="curve" smooth="yes"/>
			<point x="281" y="517"/>
			<point x="225" y="464"/>
			<point x="189" y="322" type="curve" smooth="yes"/>
			<point x="151" y="172" type="line"/>
			<point x="146" y="173" type="line"/>
			<point x="169" y="426" type="line" smooth="yes"/>
			<point x="174" y="483"/>
			<point x="168" y="517"/>
			<point x="112" y="517" type="curve" smooth="yes"/>
			<point x="85" y="517"/>
			<point x="52" y="507"/>
			<point x="12" y="488" type="curve"/>
			<point x="24" y="454" type="line"/>
			<point x="49" y="465"/>
			<point x="74" y="473"/>
			<point x="92" y="473" type="curve" smooth="yes"/>
			<point x="113" y="473"/>
			<point x="120" y="460"/>
		</contour>
		<contour>
			<point x="355" y="471" type="curve" smooth="yes"/>
			<point x="433" y="471"/>
			<point x="455" y="395"/>
			<point x="455" y="300" type="curve" smooth="yes"/>
			<point x="455" y="137"/>
			<point x="378" y="30"/>
			<point x="274" y="30" type="curve" smooth="yes"/>
			<point x="220" y="30"/>
			<point x="176" y="48"/>
			<point x="154" y="58" type="curve"/>
			<point x="186" y="181" type="line" smooth="yes"/>
			<point x="239" y="387"/>
			<point x="275" y="471"/>
		</contour>
	</outline>
</glyph>
<glyph name="q" format="2">
	<unicode hex="0071"/>
	<advance width="523"/>
	<outline>
		<contour>
			<point x="409" y="-140" type="curve" smooth="yes"/>
			<point x="452" y="506" type="line"/>
			<point x="436" y="513" type="line"/>
			<point x="402" y="493" type="line"/>
			<point x="362" y="508"/>
			<point x="325" y="516"/>
			<point x="280" y="516" type="curve" smooth="yes"/>
			<point x="161" y="516"/>
			<point x="55" y="401"/>
			<point x="55" y="201" type="curve" smooth="yes"/>
			<point x="55" y="81"/>
			<point x="97" y="-14"/>
			<point x="202" y="-14" type="curve" smooth="yes"/>
			<point x="282" y="-14"/>
			<point x="340" y="43"/>
			<point x="378" y="213" type="curve" smooth="yes"/>
			<point x="407" y="341" type="line"/>
			<point x="414" y="340" type="line"/>
			<point x="379" y="74" type="line"/>
			<point x="364" y="-125" type="line" smooth="yes"/>
			<point x="359" y="-194"/>
			<point x="374" y="-225"/>
			<point x="420" y="-225" type="curve" smooth="yes"/>
			<point x="456" y="-225"/>
			<point x="494" y="-204"/>
			<point x="518" y="-183" type="curve"/>
			<point x="500" y="-155" type="line"/>
			<point x="475" y="-172"/>
			<point x="456" y="-181"/>
			<point x="436" y="-181" type="curve" smooth="yes"/>
			<point x="418" y="-181"/>
			<point x="407" y="-175"/>
		</contour>
		<contour>
			<point x="205" y="32" type="curve" smooth="yes"/>
			<point x="142" y="32"/>
			<point x="104" y="84"/>
			<point x="104" y="207" type="curve" smooth="yes"/>
			<point x="104" y="370"/>
			<point x="185" y="474"/>
			<point x="285" y="474" type="curve" smooth="yes"/>
			<point x="329" y="474"/>
			<point x="378" y="460"/>
			<point x="405" y="446" type="curve"/>
			<point x="347" y="230" type="line" smooth="yes"/>
			<point x="307" y="81"/>
			<point x="274" y="32"/>
		</contour>
	</outline>
</glyph>
<glyph name="r" format="2">
	<unicode hex="0072"/>
	<advance width="425"/>
	<outline>
		<contour>
			<point x="119" y="431" type="curve" smooth="yes"/>
			<point x="95" y="0" type="line"/>
			<point x="133" y="0" type="line"/>
			<point x="138" y="58" type="line" smooth="yes"/>
			<point x="144" y="125"/>
			<point x="157" y="158"/>
			<point x="258" y="399" type="curve" smooth="yes"/>
			<point x="277" y="444"/>
			<point x="289" y="453"/>
			<point x="302" y="453" type="curve" smooth="yes"/>
			<point x="314" y="453"/>
			<point x="325" y="447"/>
			<point x="336" y="436" type="curve" smooth="yes"/>
			<point x="359" y="412" type="line"/>
			<point x="375" y="423"/>
			<point x="389" y="439"/>
			<point x="389" y="463" type="curve" smooth="yes"/>
			<point x="389" y="496"/>
			<point x="363" y="517"/>
			<point x="326" y="517" type="curve" smooth="yes"/>
			<point x="275" y="517"/>
			<point x="244" y="478"/>
			<point x="218" y="406" type="curve" smooth="yes"/>
			<point x="147" y="209" type="line"/>
			<point x="141" y="209" type="line"/>
			<point x="166" y="415" type="line" smooth="yes"/>
			<point x="174" y="483"/>
			<point x="163" y="517"/>
			<point x="112" y="517" type="curve" smooth="yes"/>
			<point x="84" y="517"/>
			<point x="33" y="500"/>
			<point x="12" y="488" type="curve"/>
			<point x="24" y="455" type="line"/>
			<point x="55" y="467"/>
			<point x="77" y="474"/>
			<point x="92" y="474" type="curve" smooth="yes"/>
			<point x="118" y="474"/>
			<point x="120" y="453"/>
		</contour>
	</outline>
	<anchor name="bottom" x="112" y="-30"/>
	<anchor name="top" x="222" y="550"/>
</glyph>
<glyph name="x" format="2">
	<unicode hex="0078"/>
	<advance width="527"/>
	<outline>
		<contour>
			<point x="273" y="288" type="line"/>
			<point x="194" y="459" type="line" smooth="yes"/>
			<point x="178" y="493"/>
			<point x="159" y="517"/>
			<point x="116" y="517" type="curve" smooth="yes"/>
			<point x="89" y="517"/>
			<point x="50" y="502"/>
			<point x="25" y="488" type="curve"/>
			<point x="37" y="454" type="line"/>
			<point x="65" y="466"/>
			<point x="85" y="473"/>
			<point x="102" y="473" type="curve" smooth="yes"/>
			<point x="121" y="473"/>
			<point x="140" y="461"/>
			<point x="160" y="418" type="curve" smooth="yes"/>
			<point x="233" y="262" type="line"/>
			<point x="113" y="164" type="line" smooth="yes"/>
			<point x="66" y="126"/>
			<point x="40" y="90"/>
			<point x="40" y="48" type="curve" smooth="yes"/>
			<point x="40" y="13"/>
			<point x="62" y="-14"/>
			<point x="96" y="-14" type="curve" smooth="yes"/>
			<point x="123" y="-14"/>
			<point x="137" y="3"/>
			<point x="145" y="35" type="curve"/>
			<point x="124" y="43" type="line" smooth="yes"/>
			<point x="88" y="57"/>
			<point x="89" y="94"/>
			<point x="124" y="124" type="curve" smooth="yes"/>
			<point x="251" y="230" type="line"/>
			<point x="337" y="46" type="line" smooth="yes"/>
			<point x="355" y="8"/>
			<point x="375" y="-14"/>
			<point x="418" y="-14" type="curve" smooth="yes"/>
			<point x="451" y="-14"/>
			<point x="485" y="8"/>
			<point x="510" y="30" type="curve"/>
			<point x="491" y="58" type="line"/>
			<point x="464" y="39"/>
			<point x="445" y="30"/>
			<point x="430" y="30" type="curve" smooth="yes"/>
			<point x="412" y="30"/>
			<point x="394" y="35"/>
			<point x="369" y="89" type="curve" smooth="yes"/>
			<point x="291" y="258" type="line"/>
			<point x="348" y="304" type="line" smooth="yes"/>
			<point x="448" y="385"/>
			<point x="473" y="422"/>
			<point x="473" y="467" type="curve" smooth="yes"/>
			<point x="473" y="500"/>
			<point x="449" y="516"/>
			<point x="425" y="516" type="curve" smooth="yes"/>
			<point x="402" y="516"/>
			<point x="387" y="505"/>
			<point x="376" y="480" type="curve"/>
			<point x="398" y="462" type="line" smooth="yes"/>
			<point x="434" y="433"/>
			<point x="404" y="400"/>
			<point x="340" y="345" type="curve" smooth="yes"/>
		</contour>
	</outline>
</glyph>
<glyph name="z" format="2">
	<unicode hex="007A"/>
	<advance width="469"/>
	<outline>
		<contour>
			<point x="78" y="503" type="line"/>
			<point x="67" y="492" type="line"/>
			<point x="55" y="363" type="line"/>
			<point x="89" y="366" type="line"/>
			<point x="107" y="437"/>
			<point x="110" y="461"/>
			<point x="158" y="461" type="curve" smooth="yes"/>
			<point x="372" y="461" type="line"/>
			<point x="38" y="37" type="line"/>
			<point x="72" y="-7" type="line"/>
			<point x="91" y="2"/>
			<point x="113" y="9"/>
			<point x="151" y="9" type="curve" smooth="yes"/>
			<point x="228" y="9"/>
			<point x="309" y="-22"/>
			<point x="400" y="0" type="curve"/>
			<point x="426" y="153" type="line"/>
			<point x="391" y="153" type="line"/>
			<point x="366" y="47"/>
			<point x="348" y="35"/>
			<point x="308" y="35" type="curve" smooth="yes"/>
			<point x="275" y="35"/>
			<point x="203" y="51"/>
			<point x="160" y="51" type="curve" smooth="yes"/>
			<point x="140" y="51"/>
			<point x="113" y="48"/>
			<point x="92" y="43" type="curve"/>
			<point x="435" y="477" type="line"/>
			<point x="427" y="503" type="line"/>
		</contour>
	</outline>
	<anchor name="bottom" x="223" y="-30"/>
	<anchor name="top" x="240" y="550"/>
</glyph>
<glyph name="braceleft" format="2">
	<unicode hex="007B"/>
	<advance width="357"/>
	<outline>
		<contour>
			<point x="68" y="322" type="curve"/>
			<point x="66" y="294" type="line"/>
			<point x="147" y="294"/>
			<point x="162" y="264"/>
			<point x="162" y="180" type="curve" smooth="yes"/>
			<point x="162" y="115"/>
			<point x="133" y="-46"/>
			<point x="133" y="-111" type="curve" smooth="yes"/>
			<point x="133" y="-182"/>
			<point x="175" y="-226"/>
			<point x="247" y="-226" type="curve" smooth="yes"/>
			<point x="267" y="-226"/>
			<point x="287" y="-224"/>
			<point x="308" y="-217" type="curve"/>
			<point x="302" y="-189" type="line"/>
			<point x="280" y="-193"/>
			<point x="265" y="-195"/>
			<point x="248" y="-195" type="curve" smooth="yes"/>
			<point x="194" y="-195"/>
			<point x="173" y="-164"/>
			<point x="176" y="-102" type="curve" smooth="yes"/>
			<point x="179" y="-42"/>
			<point x="201" y="125"/>
			<point x="201" y="170" type="curve" smooth="yes"/>
			<point x="201" y="264"/>
			<point x="180" y="301"/>
			<point x="121" y="309" type="curve"/>
			<point x="178" y="316"/>
			<point x="220" y="353"/>
			<point x="220" y="442" type="curve" smooth="yes"/>
			<point x="220" y="513"/>
			<point x="208" y="659"/>
			<point x="207" y="699" type="curve" smooth="yes"/>
			<point x="206" y="761"/>
			<point x="225" y="792"/>
			<point x="279" y="792" type="curve" smooth="yes"/>
			<point x="296" y="792"/>
			<point x="311" y="790"/>
			<point x="333" y="786" type="curve"/>
			<point x="339" y="814" type="line"/>
			<point x="317" y="820"/>
			<point x="298" y="823"/>
			<point x="278" y="823" type="curve" smooth="yes"/>
			<point x="206" y="823"/>
			<point x="164" y="779"/>
			<point x="164" y="708" type="curve" smooth="yes"/>
			<point x="164" y="645"/>
			<point x="181" y="502"/>
			<point x="181" y="428" type="curve" smooth="yes"/>
			<point x="181" y="353"/>
			<point x="151" y="327"/>
		</contour>
	</outline>
</glyph>
<glyph name="braceright" format="2">
	<unicode hex="007D"/>
	<advance width="355"/>
	<outline>
		<contour>
			<point x="307" y="296" type="curve"/>
			<point x="309" y="324" type="line"/>
			<point x="228" y="324"/>
			<point x="213" y="354"/>
			<point x="213" y="438" type="curve" smooth="yes"/>
			<point x="213" y="503"/>
			<point x="242" y="643"/>
			<point x="242" y="708" type="curve" smooth="yes"/>
			<point x="242" y="779"/>
			<point x="200" y="823"/>
			<point x="128" y="823" type="curve" smooth="yes"/>
			<point x="108" y="823"/>
			<point x="88" y="821"/>
			<point x="67" y="814" type="curve"/>
			<point x="73" y="786" type="line"/>
			<point x="95" y="790"/>
			<point x="110" y="792"/>
			<point x="127" y="792" type="curve" smooth="yes"/>
			<point x="181" y="792"/>
			<point x="202" y="761"/>
			<point x="199" y="699" type="curve" smooth="yes"/>
			<point x="198" y="682"/>
			<point x="174" y="493"/>
			<point x="174" y="449" type="curve" smooth="yes"/>
			<point x="174" y="354"/>
			<point x="193" y="317"/>
			<point x="254" y="309" type="curve"/>
			<point x="193" y="299"/>
			<point x="160" y="255"/>
			<point x="160" y="176" type="curve" smooth="yes"/>
			<point x="160" y="104"/>
			<point x="172" y="-62"/>
			<point x="173" y="-102" type="curve" smooth="yes"/>
			<point x="175" y="-164"/>
			<point x="155" y="-195"/>
			<point x="101" y="-195" type="curve" smooth="yes"/>
			<point x="84" y="-195"/>
			<point x="69" y="-193"/>
			<point x="47" y="-189" type="curve"/>
			<point x="41" y="-217" type="line"/>
			<point x="63" y="-223"/>
			<point x="82" y="-226"/>
			<point x="102" y="-226" type="curve" smooth="yes"/>
			<point x="174" y="-226"/>
			<point x="216" y="-182"/>
			<point x="216" y="-111" type="curve" smooth="yes"/>
			<point x="216" y="-48"/>
			<point x="199" y="115"/>
			<point x="199" y="190" type="curve" smooth="yes"/>
			<point x="199" y="263"/>
			<point x="228" y="290"/>
		</contour>
	</outline>
</glyph>
<glyph name="sterling" format="2">
	<unicode hex="00A3"/>
	<advance width="600"/>
	<outline>
		<contour>
			<point x="77" y="15" type="curve"/>
			<point x="96" y="-14" type="line"/>
			<point x="139" y="16"/>
			<point x="192" y="36"/>
			<point x="238" y="36" type="curve" smooth="yes"/>
			<point x="280" y="36"/>
			<point x="309" y="24"/>
			<point x="341" y="12" type="curve" smooth="yes"/>
			<point x="375" y="-1"/>
			<point x="410" y="-14"/>
			<point x="457" y="-14" type="curve" smooth="yes"/>
			<point x="531" y="-14"/>
			<point x="571" y="40"/>
			<point x="571" y="93" type="curve" smooth="yes"/>
			<point x="571" y="163"/>
			<point x="523" y="200"/>
			<point x="443" y="223" type="curve"/>
			<point x="427" y="185" type="line"/>
			<point x="492" y="166"/>
			<point x="523" y="135"/>
			<point x="523" y="95" type="curve" smooth="yes"/>
			<point x="523" y="57"/>
			<point x="498" y="30"/>
			<point x="448" y="30" type="curve" smooth="yes"/>
			<point x="411" y="30"/>
			<point x="383" y="40"/>
			<point x="354" y="52" type="curve" smooth="yes"/>
			<point x="335" y="60"/>
			<point x="303" y="70"/>
			<point x="282" y="74" type="curve"/>
			<point x="229" y="188"/>
			<point x="191" y="283"/>
			<point x="175" y="343" type="curve"/>
			<point x="423" y="343" type="line"/>
			<point x="426" y="378" type="line"/>
			<point x="165" y="378" type="line"/>
			<point x="159" y="404"/>
			<point x="155" y="431"/>
			<point x="155" y="460" type="curve" smooth="yes"/>
			<point x="155" y="594"/>
			<point x="222" y="670"/>
			<point x="339" y="670" type="curve" smooth="yes"/>
			<point x="413" y="670"/>
			<point x="456" y="633"/>
			<point x="432" y="584" type="curve" smooth="yes"/>
			<point x="419" y="558" type="line"/>
			<point x="435" y="542"/>
			<point x="451" y="533"/>
			<point x="475" y="533" type="curve" smooth="yes"/>
			<point x="501" y="533"/>
			<point x="523" y="553"/>
			<point x="523" y="585" type="curve" smooth="yes"/>
			<point x="523" y="663"/>
			<point x="434" y="715"/>
			<point x="345" y="715" type="curve" smooth="yes"/>
			<point x="195" y="715"/>
			<point x="104" y="619"/>
			<point x="104" y="458" type="curve" smooth="yes"/>
			<point x="104" y="434"/>
			<point x="110" y="401"/>
			<point x="115" y="378" type="curve"/>
			<point x="37" y="378" type="line"/>
			<point x="32" y="343" type="line"/>
			<point x="125" y="343" type="line"/>
			<point x="155" y="258"/>
			<point x="206" y="153"/>
			<point x="247" y="78" type="curve"/>
			<point x="190" y="75"/>
			<point x="135" y="56"/>
		</contour>
	</outline>
</glyph>
<glyph name="ordfeminine" format="2">
	<unicode hex="00AA"/>
	<advance width="430"/>
	<outline>
		<contour>
			<point x="356" y="434" type="curve" smooth="yes"/>
			<point x="365" y="735" type="line"/>
			<point x="358" y="740" type="line"/>
			<point x="317" y="722" type="line"/>
			<point x="293" y="733"/>
			<point x="263" y="742"/>
			<point x="229" y="742" type="curve" smooth="yes"/>
			<point x="138" y="742"/>
			<point x="66" y="660"/>
			<point x="66" y="515" type="curve" smooth="yes"/>
			<point x="66" y="414"/>
			<point x="104" y="362"/>
			<point x="174" y="362" type="curve" smooth="yes"/>
			<point x="246" y="362"/>
			<point x="277" y="413"/>
			<point x="305" y="517" type="curve" smooth="yes"/>
			<point x="321" y="577" type="line"/>
			<point x="326" y="577" type="line"/>
			<point x="313" y="433" type="line" smooth="yes"/>
			<point x="310" y="397"/>
			<point x="312" y="362"/>
			<point x="354" y="362" type="curve" smooth="yes"/>
			<point x="381" y="362"/>
			<point x="408" y="372"/>
			<point x="435" y="393" type="curve"/>
			<point x="420" y="417" type="line"/>
			<point x="400" y="405"/>
			<point x="388" y="401"/>
			<point x="374" y="401" type="curve" smooth="yes"/>
			<point x="357" y="401"/>
			<point x="355" y="411"/>
		</contour>
		<contour>
			<point x="177" y="404" type="curve" smooth="yes"/>
			<point x="136" y="404"/>
			<point x="113" y="435"/>
			<point x="113" y="521" type="curve" smooth="yes"/>
			<point x="113" y="646"/>
			<point x="167" y="703"/>
			<point x="231" y="703" type="curve" smooth="yes"/>
			<point x="262" y="703"/>
			<point x="301" y="693"/>
			<point x="319" y="684" type="curve"/>
			<point x="294" y="593" type="line" smooth="yes"/>
			<point x="256" y="456"/>
			<point x="232" y="404"/>
		</contour>
	</outline>
</glyph>
<glyph name="logicalnot" format="2">
	<unicode hex="00AC"/>
	<advance width="582"/>
	<outline>
		<contour>
			<point x="449" y="154" type="line"/>
			<point x="491" y="154" type="line"/>
			<point x="499" y="367" type="line"/>
			<point x="91" y="367" type="line"/>
			<point x="89" y="325" type="line"/>
			<point x="455" y="325" type="line"/>
		</contour>
	</outline>
</glyph>
<glyph name="macron" format="2">
	<unicode hex="00AF"/>
	<advance width="500"/>
	<outline>
		<contour>
			<point x="144" y="687" type="line"/>
			<point x="142" y="644" type="line"/>
			<point x="402" y="644" type="line"/>
			<point x="404" y="687" type="line"/>
		</contour>
	</outline>
	<anchor name="_top" x="268" y="550"/>
</glyph>
<glyph name="plusminus" format="2">
	<unicode hex="00B1"/>
	<advance width="582"/>
	<outline>
		<contour>
			<point x="266" y="141" type="line"/>
			<point x="307" y="141" type="line"/>
			<point x="314" y="317" type="line"/>
			<point x="491" y="317" type="line"/>
			<point x="493" y="357" type="line"/>
			<point x="316" y="357" type="line"/>
			<point x="322" y="521" type="line"/>
			<point x="280" y="521" type="line"/>
			<point x="274" y="357" type="line"/>
			<point x="98" y="357" type="line"/>
			<point x="96" y="317" type="line"/>
			<point x="272" y="317" type="line"/>
		</contour>
		<contour>
			<point x="78" y="1" type="line"/>
			<point x="486" y="1" type="line"/>
			<point x="488" y="41" type="line"/>
			<point x="80" y="41" type="line"/>
		</contour>
	</outline>
</glyph>
<glyph name="twosuperior" format="2">
	<unicode hex="00B2"/>
	<advance width="372"/>
	<outline>
		<contour>
			<point x="176" y="798" type="curve" smooth="yes"/>
			<point x="232" y="798"/>
			<point x="279" y="773"/>
			<point x="279" y="709" type="curve" smooth="yes"/>
			<point x="279" y="637"/>
			<point x="230" y="577"/>
			<point x="34" y="400" type="curve"/>
			<point x="38" y="374" type="line"/>
			<point x="330" y="374" type="line"/>
			<point x="341" y="487" type="line"/>
			<point x="309" y="487" type="line"/>
			<point x="288" y="418"/>
			<point x="278" y="414"/>
			<point x="224" y="414" type="curve" smooth="yes"/>
			<point x="107" y="414" type="line"/>
			<point x="302" y="583"/>
			<point x="330" y="652"/>
			<point x="330" y="710" type="curve" smooth="yes"/>
			<point x="330" y="795"/>
			<point x="267" y="838"/>
			<point x="179" y="838" type="curve" smooth="yes"/>
			<point x="103" y="838"/>
			<point x="37" y="805"/>
			<point x="37" y="737" type="curve" smooth="yes"/>
			<point x="37" y="710"/>
			<point x="56" y="694"/>
			<point x="75" y="694" type="curve" smooth="yes"/>
			<point x="93" y="694"/>
			<point x="107" y="703"/>
			<point x="115" y="713" type="curve"/>
			<point x="101" y="736" type="line" smooth="yes"/>
			<point x="81" y="769"/>
			<point x="99" y="798"/>
		</contour>
	</outline>
</glyph>
<glyph name="acute" format="2">
	<unicode hex="00B4"/>
	<advance width="500"/>
	<outline>
		<contour>
			<point x="293" y="720" type="curve" smooth="yes"/>
			<point x="204" y="602" type="line"/>
			<point x="220" y="586" type="line"/>
			<point x="375" y="713" type="line"/>
			<point x="380" y="740"/>
			<point x="367" y="758"/>
			<point x="347" y="758" type="curve" smooth="yes"/>
			<point x="330" y="758"/>
			<point x="315" y="749"/>
		</contour>
	</outline>
	<anchor name="_top" x="268" y="550"/>
	<guideline x="307" y="580" angle="0"/>
</glyph>
<glyph name="cedilla" format="2">
	<unicode hex="00B8"/>
	<advance width="500"/>
	<outline>
		<contour>
			<point x="264" y="13" type="line"/>
			<point x="230" y="13" type="line"/>
			<point x="198" y="-83" type="line"/>
			<point x="208" y="-95" type="line"/>
			<point x="254" y="-89"/>
			<point x="285" y="-100"/>
			<point x="285" y="-138" type="curve" smooth="yes"/>
			<point x="285" y="-177"/>
			<point x="254" y="-196"/>
			<point x="220" y="-196" type="curve" smooth="yes"/>
			<point x="196" y="-196"/>
			<point x="180" y="-191"/>
			<point x="165" y="-184" type="curve"/>
			<point x="155" y="-211" type="line"/>
			<point x="173" y="-221"/>
			<point x="195" y="-229"/>
			<point x="227" y="-229" type="curve" smooth="yes"/>
			<point x="289" y="-229"/>
			<point x="334" y="-189"/>
			<point x="334" y="-137" type="curve" smooth="yes"/>
			<point x="334" y="-81"/>
			<point x="288" y="-60"/>
			<point x="237" y="-64" type="curve"/>
		</contour>
	</outline>
	<anchor name="_bottom" x="248" y="-30"/>
</glyph>
<glyph name="ordmasculine" format="2">
	<unicode hex="00BA"/>
	<advance width="419"/>
	<outline>
		<contour>
			<point x="217" y="362" type="curve" smooth="yes"/>
			<point x="340" y="362"/>
			<point x="385" y="458"/>
			<point x="385" y="566" type="curve" smooth="yes"/>
			<point x="385" y="672"/>
			<point x="334" y="741"/>
			<point x="238" y="741" type="curve" smooth="yes"/>
			<point x="116" y="741"/>
			<point x="72" y="645"/>
			<point x="72" y="538" type="curve" smooth="yes"/>
			<point x="72" y="433"/>
			<point x="122" y="362"/>
		</contour>
		<contour>
			<point x="219" y="402" type="curve" smooth="yes"/>
			<point x="152" y="402"/>
			<point x="120" y="451"/>
			<point x="120" y="535" type="curve" smooth="yes"/>
			<point x="120" y="626"/>
			<point x="145" y="702"/>
			<point x="233" y="702" type="curve" smooth="yes"/>
			<point x="309" y="702"/>
			<point x="337" y="650"/>
			<point x="337" y="568" type="curve" smooth="yes"/>
			<point x="337" y="476"/>
			<point x="310" y="402"/>
		</contour>
	</outline>
</glyph>
<glyph name="AE" format="2">
	<unicode hex="00C6"/>
	<advance width="906"/>
	<outline>
		<contour>
			<point x="16" y="0" type="line"/>
			<point x="233" y="0" type="line"/>
			<point x="237" y="32" type="line"/>
			<point x="145" y="44" type="line"/>
			<point x="215" y="239" type="line"/>
			<point x="469" y="239" type="line"/>
			<point x="524" y="44" type="line"/>
			<point x="439" y="32" type="line"/>
			<point x="434" y="0" type="line"/>
			<point x="844" y="0" type="line"/>
			<point x="866" y="157" type="line"/>
			<point x="830" y="157" type="line"/>
			<point x="818" y="114" type="line" smooth="yes"/>
			<point x="797" y="39"/>
			<point x="771" y="39"/>
			<point x="719" y="39" type="curve" smooth="yes"/>
			<point x="573" y="39" type="line"/>
			<point x="488" y="340" type="line"/>
			<point x="741" y="340" type="line"/>
			<point x="745" y="380" type="line"/>
			<point x="477" y="380" type="line"/>
			<point x="394" y="661" type="line"/>
			<point x="637" y="661" type="line" smooth="yes"/>
			<point x="691" y="661"/>
			<point x="715" y="655"/>
			<point x="732" y="591" type="curve" smooth="yes"/>
			<point x="745" y="542" type="line"/>
			<point x="780" y="547" type="line"/>
			<point x="766" y="700" type="line"/>
			<point x="336" y="700" type="line"/>
			<point x="100" y="44" type="line"/>
			<point x="21" y="32" type="line"/>
		</contour>
		<contour>
			<point x="229" y="278" type="line"/>
			<point x="354" y="636" type="line"/>
			<point x="355" y="636" type="line"/>
			<point x="457" y="278" type="line"/>
		</contour>
	</outline>
	<anchor name="top" x="561" y="730"/>
</glyph>
<glyph name="Ccedilla" format="2">
	<unicode hex="00C7"/>
	<advance width="608"/>
	<outline>
		<contour>
			<point x="306" y="-229" type="curve" smooth="yes"/>
			<point x="368" y="-229"/>
			<point x="413" y="-189"/>
			<point x="413" y="-137" type="curve" smooth="yes"/>
			<point x="413" y="-81"/>
			<point x="367" y="-60"/>
			<point x="316" y="-64" type="curve"/>
			<point x="334" y="-14" type="line"/>
			<point x="424" y="-11"/>
			<point x="506" y="41"/>
			<point x="563" y="121" type="curve"/>
			<point x="535" y="149" type="line"/>
			<point x="468" y="66"/>
			<point x="404" y="31"/>
			<point x="330" y="31" type="curve" smooth="yes"/>
			<point x="200" y="31"/>
			<point x="116" y="145"/>
			<point x="116" y="331" type="curve" smooth="yes"/>
			<point x="116" y="536"/>
			<point x="219" y="670"/>
			<point x="367" y="670" type="curve" smooth="yes"/>
			<point x="460" y="670"/>
			<point x="504" y="633"/>
			<point x="480" y="584" type="curve" smooth="yes"/>
			<point x="467" y="558" type="line"/>
			<point x="483" y="542"/>
			<point x="499" y="533"/>
			<point x="523" y="533" type="curve" smooth="yes"/>
			<point x="549" y="533"/>
			<point x="571" y="553"/>
			<point x="571" y="585" type="curve" smooth="yes"/>
			<point x="571" y="659"/>
			<point x="473" y="715"/>
			<point x="369" y="715" type="curve" smooth="yes"/>
			<point x="187" y="715"/>
			<point x="65" y="565"/>
			<point x="65" y="326" type="curve" smooth="yes"/>
			<point x="65" y="121"/>
			<point x="161" y="0"/>
			<point x="300" y="-13" type="curve"/>
			<point x="277" y="-83" type="line"/>
			<point x="287" y="-95" type="line"/>
			<point x="333" y="-89"/>
			<point x="364" y="-100"/>
			<point x="364" y="-138" type="curve" smooth="yes"/>
			<point x="364" y="-177"/>
			<point x="333" y="-196"/>
			<point x="299" y="-196" type="curve" smooth="yes"/>
			<point x="275" y="-196"/>
			<point x="259" y="-191"/>
			<point x="244" y="-184" type="curve"/>
			<point x="234" y="-211" type="line"/>
			<point x="252" y="-221"/>
			<point x="274" y="-229"/>
		</contour>
	</outline>
</glyph>
<glyph name="multiply" format="2">
	<unicode hex="00D7"/>
	<advance width="582"/>
	<outline>
		<contour>
			<point x="434" y="128" type="line"/>
			<point x="465" y="158" type="line"/>
			<point x="322" y="307" type="line"/>
			<point x="472" y="452" type="line"/>
			<point x="445" y="480" type="line"/>
			<point x="295" y="335" type="line"/>
			<point x="154" y="482" type="line"/>
			<point x="122" y="453" type="line"/>
			<point x="264" y="305" type="line"/>
			<point x="117" y="165" type="line"/>
			<point x="144" y="137" type="line"/>
			<point x="291" y="277" type="line"/>
		</contour>
	</outline>
</glyph>
<glyph name="Oslash" format="2">
	<unicode hex="00D8"/>
	<advance width="693"/>
	<outline>
		<contour>
			<point x="46" y="-14" type="line"/>
			<point x="99" y="-14" type="line"/>
			<point x="155" y="61" type="line"/>
			<point x="202" y="13"/>
			<point x="266" y="-14"/>
			<point x="344" y="-14" type="curve" smooth="yes"/>
			<point x="532" y="-14"/>
			<point x="644" y="144"/>
			<point x="644" y="378" type="curve" smooth="yes"/>
			<point x="644" y="478"/>
			<point x="619" y="561"/>
			<point x="575" y="619" type="curve"/>
			<point x="647" y="715" type="line"/>
			<point x="595" y="715" type="line"/>
			<point x="546" y="650" type="line"/>
			<point x="502" y="692"/>
			<point x="443" y="715"/>
			<point x="373" y="715" type="curve" smooth="yes"/>
			<point x="182" y="715"/>
			<point x="65" y="561"/>
			<point x="65" y="331" type="curve" smooth="yes"/>
			<point x="65" y="234"/>
			<point x="87" y="154"/>
			<point x="128" y="95" type="curve"/>
		</contour>
		<contour>
			<point x="353" y="31" type="curve" smooth="yes"/>
			<point x="282" y="31"/>
			<point x="226" y="56"/>
			<point x="186" y="102" type="curve"/>
			<point x="544" y="578" type="line"/>
			<point x="577" y="527"/>
			<point x="594" y="456"/>
			<point x="593" y="367" type="curve" smooth="yes"/>
			<point x="591" y="155"/>
			<point x="501" y="31"/>
		</contour>
		<contour>
			<point x="160" y="138" type="line"/>
			<point x="130" y="190"/>
			<point x="115" y="260"/>
			<point x="116" y="346" type="curve" smooth="yes"/>
			<point x="118" y="547"/>
			<point x="217" y="670"/>
			<point x="366" y="670" type="curve" smooth="yes"/>
			<point x="429" y="670"/>
			<point x="480" y="650"/>
			<point x="517" y="612" type="curve"/>
		</contour>
	</outline>
</glyph>
<glyph name="Thorn" format="2">
	<unicode hex="00DE"/>
	<advance width="560"/>
	<outline>
		<contour>
			<point x="50" y="0" type="line"/>
			<point x="316" y="0" type="line"/>
			<point x="319" y="32" type="line"/>
			<point x="191" y="44" type="line"/>
			<point x="195" y="155" type="line"/>
			<point x="292" y="155" type="line" smooth="yes"/>
			<point x="428" y="155"/>
			<point x="524" y="234"/>
			<point x="524" y="370" type="curve" smooth="yes"/>
			<point x="524" y="504"/>
			<point x="420" y="559"/>
			<point x="292" y="559" type="curve" smooth="yes"/>
			<point x="211" y="559" type="line"/>
			<point x="215" y="659" type="line"/>
			<point x="326" y="668" type="line"/>
			<point x="331" y="700" type="line"/>
			<point x="86" y="700" type="line"/>
			<point x="81" y="669" type="line"/>
			<point x="168" y="657" type="line"/>
			<point x="143" y="45" type="line"/>
			<point x="54" y="31" type="line"/>
		</contour>
		<contour>
			<point x="197" y="195" type="line"/>
			<point x="210" y="519" type="line"/>
			<point x="281" y="519" type="line" smooth="yes"/>
			<point x="400" y="519"/>
			<point x="473" y="481"/>
			<point x="473" y="362" type="curve" smooth="yes"/>
			<point x="473" y="241"/>
			<point x="389" y="195"/>
			<point x="285" y="195" type="curve" smooth="yes"/>
		</contour>
	</outline>
</glyph>
<glyph name="germandbls" format="2">
	<unicode hex="00DF"/>
	<advance width="592"/>
	<outline>
		<contour>
			<point x="377" y="23" type="curve" smooth="yes"/>
			<point x="319" y="23"/>
			<point x="296" y="39"/>
			<point x="298" y="76" type="curve" smooth="yes"/>
			<point x="300" y="108" type="line"/>
			<point x="290" y="113"/>
			<point x="279" y="117"/>
			<point x="263" y="117" type="curve" smooth="yes"/>
			<point x="242" y="117"/>
			<point x="225" y="103"/>
			<point x="225" y="78" type="curve" smooth="yes"/>
			<point x="225" y="32"/>
			<point x="278" y="-14"/>
			<point x="376" y="-14" type="curve" smooth="yes"/>
			<point x="485" y="-14"/>
			<point x="541" y="63"/>
			<point x="541" y="142" type="curve" smooth="yes"/>
			<point x="541" y="280"/>
			<point x="320" y="287"/>
			<point x="320" y="389" type="curve" smooth="yes"/>
			<point x="320" y="491"/>
			<point x="498" y="509"/>
			<point x="498" y="652" type="curve" smooth="yes"/>
			<point x="498" y="742"/>
			<point x="408" y="782"/>
			<point x="320" y="782" type="curve" smooth="yes"/>
			<point x="175" y="782"/>
			<point x="123" y="687"/>
			<point x="119" y="572" type="curve" smooth="yes"/>
			<point x="98" y="23" type="line" smooth="yes"/>
			<point x="96" y="-26"/>
			<point x="93" y="-58"/>
			<point x="90" y="-89" type="curve" smooth="yes"/>
			<point x="82" y="-149"/>
			<point x="63" y="-175"/>
			<point x="25" y="-158" type="curve" smooth="yes"/>
			<point x="-15" y="-140" type="line"/>
			<point x="-28" y="-154"/>
			<point x="-36" y="-166"/>
			<point x="-36" y="-185" type="curve" smooth="yes"/>
			<point x="-36" y="-211"/>
			<point x="-17" y="-229"/>
			<point x="15" y="-229" type="curve" smooth="yes"/>
			<point x="54" y="-229"/>
			<point x="85" y="-196"/>
			<point x="106" y="-157" type="curve" smooth="yes"/>
			<point x="142" y="-90"/>
			<point x="145" y="12"/>
			<point x="150" y="120" type="curve" smooth="yes"/>
			<point x="170" y="593" type="line" smooth="yes"/>
			<point x="174" y="677"/>
			<point x="218" y="740"/>
			<point x="319" y="740" type="curve" smooth="yes"/>
			<point x="390" y="740"/>
			<point x="448" y="712"/>
			<point x="448" y="648" type="curve" smooth="yes"/>
			<point x="448" y="524"/>
			<point x="273" y="515"/>
			<point x="273" y="381" type="curve" smooth="yes"/>
			<point x="273" y="250"/>
			<point x="495" y="250"/>
			<point x="495" y="137" type="curve" smooth="yes"/>
			<point x="495" y="80"/>
			<point x="459" y="23"/>
		</contour>
	</outline>
</glyph>
<glyph name="oslash" format="2">
	<unicode hex="00F8"/>
	<advance width="519"/>
	<outline>
		<contour>
			<point x="19" y="-14" type="line"/>
			<point x="71" y="-14" type="line"/>
			<point x="115" y="40" type="line"/>
			<point x="146" y="5"/>
			<point x="189" y="-14"/>
			<point x="241" y="-14" type="curve" smooth="yes"/>
			<point x="401" y="-14"/>
			<point x="464" y="122"/>
			<point x="464" y="274" type="curve" smooth="yes"/>
			<point x="464" y="335"/>
			<point x="451" y="386"/>
			<point x="429" y="426" type="curve"/>
			<point x="503" y="516" type="line"/>
			<point x="452" y="516" type="line"/>
			<point x="406" y="459" type="line"/>
			<point x="372" y="497"/>
			<point x="328" y="517"/>
			<point x="277" y="517" type="curve" smooth="yes"/>
			<point x="117" y="517"/>
			<point x="56" y="390"/>
			<point x="56" y="235" type="curve" smooth="yes"/>
			<point x="56" y="171"/>
			<point x="68" y="116"/>
			<point x="91" y="74" type="curve"/>
		</contour>
		<contour>
			<point x="247" y="25" type="curve" smooth="yes"/>
			<point x="202" y="25"/>
			<point x="168" y="43"/>
			<point x="144" y="76" type="curve"/>
			<point x="398" y="387" type="line"/>
			<point x="410" y="356"/>
			<point x="415" y="318"/>
			<point x="415" y="275" type="curve" smooth="yes"/>
			<point x="415" y="145"/>
			<point x="374" y="25"/>
		</contour>
		<contour>
			<point x="124" y="114" type="line"/>
			<point x="111" y="146"/>
			<point x="105" y="185"/>
			<point x="105" y="229" type="curve" smooth="yes"/>
			<point x="105" y="365"/>
			<point x="141" y="479"/>
			<point x="266" y="479" type="curve" smooth="yes"/>
			<point x="318" y="479"/>
			<point x="355" y="459"/>
			<point x="378" y="426" type="curve"/>
		</contour>
	</outline>
</glyph>
<glyph name="thorn" format="2">
	<unicode hex="00FE"/>
	<advance width="543"/>
	<outline>
		<contour>
			<point x="88" y="-227" type="line"/>
			<point x="209" y="-222" type="line"/>
			<point x="212" y="-188" type="line"/>
			<point x="124" y="-181" type="line"/>
			<point x="137" y="14" type="line"/>
			<point x="159" y="2"/>
			<point x="215" y="-14"/>
			<point x="260" y="-14" type="curve" smooth="yes"/>
			<point x="375" y="-14"/>
			<point x="489" y="81"/>
			<point x="489" y="305" type="curve" smooth="yes"/>
			<point x="489" y="426"/>
			<point x="452" y="517"/>
			<point x="344" y="517" type="curve" smooth="yes"/>
			<point x="266" y="517"/>
			<point x="210" y="464"/>
			<point x="174" y="322" type="curve" smooth="yes"/>
			<point x="136" y="172" type="line"/>
			<point x="131" y="173" type="line"/>
			<point x="152" y="409" type="line"/>
			<point x="168" y="756" type="line"/>
			<point x="152" y="767" type="line"/>
			<point x="35" y="767" type="line"/>
			<point x="32" y="734" type="line"/>
			<point x="117" y="721" type="line"/>
			<point x="94" y="60" type="line"/>
			<point x="75" y="-216" type="line"/>
		</contour>
		<contour>
			<point x="340" y="471" type="curve" smooth="yes"/>
			<point x="418" y="471"/>
			<point x="440" y="395"/>
			<point x="440" y="300" type="curve" smooth="yes"/>
			<point x="440" y="137"/>
			<point x="363" y="30"/>
			<point x="259" y="30" type="curve" smooth="yes"/>
			<point x="205" y="30"/>
			<point x="161" y="48"/>
			<point x="139" y="58" type="curve"/>
			<point x="171" y="181" type="line" smooth="yes"/>
			<point x="227" y="397"/>
			<point x="263" y="471"/>
		</contour>
	</outline>
</glyph>
<glyph name="Aogonek" format="2">
	<unicode hex="0104"/>
	<advance width="668"/>
	<outline>
		<contour>
			<point x="508" y="-220" type="curve" smooth="yes"/>
			<point x="545" y="-220"/>
			<point x="581" y="-203"/>
			<point x="611" y="-163" type="curve"/>
			<point x="590" y="-140" type="line"/>
			<point x="566" y="-163"/>
			<point x="548" y="-177"/>
			<point x="519" y="-177" type="curve" smooth="yes"/>
			<point x="492" y="-177"/>
			<point x="483" y="-160"/>
			<point x="483" y="-138" type="curve" smooth="yes"/>
			<point x="483" y="-92"/>
			<point x="517" y="-56"/>
			<point x="576" y="0" type="curve"/>
			<point x="656" y="0" type="line"/>
			<point x="660" y="32" type="line"/>
			<point x="576" y="44" type="line"/>
			<point x="382" y="701" type="line"/>
			<point x="336" y="699" type="line"/>
			<point x="100" y="44" type="line"/>
			<point x="21" y="32" type="line"/>
			<point x="16" y="0" type="line"/>
			<point x="233" y="0" type="line"/>
			<point x="237" y="32" type="line"/>
			<point x="145" y="44" type="line"/>
			<point x="215" y="239" type="line"/>
			<point x="469" y="239" type="line"/>
			<point x="524" y="44" type="line"/>
			<point x="439" y="32" type="line"/>
			<point x="434" y="0" type="line"/>
			<point x="539" y="0" type="line"/>
			<point x="501" y="-28"/>
			<point x="436" y="-80"/>
			<point x="436" y="-152" type="curve" smooth="yes"/>
			<point x="436" y="-196"/>
			<point x="465" y="-220"/>
		</contour>
		<contour>
			<point x="229" y="278" type="line"/>
			<point x="354" y="636" type="line"/>
			<point x="355" y="636" type="line"/>
			<point x="457" y="278" type="line"/>
		</contour>
	</outline>
</glyph>
<glyph name="Hbar" format="2">
	<unicode hex="0126"/>
	<advance width="717"/>
	<outline>
		<contour>
			<point x="50" y="0" type="line"/>
			<point x="279" y="0" type="line"/>
			<point x="283" y="33" type="line"/>
			<point x="187" y="46" type="line"/>
			<point x="198" y="341" type="line"/>
			<point x="543" y="341" type="line"/>
			<point x="532" y="46" type="line"/>
			<point x="448" y="33" type="line"/>
			<point x="444" y="0" type="line"/>
			<point x="673" y="0" type="line"/>
			<point x="677" y="33" type="line"/>
			<point x="581" y="46" type="line"/>
			<point x="600" y="503" type="line"/>
			<point x="703" y="503" type="line"/>
			<point x="707" y="543" type="line"/>
			<point x="601" y="543" type="line"/>
			<point x="606" y="655" type="line"/>
			<point x="691" y="668" type="line"/>
			<point x="694" y="700" type="line"/>
			<point x="474" y="700" type="line"/>
			<point x="470" y="668" type="line"/>
			<point x="557" y="655" type="line"/>
			<point x="552" y="543" type="line"/>
			<point x="206" y="543" type="line"/>
			<point x="211" y="655" type="line"/>
			<point x="297" y="668" type="line"/>
			<point x="300" y="700" type="line"/>
			<point x="79" y="700" type="line"/>
			<point x="75" y="668" type="line"/>
			<point x="162" y="655" type="line"/>
			<point x="158" y="543" type="line"/>
			<point x="53" y="543" type="line"/>
			<point x="48" y="503" type="line"/>
			<point x="156" y="503" type="line"/>
			<point x="138" y="46" type="line"/>
			<point x="54" y="32" type="line"/>
		</contour>
		<contour>
			<point x="199" y="380" type="line"/>
			<point x="204" y="503" type="line"/>
			<point x="550" y="503" type="line"/>
			<point x="544" y="380" type="line"/>
		</contour>
	</outline>
</glyph>
<glyph name="hbar" format="2">
	<unicode hex="0127"/>
	<advance width="567"/>
	<outline>
		<contour>
			<point x="447" y="-14" type="curve" smooth="yes"/>
			<point x="486" y="-14"/>
			<point x="528" y="10"/>
			<point x="550" y="30" type="curve"/>
			<point x="531" y="58" type="line"/>
			<point x="507" y="41"/>
			<point x="486" y="30"/>
			<point x="461" y="30" type="curve" smooth="yes"/>
			<point x="441" y="30"/>
			<point x="435" y="38"/>
			<point x="438" y="67" type="curve" smooth="yes"/>
			<point x="465" y="348" type="line" smooth="yes"/>
			<point x="474" y="447"/>
			<point x="464" y="517"/>
			<point x="377" y="517" type="curve" smooth="yes"/>
			<point x="299" y="517"/>
			<point x="260" y="462"/>
			<point x="227" y="368" type="curve" smooth="yes"/>
			<point x="137" y="113" type="line"/>
			<point x="131" y="114" type="line"/>
			<point x="154" y="409" type="line"/>
			<point x="161" y="588" type="line"/>
			<point x="328" y="588" type="line"/>
			<point x="331" y="627" type="line"/>
			<point x="163" y="627" type="line"/>
			<point x="168" y="756" type="line"/>
			<point x="152" y="767" type="line"/>
			<point x="35" y="767" type="line"/>
			<point x="32" y="734" type="line"/>
			<point x="117" y="721" type="line"/>
			<point x="113" y="627" type="line"/>
			<point x="23" y="627" type="line"/>
			<point x="19" y="588" type="line"/>
			<point x="112" y="588" type="line"/>
			<point x="88" y="0" type="line"/>
			<point x="128" y="0" type="line"/>
			<point x="258" y="336" type="line" smooth="yes"/>
			<point x="302" y="450"/>
			<point x="323" y="474"/>
			<point x="370" y="474" type="curve" smooth="yes"/>
			<point x="410" y="474"/>
			<point x="425" y="448"/>
			<point x="417" y="359" type="curve" smooth="yes"/>
			<point x="389" y="61" type="line" smooth="yes"/>
			<point x="385" y="19"/>
			<point x="400" y="-14"/>
		</contour>
	</outline>
</glyph>
<glyph name="Iogonek" format="2">
	<unicode hex="012E"/>
	<advance width="323"/>
	<outline>
		<contour>
			<point x="50" y="0" type="line"/>
			<point x="173" y="0" type="line"/>
			<point x="135" y="-28"/>
			<point x="70" y="-80"/>
			<point x="70" y="-152" type="curve" smooth="yes"/>
			<point x="70" y="-196"/>
			<point x="99" y="-220"/>
			<point x="142" y="-220" type="curve" smooth="yes"/>
			<point x="179" y="-220"/>
			<point x="215" y="-203"/>
			<point x="245" y="-163" type="curve"/>
			<point x="224" y="-140" type="line"/>
			<point x="200" y="-163"/>
			<point x="182" y="-177"/>
			<point x="153" y="-177" type="curve" smooth="yes"/>
			<point x="126" y="-177"/>
			<point x="117" y="-160"/>
			<point x="117" y="-138" type="curve" smooth="yes"/>
			<point x="117" y="-92"/>
			<point x="151" y="-56"/>
			<point x="210" y="0" type="curve"/>
			<point x="280" y="0" type="line"/>
			<point x="283" y="33" type="line"/>
			<point x="186" y="45" type="line"/>
			<point x="210" y="655" type="line"/>
			<point x="297" y="668" type="line"/>
			<point x="300" y="700" type="line"/>
			<point x="79" y="700" type="line"/>
			<point x="75" y="668" type="line"/>
			<point x="163" y="655" type="line"/>
			<point x="139" y="46" type="line"/>
			<point x="54" y="32" type="line"/>
		</contour>
	</outline>
</glyph>
<glyph name="Lslash" format="2">
	<unicode hex="0141"/>
	<advance width="537"/>
	<outline>
		<contour>
			<point x="50" y="0" type="line"/>
			<point x="488" y="0" type="line"/>
			<point x="510" y="157" type="line"/>
			<point x="474" y="157" type="line"/>
			<point x="462" y="114" type="line" smooth="yes"/>
			<point x="441" y="39"/>
			<point x="415" y="39"/>
			<point x="363" y="39" type="curve" smooth="yes"/>
			<point x="186" y="39" type="line"/>
			<point x="198" y="335" type="line"/>
			<point x="381" y="450" type="line"/>
			<point x="386" y="493" type="line"/>
			<point x="199" y="376" type="line"/>
			<point x="210" y="655" type="line"/>
			<point x="317" y="668" type="line"/>
			<point x="321" y="700" type="line"/>
			<point x="79" y="700" type="line"/>
			<point x="75" y="668" type="line"/>
			<point x="163" y="655" type="line"/>
			<point x="151" y="351" type="line"/>
			<point x="34" y="276" type="line"/>
			<point x="29" y="234" type="line"/>
			<point x="149" y="309" type="line"/>
			<point x="139" y="46" type="line"/>
			<point x="54" y="32" type="line"/>
		</contour>
	</outline>
</glyph>
<glyph name="eng" format="2">
	<unicode hex="014B"/>
	<advance width="581"/>
	<outline>
		<contour>
			<point x="313" y="-229" type="curve" smooth="yes"/>
			<point x="346" y="-229"/>
			<point x="370" y="-213"/>
			<point x="394" y="-177" type="curve" smooth="yes"/>
			<point x="429" y="-126"/>
			<point x="446" y="-13"/>
			<point x="458" y="122" type="curve" smooth="yes"/>
			<point x="480" y="364" type="line" smooth="yes"/>
			<point x="489" y="458"/>
			<point x="472" y="517"/>
			<point x="388" y="517" type="curve" smooth="yes"/>
			<point x="316" y="517"/>
			<point x="278" y="474"/>
			<point x="238" y="360" type="curve" smooth="yes"/>
			<point x="151" y="113" type="line"/>
			<point x="145" y="114" type="line"/>
			<point x="168" y="415" type="line" smooth="yes"/>
			<point x="173" y="483"/>
			<point x="163" y="517"/>
			<point x="112" y="517" type="curve" smooth="yes"/>
			<point x="84" y="517"/>
			<point x="33" y="500"/>
			<point x="12" y="488" type="curve"/>
			<point x="24" y="455" type="line"/>
			<point x="55" y="467"/>
			<point x="77" y="474"/>
			<point x="92" y="474" type="curve" smooth="yes"/>
			<point x="115" y="474"/>
			<point x="120" y="458"/>
			<point x="119" y="431" type="curve" smooth="yes"/>
			<point x="102" y="0" type="line"/>
			<point x="142" y="0" type="line"/>
			<point x="272" y="336" type="line" smooth="yes"/>
			<point x="318" y="454"/>
			<point x="334" y="474"/>
			<point x="383" y="474" type="curve" smooth="yes"/>
			<point x="426" y="474"/>
			<point x="439" y="447"/>
			<point x="432" y="369" type="curve" smooth="yes"/>
			<point x="390" y="-86" type="line" smooth="yes"/>
			<point x="383" y="-167"/>
			<point x="351" y="-181"/>
			<point x="316" y="-160" type="curve" smooth="yes"/>
			<point x="286" y="-142" type="line"/>
			<point x="274" y="-155"/>
			<point x="265" y="-169"/>
			<point x="265" y="-187" type="curve" smooth="yes"/>
			<point x="265" y="-210"/>
			<point x="281" y="-229"/>
		</contour>
	</outline>
</glyph>
<glyph name="OE" format="2">
	<unicode hex="0152"/>
	<advance width="1007"/>
	<outline>
		<contour>
			<point x="65" y="331" type="curve" smooth="yes"/>
			<point x="65" y="120"/>
			<point x="170" y="-14"/>
			<point x="344" y="-14" type="curve" smooth="yes"/>
			<point x="377" y="-14"/>
			<point x="407" y="-9"/>
			<point x="435" y="0" type="curve"/>
			<point x="945" y="0" type="line"/>
			<point x="967" y="157" type="line"/>
			<point x="931" y="157" type="line"/>
			<point x="919" y="114" type="line" smooth="yes"/>
			<point x="898" y="39"/>
			<point x="872" y="39"/>
			<point x="820" y="39" type="curve" smooth="yes"/>
			<point x="510" y="39" type="line"/>
			<point x="589" y="99"/>
			<point x="636" y="205"/>
			<point x="643" y="340" type="curve"/>
			<point x="903" y="340" type="line"/>
			<point x="907" y="380" type="line"/>
			<point x="644" y="380" type="line"/>
			<point x="644" y="506"/>
			<point x="604" y="604"/>
			<point x="534" y="661" type="curve"/>
			<point x="822" y="661" type="line" smooth="yes"/>
			<point x="878" y="661"/>
			<point x="901" y="653"/>
			<point x="917" y="591" type="curve" smooth="yes"/>
			<point x="930" y="542" type="line"/>
			<point x="965" y="547" type="line"/>
			<point x="951" y="700" type="line"/>
			<point x="465" y="700" type="line"/>
			<point x="437" y="710"/>
			<point x="406" y="715"/>
			<point x="373" y="715" type="curve" smooth="yes"/>
			<point x="182" y="715"/>
			<point x="65" y="561"/>
		</contour>
		<contour>
			<point x="116" y="346" type="curve" smooth="yes"/>
			<point x="118" y="547"/>
			<point x="217" y="670"/>
			<point x="366" y="670" type="curve" smooth="yes"/>
			<point x="514" y="670"/>
			<point x="595" y="559"/>
			<point x="593" y="367" type="curve" smooth="yes"/>
			<point x="591" y="155"/>
			<point x="501" y="31"/>
			<point x="353" y="31" type="curve" smooth="yes"/>
			<point x="200" y="31"/>
			<point x="114" y="146"/>
		</contour>
	</outline>
</glyph>
<glyph name="oe" format="2">
	<unicode hex="0153"/>
	<advance width="807"/>
	<outline>
		<contour>
			<point x="630" y="517" type="curve" smooth="yes"/>
			<point x="539" y="517"/>
			<point x="474" y="455"/>
			<point x="442" y="365" type="curve"/>
			<point x="420" y="463"/>
			<point x="360" y="517"/>
			<point x="277" y="517" type="curve" smooth="yes"/>
			<point x="117" y="517"/>
			<point x="56" y="390"/>
			<point x="56" y="235" type="curve" smooth="yes"/>
			<point x="56" y="84"/>
			<point x="123" y="-14"/>
			<point x="241" y="-14" type="curve" smooth="yes"/>
			<point x="345" y="-14"/>
			<point x="402" y="45"/>
			<point x="430" y="126" type="curve"/>
			<point x="449" y="45"/>
			<point x="497" y="-14"/>
			<point x="589" y="-14" type="curve" smooth="yes"/>
			<point x="665" y="-14"/>
			<point x="719" y="24"/>
			<point x="763" y="69" type="curve"/>
			<point x="738" y="96" type="line"/>
			<point x="684" y="45"/>
			<point x="645" y="29"/>
			<point x="596" y="29" type="curve" smooth="yes"/>
			<point x="499" y="29"/>
			<point x="462" y="117"/>
			<point x="458" y="202" type="curve"/>
			<point x="593" y="234" type="line" smooth="yes"/>
			<point x="665" y="251"/>
			<point x="756" y="284"/>
			<point x="756" y="393" type="curve" smooth="yes"/>
			<point x="756" y="462"/>
			<point x="717" y="517"/>
		</contour>
		<contour>
			<point x="247" y="25" type="curve" smooth="yes"/>
			<point x="153" y="25"/>
			<point x="105" y="106"/>
			<point x="105" y="229" type="curve" smooth="yes"/>
			<point x="105" y="365"/>
			<point x="141" y="479"/>
			<point x="266" y="479" type="curve" smooth="yes"/>
			<point x="375" y="479"/>
			<point x="415" y="394"/>
			<point x="415" y="275" type="curve" smooth="yes"/>
			<point x="415" y="145"/>
			<point x="374" y="25"/>
		</contour>
		<contour>
			<point x="707" y="389" type="curve" smooth="yes"/>
			<point x="707" y="328"/>
			<point x="665" y="293"/>
			<point x="598" y="277" type="curve" smooth="yes"/>
			<point x="457" y="243" type="line"/>
			<point x="462" y="378"/>
			<point x="528" y="478"/>
			<point x="629" y="478" type="curve" smooth="yes"/>
			<point x="693" y="478"/>
			<point x="707" y="433"/>
		</contour>
	</outline>
</glyph>
<glyph name="Scedilla" format="2">
	<unicode hex="015E"/>
	<advance width="499"/>
	<outline>
		<contour>
			<point x="224" y="-233" type="curve" smooth="yes"/>
			<point x="286" y="-233"/>
			<point x="331" y="-193"/>
			<point x="331" y="-141" type="curve" smooth="yes"/>
			<point x="331" y="-85"/>
			<point x="285" y="-64"/>
			<point x="234" y="-68" type="curve"/>
			<point x="253" y="-13" type="line"/>
			<point x="396" y="-6"/>
			<point x="462" y="82"/>
			<point x="462" y="192" type="curve" smooth="yes"/>
			<point x="462" y="305"/>
			<point x="371" y="346"/>
			<point x="276" y="389" type="curve" smooth="yes"/>
			<point x="156" y="443"/>
			<point x="133" y="483"/>
			<point x="133" y="543" type="curve" smooth="yes"/>
			<point x="133" y="599"/>
			<point x="170" y="673"/>
			<point x="296" y="673" type="curve" smooth="yes"/>
			<point x="380" y="673"/>
			<point x="405" y="639"/>
			<point x="387" y="605" type="curve" smooth="yes"/>
			<point x="374" y="580" type="line"/>
			<point x="385" y="567"/>
			<point x="400" y="557"/>
			<point x="423" y="557" type="curve" smooth="yes"/>
			<point x="450" y="557"/>
			<point x="466" y="574"/>
			<point x="466" y="606" type="curve" smooth="yes"/>
			<point x="466" y="662"/>
			<point x="396" y="715"/>
			<point x="296" y="715" type="curve" smooth="yes"/>
			<point x="144" y="715"/>
			<point x="84" y="622"/>
			<point x="84" y="535" type="curve" smooth="yes"/>
			<point x="84" y="461"/>
			<point x="115" y="410"/>
			<point x="252" y="348" type="curve" smooth="yes"/>
			<point x="354" y="302"/>
			<point x="413" y="263"/>
			<point x="413" y="184" type="curve" smooth="yes"/>
			<point x="413" y="82"/>
			<point x="340" y="26"/>
			<point x="246" y="26" type="curve" smooth="yes"/>
			<point x="145" y="26"/>
			<point x="112" y="66"/>
			<point x="135" y="113" type="curve" smooth="yes"/>
			<point x="149" y="142" type="line"/>
			<point x="133" y="155"/>
			<point x="119" y="161"/>
			<point x="102" y="161" type="curve" smooth="yes"/>
			<point x="78" y="161"/>
			<point x="55" y="142"/>
			<point x="55" y="107" type="curve" smooth="yes"/>
			<point x="55" y="47"/>
			<point x="113" y="-10"/>
			<point x="219" y="-14" type="curve"/>
			<point x="195" y="-87" type="line"/>
			<point x="205" y="-99" type="line"/>
			<point x="251" y="-93"/>
			<point x="282" y="-104"/>
			<point x="282" y="-142" type="curve" smooth="yes"/>
			<point x="282" y="-181"/>
			<point x="251" y="-200"/>
			<point x="217" y="-200" type="curve" smooth="yes"/>
			<point x="193" y="-200"/>
			<point x="177" y="-195"/>
			<point x="162" y="-188" type="curve"/>
			<point x="152" y="-215" type="line"/>
			<point x="170" y="-225"/>
			<point x="192" y="-233"/>
		</contour>
	</outline>
</glyph>
<glyph name="Tcedilla" format="2">
	<unicode hex="0162"/>
	<advance width="604"/>
	<outline>
		<contour>
			<point x="271" y="-229" type="curve" smooth="yes"/>
			<point x="333" y="-229"/>
			<point x="378" y="-189"/>
			<point x="378" y="-137" type="curve" smooth="yes"/>
			<point x="378" y="-81"/>
			<point x="332" y="-60"/>
			<point x="281" y="-64" type="curve"/>
			<point x="303" y="0" type="line"/>
			<point x="413" y="0" type="line"/>
			<point x="416" y="33" type="line"/>
			<point x="319" y="45" type="line"/>
			<point x="343" y="661" type="line"/>
			<point x="466" y="661" type="line" smooth="yes"/>
			<point x="524" y="661"/>
			<point x="541" y="651"/>
			<point x="555" y="592" type="curve" smooth="yes"/>
			<point x="567" y="543" type="line"/>
			<point x="602" y="547" type="line"/>
			<point x="588" y="700" type="line"/>
			<point x="56" y="700" type="line"/>
			<point x="35" y="547" type="line"/>
			<point x="70" y="543" type="line"/>
			<point x="85" y="592" type="line" smooth="yes"/>
			<point x="105" y="658"/>
			<point x="120" y="661"/>
			<point x="179" y="661" type="curve" smooth="yes"/>
			<point x="296" y="661" type="line"/>
			<point x="272" y="46" type="line"/>
			<point x="187" y="32" type="line"/>
			<point x="183" y="0" type="line"/>
			<point x="270" y="0" type="line"/>
			<point x="242" y="-83" type="line"/>
			<point x="252" y="-95" type="line"/>
			<point x="298" y="-89"/>
			<point x="329" y="-100"/>
			<point x="329" y="-138" type="curve" smooth="yes"/>
			<point x="329" y="-177"/>
			<point x="298" y="-196"/>
			<point x="264" y="-196" type="curve" smooth="yes"/>
			<point x="240" y="-196"/>
			<point x="224" y="-191"/>
			<point x="209" y="-184" type="curve"/>
			<point x="199" y="-211" type="line"/>
			<point x="217" y="-221"/>
			<point x="239" y="-229"/>
		</contour>
	</outline>
</glyph>
<glyph name="Schwa" format="2">
	<unicode hex="018F"/>
	<advance width="640"/>
	<outline>
		<contour>
			<point x="276" y="-14" type="curve" smooth="yes"/>
			<point x="459" y="-14"/>
			<point x="591" y="114"/>
			<point x="591" y="381" type="curve" smooth="yes"/>
			<point x="591" y="579"/>
			<point x="505" y="714"/>
			<point x="339" y="714" type="curve" smooth="yes"/>
			<point x="237" y="714"/>
			<point x="143" y="665"/>
			<point x="73" y="567" type="curve"/>
			<point x="101" y="541" type="line"/>
			<point x="164" y="614"/>
			<point x="238" y="670"/>
			<point x="335" y="670" type="curve" smooth="yes"/>
			<point x="466" y="670"/>
			<point x="543" y="558"/>
			<point x="540" y="352" type="curve"/>
			<point x="84" y="352" type="line"/>
			<point x="69" y="305"/>
			<point x="62" y="266"/>
			<point x="62" y="222" type="curve" smooth="yes"/>
			<point x="62" y="71"/>
			<point x="138" y="-14"/>
		</contour>
		<contour>
			<point x="289" y="31" type="curve" smooth="yes"/>
			<point x="171" y="31"/>
			<point x="113" y="93"/>
			<point x="113" y="209" type="curve" smooth="yes"/>
			<point x="113" y="237"/>
			<point x="116" y="274"/>
			<point x="122" y="306" type="curve"/>
			<point x="536" y="306" type="line"/>
			<point x="514" y="115"/>
			<point x="407" y="31"/>
		</contour>
	</outline>
</glyph>
<glyph name="ohorn" format="2">
	<unicode hex="01A1"/>
	<advance width="559"/>
	<outline>
		<contour>
			<point x="241" y="-14" type="curve" smooth="yes"/>
			<point x="401" y="-14"/>
			<point x="464" y="122"/>
			<point x="464" y="274" type="curve" smooth="yes"/>
			<point x="464" y="321"/>
			<point x="457" y="362"/>
			<point x="443" y="396" type="curve"/>
			<point x="532" y="438"/>
			<point x="571" y="517"/>
			<point x="571" y="591" type="curve" smooth="yes"/>
			<point x="571" y="626"/>
			<point x="550" y="656"/>
			<point x="516" y="656" type="curve" smooth="yes"/>
			<point x="480" y="656"/>
			<point x="461" y="631"/>
			<point x="461" y="604" type="curve" smooth="yes"/>
			<point x="461" y="592"/>
			<point x="464" y="581"/>
			<point x="470" y="573" type="curve"/>
			<point x="499" y="565" type="line" smooth="yes"/>
			<point x="512" y="561"/>
			<point x="516" y="558"/>
			<point x="516" y="545" type="curve" smooth="yes"/>
			<point x="516" y="492"/>
			<point x="480" y="452"/>
			<point x="429" y="425" type="curve"/>
			<point x="396" y="485"/>
			<point x="341" y="517"/>
			<point x="277" y="517" type="curve" smooth="yes"/>
			<point x="117" y="517"/>
			<point x="56" y="390"/>
			<point x="56" y="235" type="curve" smooth="yes"/>
			<point x="56" y="84"/>
			<point x="123" y="-14"/>
		</contour>
		<contour>
			<point x="247" y="25" type="curve" smooth="yes"/>
			<point x="153" y="25"/>
			<point x="105" y="106"/>
			<point x="105" y="229" type="curve" smooth="yes"/>
			<point x="105" y="365"/>
			<point x="141" y="479"/>
			<point x="266" y="479" type="curve" smooth="yes"/>
			<point x="375" y="479"/>
			<point x="415" y="394"/>
			<point x="415" y="275" type="curve" smooth="yes"/>
			<point x="415" y="145"/>
			<point x="374" y="25"/>
		</contour>
	</outline>
</glyph>
<glyph name="Uhorn" format="2">
	<unicode hex="01AF"/>
	<advance width="750"/>
	<outline>
		<contour>
			<point x="288" y="-14" type="curve" smooth="yes"/>
			<point x="429" y="-14"/>
			<point x="501" y="126"/>
			<point x="554" y="365" type="curve"/>
			<point x="558" y="365" type="line"/>
			<point x="526" y="12" type="line"/>
			<point x="533" y="0" type="line"/>
			<point x="656" y="0" type="line"/>
			<point x="663" y="40" type="line"/>
			<point x="574" y="53" type="line"/>
			<point x="596" y="480" type="line"/>
			<point x="693" y="511"/>
			<point x="765" y="610"/>
			<point x="765" y="693" type="curve" smooth="yes"/>
			<point x="765" y="728"/>
			<point x="742" y="759"/>
			<point x="707" y="759" type="curve" smooth="yes"/>
			<point x="667" y="759"/>
			<point x="651" y="729"/>
			<point x="651" y="703" type="curve" smooth="yes"/>
			<point x="651" y="693"/>
			<point x="653" y="686"/>
			<point x="660" y="678" type="curve"/>
			<point x="689" y="673" type="line" smooth="yes"/>
			<point x="702" y="671"/>
			<point x="709" y="664"/>
			<point x="709" y="650" type="curve" smooth="yes"/>
			<point x="709" y="590"/>
			<point x="631" y="532"/>
			<point x="598" y="524" type="curve"/>
			<point x="607" y="700" type="line"/>
			<point x="488" y="700" type="line"/>
			<point x="482" y="662" type="line"/>
			<point x="569" y="645" type="line"/>
			<point x="560" y="570" type="line" smooth="yes"/>
			<point x="543" y="428"/>
			<point x="502" y="256"/>
			<point x="452" y="152" type="curve" smooth="yes"/>
			<point x="405" y="55"/>
			<point x="352" y="34"/>
			<point x="289" y="34" type="curve" smooth="yes"/>
			<point x="212" y="34"/>
			<point x="163" y="72"/>
			<point x="171" y="230" type="curve" smooth="yes"/>
			<point x="192" y="645" type="line"/>
			<point x="280" y="662" type="line"/>
			<point x="286" y="700" type="line"/>
			<point x="71" y="700" type="line"/>
			<point x="65" y="662" type="line"/>
			<point x="144" y="647" type="line"/>
			<point x="123" y="214" type="line" smooth="yes"/>
			<point x="117" y="96"/>
			<point x="156" y="-14"/>
		</contour>
	</outline>
	<anchor name="bottom" x="338" y="-30"/>
	<anchor name="top" x="382" y="730"/>
</glyph>
<glyph name="uhorn" format="2">
	<unicode hex="01B0"/>
	<advance width="618"/>
	<outline>
		<contour>
			<point x="187" y="-14" type="curve" smooth="yes"/>
			<point x="259" y="-14"/>
			<point x="297" y="29"/>
			<point x="337" y="143" type="curve" smooth="yes"/>
			<point x="424" y="390" type="line"/>
			<point x="430" y="389" type="line"/>
			<point x="407" y="88" type="line" smooth="yes"/>
			<point x="402" y="20"/>
			<point x="412" y="-14"/>
			<point x="463" y="-14" type="curve" smooth="yes"/>
			<point x="491" y="-14"/>
			<point x="542" y="3"/>
			<point x="563" y="15" type="curve"/>
			<point x="551" y="48" type="line"/>
			<point x="520" y="36"/>
			<point x="498" y="29"/>
			<point x="483" y="29" type="curve" smooth="yes"/>
			<point x="460" y="29"/>
			<point x="455" y="45"/>
			<point x="456" y="72" type="curve" smooth="yes"/>
			<point x="468" y="382" type="line"/>
			<point x="581" y="419"/>
			<point x="630" y="508"/>
			<point x="630" y="591" type="curve" smooth="yes"/>
			<point x="630" y="626"/>
			<point x="609" y="656"/>
			<point x="575" y="656" type="curve" smooth="yes"/>
			<point x="539" y="656"/>
			<point x="520" y="631"/>
			<point x="520" y="604" type="curve" smooth="yes"/>
			<point x="520" y="592"/>
			<point x="523" y="581"/>
			<point x="529" y="573" type="curve"/>
			<point x="558" y="565" type="line" smooth="yes"/>
			<point x="571" y="561"/>
			<point x="575" y="558"/>
			<point x="575" y="545" type="curve" smooth="yes"/>
			<point x="575" y="486"/>
			<point x="530" y="443"/>
			<point x="470" y="416" type="curve"/>
			<point x="473" y="503" type="line"/>
			<point x="433" y="503" type="line"/>
			<point x="303" y="167" type="line" smooth="yes"/>
			<point x="257" y="49"/>
			<point x="240" y="29"/>
			<point x="192" y="29" type="curve" smooth="yes"/>
			<point x="150" y="29"/>
			<point x="136" y="56"/>
			<point x="143" y="134" type="curve" smooth="yes"/>
			<point x="172" y="442" type="line" smooth="yes"/>
			<point x="177" y="494"/>
			<point x="154" y="517"/>
			<point x="115" y="517" type="curve" smooth="yes"/>
			<point x="77" y="517"/>
			<point x="34" y="494"/>
			<point x="11" y="473" type="curve"/>
			<point x="30" y="445" type="line"/>
			<point x="58" y="465"/>
			<point x="78" y="473"/>
			<point x="98" y="473" type="curve" smooth="yes"/>
			<point x="124" y="473"/>
			<point x="125" y="461"/>
			<point x="123" y="436" type="curve" smooth="yes"/>
			<point x="95" y="139" type="line" smooth="yes"/>
			<point x="86" y="45"/>
			<point x="103" y="-14"/>
		</contour>
	</outline>
</glyph>
<glyph name="Oogonek" format="2">
	<unicode hex="01EA"/>
	<advance width="693"/>
	<outline>
		<contour>
			<point x="380" y="-220" type="curve" smooth="yes"/>
			<point x="417" y="-220"/>
			<point x="453" y="-203"/>
			<point x="483" y="-163" type="curve"/>
			<point x="462" y="-140" type="line"/>
			<point x="438" y="-163"/>
			<point x="420" y="-177"/>
			<point x="391" y="-177" type="curve" smooth="yes"/>
			<point x="364" y="-177"/>
			<point x="355" y="-160"/>
			<point x="355" y="-138" type="curve" smooth="yes"/>
			<point x="355" y="-90"/>
			<point x="392" y="-53"/>
			<point x="456" y="8" type="curve"/>
			<point x="575" y="58"/>
			<point x="644" y="195"/>
			<point x="644" y="378" type="curve" smooth="yes"/>
			<point x="644" y="583"/>
			<point x="541" y="715"/>
			<point x="373" y="715" type="curve" smooth="yes"/>
			<point x="182" y="715"/>
			<point x="65" y="561"/>
			<point x="65" y="331" type="curve" smooth="yes"/>
			<point x="65" y="120"/>
			<point x="170" y="-14"/>
			<point x="344" y="-14" type="curve" smooth="yes"/>
			<point x="363" y="-14"/>
			<point x="381" y="-12"/>
			<point x="398" y="-9" type="curve"/>
			<point x="360" y="-39"/>
			<point x="308" y="-88"/>
			<point x="308" y="-152" type="curve" smooth="yes"/>
			<point x="308" y="-196"/>
			<point x="337" y="-220"/>
		</contour>
		<contour>
			<point x="353" y="31" type="curve" smooth="yes"/>
			<point x="200" y="31"/>
			<point x="114" y="146"/>
			<point x="116" y="346" type="curve" smooth="yes"/>
			<point x="118" y="547"/>
			<point x="217" y="670"/>
			<point x="366" y="670" type="curve" smooth="yes"/>
			<point x="514" y="670"/>
			<point x="595" y="559"/>
			<point x="593" y="367" type="curve" smooth="yes"/>
			<point x="591" y="155"/>
			<point x="501" y="31"/>
		</contour>
	</outline>
</glyph>
<glyph name="Aringacute" format="2">
	<unicode hex="01FA"/>
	<advance width="668"/>
	<outline>
		<contour>
			<point x="16" y="0" type="line"/>
			<point x="233" y="0" type="line"/>
			<point x="237" y="32" type="line"/>
			<point x="145" y="44" type="line"/>
			<point x="215" y="239" type="line"/>
			<point x="469" y="239" type="line"/>
			<point x="524" y="44" type="line"/>
			<point x="439" y="32" type="line"/>
			<point x="434" y="0" type="line"/>
			<point x="656" y="0" type="line"/>
			<point x="660" y="32" type="line"/>
			<point x="576" y="44" type="line"/>
			<point x="391" y="670" type="line"/>
			<point x="432" y="682"/>
			<point x="457" y="716"/>
			<point x="457" y="766" type="curve" smooth="yes"/>
			<point x="457" y="822"/>
			<point x="426" y="854"/>
			<point x="367" y="854" type="curve" smooth="yes"/>
			<point x="306" y="854"/>
			<point x="268" y="814"/>
			<point x="268" y="757" type="curve" smooth="yes"/>
			<point x="268" y="712"/>
			<point x="284" y="680"/>
			<point x="325" y="670" type="curve"/>
			<point x="100" y="44" type="line"/>
			<point x="21" y="32" type="line"/>
		</contour>
		<contour>
			<point x="229" y="278" type="line"/>
			<point x="354" y="636" type="line"/>
			<point x="355" y="636" type="line"/>
			<point x="457" y="278" type="line"/>
		</contour>
		<contour>
			<point x="361" y="701" type="curve" smooth="yes"/>
			<point x="319" y="701"/>
			<point x="310" y="724"/>
			<point x="310" y="758" type="curve" smooth="yes"/>
			<point x="310" y="794"/>
			<point x="329" y="820"/>
			<point x="364" y="820" type="curve" smooth="yes"/>
			<point x="401" y="820"/>
			<point x="414" y="800"/>
			<point x="414" y="762" type="curve" smooth="yes"/>
			<point x="414" y="726"/>
			<point x="398" y="701"/>
		</contour>
		<contour>
			<point x="297" y="892" type="line"/>
			<point x="460" y="984" type="line"/>
			<point x="463" y="994"/>
			<point x="464" y="1005"/>
			<point x="464" y="1012" type="curve" smooth="yes"/>
			<point x="464" y="1027"/>
			<point x="457" y="1041"/>
			<point x="438" y="1041" type="curve" smooth="yes"/>
			<point x="427" y="1041"/>
			<point x="417" y="1035"/>
			<point x="405" y="1024" type="curve" smooth="yes"/>
			<point x="282" y="913" type="line"/>
		</contour>
	</outline>
</glyph>
<glyph name="caron" format="2">
	<unicode hex="02C7"/>
	<advance width="500"/>
	<outline>
		<contour>
			<point x="127" y="746" type="line"/>
			<point x="245" y="597" type="line"/>
			<point x="253" y="594"/>
			<point x="261" y="591"/>
			<point x="270" y="591" type="curve" smooth="yes"/>
			<point x="286" y="591"/>
			<point x="296" y="600"/>
			<point x="305" y="612" type="curve" smooth="yes"/>
			<point x="411" y="746" type="line"/>
			<point x="394" y="764" type="line"/>
			<point x="271" y="653" type="line"/>
			<point x="144" y="764" type="line"/>
		</contour>
	</outline>
	<anchor name="_top" x="268" y="550"/>
</glyph>
<glyph name="verticallinemod" format="2">
	<unicode hex="02C8"/>
	<advance width="500"/>
	<outline>
		<contour>
			<point x="254" y="770" type="line"/>
			<point x="248" y="584" type="line"/>
			<point x="292" y="584" type="line"/>
			<point x="298" y="770" type="line"/>
		</contour>
	</outline>
	<anchor name="_top" x="268" y="550"/>
</glyph>
<glyph name="commaturnedabovecomb" format="2">
	<unicode hex="0312"/>
	<outline>
		<contour>
			<point x="40" y="784" type="line"/>
			<point x="-13" y="738"/>
			<point x="-36" y="682"/>
			<point x="-36" y="641" type="curve" smooth="yes"/>
			<point x="-36" y="601"/>
			<point x="-18" y="581"/>
			<point x="12" y="581" type="curve" smooth="yes"/>
			<point x="51" y="581"/>
			<point x="67" y="617"/>
			<point x="51" y="653" type="curve"/>
			<point x="26" y="662" type="line" smooth="yes"/>
			<point x="15" y="666"/>
			<point x="12" y="671"/>
			<point x="12" y="680" type="curve" smooth="yes"/>
			<point x="12" y="698"/>
			<point x="33" y="738"/>
			<point x="58" y="763" type="curve"/>
		</contour>
	</outline>
	<anchor name="_top" x="10" y="550"/>
</glyph>
<glyph name="horncomb" format="2">
	<unicode hex="031B"/>
	<outline>
		<contour>
			<point x="-101" y="415" type="curve"/>
			<point x="-102" y="381" type="line"/>
			<point x="12" y="418"/>
			<point x="62" y="507"/>
			<point x="62" y="591" type="curve" smooth="yes"/>
			<point x="62" y="626"/>
			<point x="41" y="656"/>
			<point x="7" y="656" type="curve" smooth="yes"/>
			<point x="-29" y="656"/>
			<point x="-48" y="631"/>
			<point x="-48" y="604" type="curve" smooth="yes"/>
			<point x="-48" y="592"/>
			<point x="-45" y="581"/>
			<point x="-39" y="573" type="curve"/>
			<point x="-10" y="565" type="line" smooth="yes"/>
			<point x="3" y="561"/>
			<point x="7" y="558"/>
			<point x="7" y="545" type="curve" smooth="yes"/>
			<point x="7" y="485"/>
			<point x="-39" y="442"/>
		</contour>
	</outline>
</glyph>
<glyph name="numeral-greek" format="2">
	<unicode hex="0374"/>
	<advance width="348"/>
	<outline>
		<contour>
			<point x="98" y="531" type="line"/>
			<point x="244" y="711" type="line"/>
			<point x="245" y="724" type="line"/>
			<point x="233" y="746"/>
			<point x="222" y="761"/>
			<point x="200" y="761" type="curve" smooth="yes"/>
			<point x="176" y="761"/>
			<point x="167" y="746"/>
			<point x="156" y="718" type="curve" smooth="yes"/>
			<point x="82" y="541" type="line"/>
		</contour>
	</outline>
</glyph>
<glyph name="tonos" format="2">
	<unicode hex="0384"/>
	<advance width="491"/>
	<outline>
		<contour>
			<point x="222" y="573" type="line"/>
			<point x="368" y="733" type="line"/>
			<point x="368" y="746" type="line"/>
			<point x="356" y="768"/>
			<point x="344" y="783"/>
			<point x="322" y="783" type="curve" smooth="yes"/>
			<point x="298" y="783"/>
			<point x="291" y="768"/>
			<point x="278" y="740" type="curve" smooth="yes"/>
			<point x="204" y="581" type="line"/>
		</contour>
	</outline>
	<anchor name="_top" x="224" y="550"/>
</glyph>
<glyph name="dieresistonos" format="2">
	<unicode hex="0385"/>
	<advance width="597"/>
	<outline>
		<contour>
			<point x="270" y="574" type="line"/>
			<point x="403" y="745" type="line"/>
			<point x="403" y="758" type="line"/>
			<point x="390" y="778"/>
			<point x="377" y="791"/>
			<point x="358" y="791" type="curve" smooth="yes"/>
			<point x="330" y="791"/>
			<point x="325" y="775"/>
			<point x="313" y="744" type="curve" smooth="yes"/>
			<point x="253" y="582" type="line"/>
		</contour>
		<contour>
			<point x="183" y="627" type="curve" smooth="yes"/>
			<point x="211" y="627"/>
			<point x="226" y="651"/>
			<point x="226" y="675" type="curve" smooth="yes"/>
			<point x="226" y="701"/>
			<point x="212" y="719"/>
			<point x="184" y="719" type="curve" smooth="yes"/>
			<point x="159" y="719"/>
			<point x="142" y="697"/>
			<point x="142" y="671" type="curve" smooth="yes"/>
			<point x="142" y="646"/>
			<point x="159" y="627"/>
		</contour>
		<contour>
			<point x="458" y="627" type="curve" smooth="yes"/>
			<point x="486" y="627"/>
			<point x="501" y="651"/>
			<point x="501" y="675" type="curve" smooth="yes"/>
			<point x="501" y="701"/>
			<point x="487" y="719"/>
			<point x="459" y="719" type="curve" smooth="yes"/>
			<point x="434" y="719"/>
			<point x="417" y="697"/>
			<point x="417" y="671" type="curve" smooth="yes"/>
			<point x="417" y="646"/>
			<point x="434" y="627"/>
		</contour>
	</outline>
	<anchor name="_top" x="274" y="550"/>
</glyph>
<glyph name="Gamma" format="2">
	<unicode hex="0393"/>
	<advance width="529"/>
	<outline>
		<contour>
			<point x="50" y="0" type="line"/>
			<point x="311" y="0" type="line"/>
			<point x="314" y="33" type="line"/>
			<point x="186" y="45" type="line"/>
			<point x="210" y="661" type="line"/>
			<point x="374" y="661" type="line" smooth="yes"/>
			<point x="428" y="661"/>
			<point x="452" y="655"/>
			<point x="469" y="591" type="curve" smooth="yes"/>
			<point x="482" y="542" type="line"/>
			<point x="517" y="547" type="line"/>
			<point x="503" y="700" type="line"/>
			<point x="79" y="700" type="line"/>
			<point x="75" y="668" type="line"/>
			<point x="163" y="655" type="line"/>
			<point x="139" y="46" type="line"/>
			<point x="54" y="32" type="line"/>
		</contour>
	</outline>
</glyph>
<glyph name="Theta" format="2">
	<unicode hex="0398"/>
	<advance width="693"/>
	<outline>
		<contour>
			<point x="344" y="-14" type="curve" smooth="yes"/>
			<point x="532" y="-14"/>
			<point x="644" y="144"/>
			<point x="644" y="378" type="curve" smooth="yes"/>
			<point x="644" y="583"/>
			<point x="541" y="715"/>
			<point x="373" y="715" type="curve" smooth="yes"/>
			<point x="182" y="715"/>
			<point x="65" y="561"/>
			<point x="65" y="331" type="curve" smooth="yes"/>
			<point x="65" y="120"/>
			<point x="170" y="-14"/>
		</contour>
		<contour>
			<point x="353" y="31" type="curve" smooth="yes"/>
			<point x="202" y="31"/>
			<point x="116" y="143"/>
			<point x="116" y="339" type="curve" smooth="yes"/>
			<point x="116" y="544"/>
			<point x="215" y="670"/>
			<point x="366" y="670" type="curve" smooth="yes"/>
			<point x="512" y="670"/>
			<point x="593" y="562"/>
			<point x="593" y="374" type="curve" smooth="yes"/>
			<point x="593" y="158"/>
			<point x="503" y="31"/>
		</contour>
		<contour>
			<point x="221" y="335" type="line"/>
			<point x="486" y="335" type="line"/>
			<point x="488" y="385" type="line"/>
			<point x="223" y="385" type="line"/>
		</contour>
	</outline>
</glyph>
<glyph name="Pi" format="2">
	<unicode hex="03A0"/>
	<advance width="707"/>
	<outline>
		<contour>
			<point x="50" y="0" type="line"/>
			<point x="279" y="0" type="line"/>
			<point x="283" y="33" type="line"/>
			<point x="187" y="46" type="line"/>
			<point x="213" y="661" type="line"/>
			<point x="548" y="661" type="line"/>
			<point x="522" y="46" type="line"/>
			<point x="438" y="33" type="line"/>
			<point x="434" y="0" type="line"/>
			<point x="663" y="0" type="line"/>
			<point x="667" y="33" type="line"/>
			<point x="571" y="46" type="line"/>
			<point x="596" y="655" type="line"/>
			<point x="681" y="668" type="line"/>
			<point x="684" y="700" type="line"/>
			<point x="79" y="700" type="line"/>
			<point x="75" y="668" type="line"/>
			<point x="162" y="655" type="line"/>
			<point x="138" y="46" type="line"/>
			<point x="54" y="32" type="line"/>
		</contour>
	</outline>
</glyph>
<glyph name="Psi" format="2">
	<unicode hex="03A8"/>
	<advance width="758"/>
	<outline>
		<contour>
			<point x="257" y="0" type="line"/>
			<point x="487" y="0" type="line"/>
			<point x="490" y="33" type="line"/>
			<point x="393" y="45" type="line"/>
			<point x="399" y="198" type="line"/>
			<point x="555" y="198"/>
			<point x="639" y="277"/>
			<point x="645" y="431" type="curve" smooth="yes"/>
			<point x="654" y="655" type="line"/>
			<point x="722" y="668" type="line"/>
			<point x="721" y="700" type="line"/>
			<point x="609" y="700" type="line"/>
			<point x="598" y="429" type="line" smooth="yes"/>
			<point x="593" y="307"/>
			<point x="541" y="241"/>
			<point x="400" y="241" type="curve"/>
			<point x="416" y="655" type="line"/>
			<point x="504" y="668" type="line"/>
			<point x="507" y="700" type="line"/>
			<point x="286" y="700" type="line"/>
			<point x="282" y="668" type="line"/>
			<point x="370" y="655" type="line"/>
			<point x="353" y="240" type="line"/>
			<point x="202" y="250"/>
			<point x="166" y="305"/>
			<point x="171" y="429" type="curve" smooth="yes"/>
			<point x="182" y="700" type="line"/>
			<point x="70" y="700" type="line"/>
			<point x="66" y="668" type="line"/>
			<point x="133" y="655" type="line"/>
			<point x="124" y="431" type="line" smooth="yes"/>
			<point x="118" y="274"/>
			<point x="180" y="207"/>
			<point x="352" y="198" type="curve"/>
			<point x="346" y="46" type="line"/>
			<point x="261" y="32" type="line"/>
		</contour>
	</outline>
</glyph>
<glyph name="epsilon" format="2">
	<unicode hex="03B5"/>
	<advance width="495"/>
	<outline>
		<contour>
			<point x="242" y="-14" type="curve" smooth="yes"/>
			<point x="321" y="-14"/>
			<point x="382" y="15"/>
			<point x="444" y="81" type="curve"/>
			<point x="420" y="109" type="line"/>
			<point x="362" y="48"/>
			<point x="307" y="29"/>
			<point x="245" y="29" type="curve" smooth="yes"/>
			<point x="151" y="29"/>
			<point x="106" y="77"/>
			<point x="106" y="134" type="curve" smooth="yes"/>
			<point x="106" y="179"/>
			<point x="125" y="224"/>
			<point x="206" y="248" type="curve"/>
			<point x="240" y="224"/>
			<point x="261" y="219"/>
			<point x="280" y="219" type="curve" smooth="yes"/>
			<point x="315" y="219"/>
			<point x="328" y="241"/>
			<point x="328" y="262" type="curve" smooth="yes"/>
			<point x="328" y="287"/>
			<point x="308" y="305"/>
			<point x="280" y="305" type="curve" smooth="yes"/>
			<point x="252" y="305"/>
			<point x="235" y="295"/>
			<point x="207" y="276" type="curve"/>
			<point x="151" y="299"/>
			<point x="135" y="333"/>
			<point x="135" y="369" type="curve" smooth="yes"/>
			<point x="135" y="437"/>
			<point x="189" y="479"/>
			<point x="283" y="479" type="curve" smooth="yes"/>
			<point x="352" y="479"/>
			<point x="390" y="464"/>
			<point x="390" y="438" type="curve" smooth="yes"/>
			<point x="390" y="430"/>
			<point x="386" y="420"/>
			<point x="371" y="399" type="curve"/>
			<point x="382" y="381"/>
			<point x="398" y="373"/>
			<point x="413" y="373" type="curve" smooth="yes"/>
			<point x="438" y="373"/>
			<point x="454" y="389"/>
			<point x="454" y="420" type="curve" smooth="yes"/>
			<point x="454" y="460"/>
			<point x="407" y="517"/>
			<point x="283" y="517" type="curve" smooth="yes"/>
			<point x="162" y="517"/>
			<point x="86" y="450"/>
			<point x="86" y="369" type="curve" smooth="yes"/>
			<point x="86" y="316"/>
			<point x="112" y="282"/>
			<point x="163" y="260" type="curve"/>
			<point x="163" y="258" type="line"/>
			<point x="95" y="239"/>
			<point x="57" y="191"/>
			<point x="57" y="126" type="curve" smooth="yes"/>
			<point x="57" y="43"/>
			<point x="135" y="-14"/>
		</contour>
	</outline>
	<anchor name="top" x="293" y="550"/>
</glyph>
<glyph name="iota" format="2">
	<unicode hex="03B9"/>
	<advance width="266"/>
	<outline>
		<contour>
			<point x="119" y="-14" type="curve" smooth="yes"/>
			<point x="161" y="-14"/>
			<point x="195" y="6"/>
			<point x="222" y="28" type="curve"/>
			<point x="208" y="55" type="line"/>
			<point x="183" y="40"/>
			<point x="161" y="34"/>
			<point x="133" y="34" type="curve" smooth="yes"/>
			<point x="79" y="34"/>
			<point x="74" y="77"/>
			<point x="74" y="117" type="curve" smooth="yes"/>
			<point x="74" y="180"/>
			<point x="99" y="374"/>
			<point x="121" y="506" type="curve"/>
			<point x="117" y="510" type="line"/>
			<point x="54" y="503" type="line"/>
			<point x="44" y="328"/>
			<point x="35" y="143"/>
			<point x="35" y="117" type="curve" smooth="yes"/>
			<point x="35" y="18"/>
			<point x="61" y="-14"/>
		</contour>
	</outline>
	<anchor name="top" x="109" y="550"/>
</glyph>
<glyph name="nu" format="2">
	<unicode hex="03BD"/>
	<advance width="495"/>
	<outline>
		<contour>
			<point x="193" y="-19" type="line"/>
			<point x="348" y="113"/>
			<point x="436" y="284"/>
			<point x="436" y="416" type="curve" smooth="yes"/>
			<point x="436" y="492"/>
			<point x="407" y="517"/>
			<point x="371" y="517" type="curve" smooth="yes"/>
			<point x="340" y="517"/>
			<point x="323" y="494"/>
			<point x="319" y="453" type="curve"/>
			<point x="345" y="445" type="line" smooth="yes"/>
			<point x="377" y="435"/>
			<point x="388" y="423"/>
			<point x="388" y="389" type="curve" smooth="yes"/>
			<point x="388" y="249"/>
			<point x="248" y="74"/>
			<point x="211" y="46" type="curve"/>
			<point x="207" y="150"/>
			<point x="202" y="223"/>
			<point x="198" y="283" type="curve" smooth="yes"/>
			<point x="186" y="464"/>
			<point x="171" y="516"/>
			<point x="105" y="516" type="curve" smooth="yes"/>
			<point x="74" y="516"/>
			<point x="32" y="500"/>
			<point x="13" y="487" type="curve"/>
			<point x="26" y="454" type="line"/>
			<point x="48" y="465"/>
			<point x="72" y="472"/>
			<point x="88" y="472" type="curve" smooth="yes"/>
			<point x="126" y="472"/>
			<point x="137" y="416"/>
			<point x="148" y="279" type="curve" smooth="yes"/>
			<point x="155" y="193"/>
			<point x="163" y="80"/>
			<point x="167" y="-4" type="curve"/>
		</contour>
	</outline>
</glyph>
<glyph name="xi" format="2">
	<unicode hex="03BE"/>
	<advance width="431"/>
	<outline>
		<contour>
			<point x="292" y="-233" type="line"/>
			<point x="337" y="-196"/>
			<point x="368" y="-139"/>
			<point x="368" y="-94" type="curve" smooth="yes"/>
			<point x="368" y="-16"/>
			<point x="317" y="14"/>
			<point x="222" y="50" type="curve" smooth="yes"/>
			<point x="140" y="81"/>
			<point x="94" y="111"/>
			<point x="94" y="179" type="curve" smooth="yes"/>
			<point x="94" y="244"/>
			<point x="133" y="299"/>
			<point x="217" y="332" type="curve"/>
			<point x="252" y="310"/>
			<point x="277" y="303"/>
			<point x="300" y="303" type="curve" smooth="yes"/>
			<point x="327" y="303"/>
			<point x="355" y="315"/>
			<point x="355" y="349" type="curve" smooth="yes"/>
			<point x="355" y="379"/>
			<point x="324" y="392"/>
			<point x="304" y="392" type="curve" smooth="yes"/>
			<point x="280" y="392"/>
			<point x="251" y="384"/>
			<point x="219" y="361" type="curve"/>
			<point x="163" y="379"/>
			<point x="124" y="423"/>
			<point x="124" y="458" type="curve" smooth="yes"/>
			<point x="124" y="543"/>
			<point x="194" y="623"/>
			<point x="406" y="674" type="curve"/>
			<point x="414" y="681"/>
			<point x="417" y="689"/>
			<point x="417" y="698" type="curve" smooth="yes"/>
			<point x="417" y="720"/>
			<point x="400" y="732"/>
			<point x="385" y="732" type="curve" smooth="yes"/>
			<point x="358" y="732"/>
			<point x="284" y="703"/>
			<point x="206" y="650" type="curve"/>
			<point x="154" y="664"/>
			<point x="139" y="683"/>
			<point x="139" y="734" type="curve" smooth="yes"/>
			<point x="139" y="747"/>
			<point x="143" y="762"/>
			<point x="148" y="769" type="curve"/>
			<point x="139" y="776"/>
			<point x="122" y="782"/>
			<point x="104" y="782" type="curve" smooth="yes"/>
			<point x="63" y="782"/>
			<point x="42" y="756"/>
			<point x="42" y="719" type="curve" smooth="yes"/>
			<point x="42" y="663"/>
			<point x="96" y="632"/>
			<point x="166" y="623" type="curve"/>
			<point x="125" y="595"/>
			<point x="75" y="536"/>
			<point x="75" y="462" type="curve" smooth="yes"/>
			<point x="75" y="411"/>
			<point x="106" y="365"/>
			<point x="176" y="342" type="curve"/>
			<point x="176" y="340" type="line"/>
			<point x="101" y="311"/>
			<point x="47" y="244"/>
			<point x="49" y="171" type="curve" smooth="yes"/>
			<point x="51" y="102"/>
			<point x="77" y="55"/>
			<point x="204" y="11" type="curve" smooth="yes"/>
			<point x="297" y="-21"/>
			<point x="324" y="-47"/>
			<point x="324" y="-92" type="curve" smooth="yes"/>
			<point x="324" y="-134"/>
			<point x="310" y="-167"/>
			<point x="267" y="-212" type="curve"/>
		</contour>
	</outline>
</glyph>
<glyph name="omicron" format="2">
	<unicode hex="03BF"/>
	<advance width="505"/>
	<outline>
		<contour>
			<point x="234" y="-14" type="curve" smooth="yes"/>
			<point x="387" y="-14"/>
			<point x="450" y="122"/>
			<point x="450" y="274" type="curve" smooth="yes"/>
			<point x="450" y="429"/>
			<point x="369" y="517"/>
			<point x="270" y="517" type="curve" smooth="yes"/>
			<point x="117" y="517"/>
			<point x="56" y="390"/>
			<point x="56" y="235" type="curve" smooth="yes"/>
			<point x="56" y="84"/>
			<point x="123" y="-14"/>
		</contour>
		<contour>
			<point x="240" y="25" type="curve" smooth="yes"/>
			<point x="155" y="25"/>
			<point x="105" y="106"/>
			<point x="105" y="229" type="curve" smooth="yes"/>
			<point x="105" y="365"/>
			<point x="141" y="479"/>
			<point x="259" y="479" type="curve" smooth="yes"/>
			<point x="359" y="479"/>
			<point x="401" y="394"/>
			<point x="401" y="275" type="curve" smooth="yes"/>
			<point x="401" y="145"/>
			<point x="360" y="25"/>
		</contour>
	</outline>
	<anchor name="top" x="272" y="550"/>
</glyph>
<glyph name="pi" format="2">
	<unicode hex="03C0"/>
	<advance width="597"/>
	<outline>
		<contour>
			<point x="432" y="-14" type="curve" smooth="yes"/>
			<point x="471" y="-14"/>
			<point x="495" y="1"/>
			<point x="525" y="28" type="curve"/>
			<point x="507" y="55" type="line"/>
			<point x="474" y="33"/>
			<point x="460" y="29"/>
			<point x="439" y="29" type="curve" smooth="yes"/>
			<point x="411" y="29"/>
			<point x="395" y="38"/>
			<point x="395" y="85" type="curve" smooth="yes"/>
			<point x="395" y="142"/>
			<point x="406" y="255"/>
			<point x="431" y="449" type="curve"/>
			<point x="474" y="447"/>
			<point x="503" y="445"/>
			<point x="515" y="445" type="curve" smooth="yes"/>
			<point x="549" y="445"/>
			<point x="566" y="466"/>
			<point x="566" y="485" type="curve" smooth="yes"/>
			<point x="566" y="504"/>
			<point x="560" y="514"/>
			<point x="546" y="526" type="curve"/>
			<point x="450" y="503" type="line"/>
			<point x="74" y="517" type="line" smooth="yes"/>
			<point x="44" y="518"/>
			<point x="15" y="502"/>
			<point x="15" y="465" type="curve" smooth="yes"/>
			<point x="15" y="438"/>
			<point x="35" y="418"/>
			<point x="80" y="419" type="curve"/>
			<point x="89" y="444" type="line" smooth="yes"/>
			<point x="95" y="461"/>
			<point x="104" y="467"/>
			<point x="118" y="467" type="curve" smooth="yes"/>
			<point x="131" y="467"/>
			<point x="156" y="466"/>
			<point x="193" y="463" type="curve"/>
			<point x="88" y="4" type="line"/>
			<point x="92" y="0" type="line"/>
			<point x="147" y="0" type="line"/>
			<point x="226" y="462" type="line"/>
			<point x="281" y="458"/>
			<point x="341" y="455"/>
			<point x="396" y="451" type="curve"/>
			<point x="369" y="260"/>
			<point x="353" y="131"/>
			<point x="353" y="78" type="curve" smooth="yes"/>
			<point x="353" y="11"/>
			<point x="384" y="-14"/>
		</contour>
	</outline>
</glyph>
<glyph name="rho" format="2">
	<unicode hex="03C1"/>
	<advance width="483"/>
	<outline>
		<contour>
			<point x="41" y="-230" type="line"/>
			<point x="95" y="-221" type="line"/>
			<point x="79" y="-152"/>
			<point x="73" y="-25"/>
			<point x="75" y="26" type="curve"/>
			<point x="77" y="26" type="line"/>
			<point x="102" y="5"/>
			<point x="147" y="-14"/>
			<point x="188" y="-14" type="curve" smooth="yes"/>
			<point x="324" y="-14"/>
			<point x="429" y="100"/>
			<point x="429" y="289" type="curve" smooth="yes"/>
			<point x="429" y="444"/>
			<point x="349" y="517"/>
			<point x="251" y="517" type="curve" smooth="yes"/>
			<point x="94" y="517"/>
			<point x="23" y="352"/>
			<point x="23" y="26" type="curve" smooth="yes"/>
			<point x="23" y="-131"/>
			<point x="26" y="-165"/>
			<point x="33" y="-225" type="curve"/>
		</contour>
		<contour>
			<point x="190" y="30" type="curve" smooth="yes"/>
			<point x="140" y="30"/>
			<point x="108" y="38"/>
			<point x="74" y="61" type="curve"/>
			<point x="78" y="275"/>
			<point x="115" y="479"/>
			<point x="251" y="479" type="curve" smooth="yes"/>
			<point x="315" y="479"/>
			<point x="379" y="431"/>
			<point x="379" y="289" type="curve" smooth="yes"/>
			<point x="379" y="158"/>
			<point x="321" y="30"/>
		</contour>
	</outline>
	<anchor name="top" x="262" y="550"/>
</glyph>
<glyph name="sigma" format="2">
	<unicode hex="03C3"/>
	<advance width="593"/>
	<outline>
		<contour>
			<point x="246" y="-14" type="curve" smooth="yes"/>
			<point x="364" y="-14"/>
			<point x="454" y="97"/>
			<point x="454" y="244" type="curve" smooth="yes"/>
			<point x="454" y="328"/>
			<point x="435" y="403"/>
			<point x="389" y="449" type="curve"/>
			<point x="389" y="451" type="line"/>
			<point x="450" y="440"/>
			<point x="476" y="431"/>
			<point x="509" y="431" type="curve" smooth="yes"/>
			<point x="535" y="431"/>
			<point x="557" y="449"/>
			<point x="557" y="478" type="curve" smooth="yes"/>
			<point x="557" y="499"/>
			<point x="548" y="508"/>
			<point x="540" y="517" type="curve"/>
			<point x="445" y="486" type="line"/>
			<point x="383" y="495"/>
			<point x="338" y="503"/>
			<point x="283" y="503" type="curve" smooth="yes"/>
			<point x="149" y="503"/>
			<point x="55" y="399"/>
			<point x="55" y="225" type="curve" smooth="yes"/>
			<point x="55" y="101"/>
			<point x="103" y="-14"/>
		</contour>
		<contour>
			<point x="246" y="25" type="curve" smooth="yes"/>
			<point x="150" y="25"/>
			<point x="103" y="93"/>
			<point x="103" y="225" type="curve" smooth="yes"/>
			<point x="103" y="369"/>
			<point x="177" y="461"/>
			<point x="279" y="461" type="curve" smooth="yes"/>
			<point x="309" y="461"/>
			<point x="322" y="460"/>
			<point x="342" y="454" type="curve"/>
			<point x="376" y="418"/>
			<point x="406" y="335"/>
			<point x="406" y="256" type="curve" smooth="yes"/>
			<point x="406" y="143"/>
			<point x="352" y="25"/>
		</contour>
	</outline>
</glyph>
<glyph name="tau" format="2">
	<unicode hex="03C4"/>
	<advance width="490"/>
	<outline>
		<contour>
			<point x="277" y="-14" type="curve" smooth="yes"/>
			<point x="331" y="-14"/>
			<point x="389" y="21"/>
			<point x="421" y="65" type="curve"/>
			<point x="396" y="92" type="line"/>
			<point x="363" y="54"/>
			<point x="321" y="29"/>
			<point x="281" y="29" type="curve" smooth="yes"/>
			<point x="235" y="29"/>
			<point x="212" y="54"/>
			<point x="212" y="117" type="curve" smooth="yes"/>
			<point x="212" y="208"/>
			<point x="231" y="314"/>
			<point x="255" y="458" type="curve"/>
			<point x="324" y="452"/>
			<point x="396" y="445"/>
			<point x="413" y="445" type="curve" smooth="yes"/>
			<point x="447" y="445"/>
			<point x="464" y="466"/>
			<point x="464" y="485" type="curve" smooth="yes"/>
			<point x="464" y="504"/>
			<point x="458" y="514"/>
			<point x="444" y="526" type="curve"/>
			<point x="348" y="503" type="line"/>
			<point x="75" y="520" type="line" smooth="yes"/>
			<point x="45" y="522"/>
			<point x="16" y="505"/>
			<point x="16" y="468" type="curve" smooth="yes"/>
			<point x="16" y="441"/>
			<point x="36" y="421"/>
			<point x="81" y="422" type="curve"/>
			<point x="90" y="447" type="line" smooth="yes"/>
			<point x="96" y="464"/>
			<point x="105" y="470"/>
			<point x="119" y="470" type="curve" smooth="yes"/>
			<point x="129" y="470"/>
			<point x="172" y="466"/>
			<point x="222" y="461" type="curve"/>
			<point x="182" y="286"/>
			<point x="161" y="168"/>
			<point x="161" y="109" type="curve" smooth="yes"/>
			<point x="161" y="41"/>
			<point x="185" y="-14"/>
		</contour>
	</outline>
</glyph>
<glyph name="upsilon" format="2">
	<unicode hex="03C5"/>
	<advance width="555"/>
	<outline>
		<contour>
			<point x="241" y="-15" type="curve" smooth="yes"/>
			<point x="381" y="-15"/>
			<point x="494" y="133"/>
			<point x="494" y="381" type="curve" smooth="yes"/>
			<point x="494" y="474"/>
			<point x="468" y="517"/>
			<point x="419" y="517" type="curve" smooth="yes"/>
			<point x="383" y="517"/>
			<point x="370" y="488"/>
			<point x="368" y="453" type="curve"/>
			<point x="398" y="444" type="line" smooth="yes"/>
			<point x="446" y="430"/>
			<point x="456" y="423"/>
			<point x="456" y="368" type="curve" smooth="yes"/>
			<point x="456" y="149"/>
			<point x="354" y="26"/>
			<point x="247" y="28" type="curve" smooth="yes"/>
			<point x="190" y="29"/>
			<point x="149" y="58"/>
			<point x="149" y="125" type="curve" smooth="yes"/>
			<point x="149" y="211"/>
			<point x="197" y="397"/>
			<point x="197" y="453" type="curve" smooth="yes"/>
			<point x="197" y="487"/>
			<point x="176" y="517"/>
			<point x="131" y="517" type="curve" smooth="yes"/>
			<point x="95" y="517"/>
			<point x="53" y="496"/>
			<point x="28" y="473" type="curve"/>
			<point x="47" y="445" type="line"/>
			<point x="81" y="469"/>
			<point x="98" y="473"/>
			<point x="112" y="473" type="curve" smooth="yes"/>
			<point x="132" y="473"/>
			<point x="148" y="461"/>
			<point x="148" y="438" type="curve" smooth="yes"/>
			<point x="148" y="411"/>
			<point x="101" y="200"/>
			<point x="101" y="115" type="curve" smooth="yes"/>
			<point x="101" y="29"/>
			<point x="171" y="-15"/>
		</contour>
	</outline>
	<anchor name="top" x="292" y="550"/>
</glyph>
<glyph name="chi" format="2">
	<unicode hex="03C7"/>
	<advance width="509"/>
	<outline>
		<contour>
			<point x="83" y="-231" type="curve" smooth="yes"/>
			<point x="119" y="-231"/>
			<point x="132" y="-206"/>
			<point x="136" y="-167" type="curve"/>
			<point x="109" y="-158" type="line" smooth="yes"/>
			<point x="73" y="-146"/>
			<point x="66" y="-131"/>
			<point x="66" y="-110" type="curve" smooth="yes"/>
			<point x="66" y="-49"/>
			<point x="134" y="33"/>
			<point x="246" y="117" type="curve"/>
			<point x="325" y="-153" type="line" smooth="yes"/>
			<point x="338" y="-199"/>
			<point x="360" y="-230"/>
			<point x="408" y="-230" type="curve" smooth="yes"/>
			<point x="447" y="-230"/>
			<point x="487" y="-206"/>
			<point x="510" y="-186" type="curve"/>
			<point x="491" y="-158" type="line"/>
			<point x="467" y="-174"/>
			<point x="449" y="-186"/>
			<point x="419" y="-186" type="curve" smooth="yes"/>
			<point x="399" y="-186"/>
			<point x="377" y="-168"/>
			<point x="366" y="-131" type="curve" smooth="yes"/>
			<point x="283" y="140" type="line"/>
			<point x="397" y="232"/>
			<point x="487" y="351"/>
			<point x="487" y="438" type="curve" smooth="yes"/>
			<point x="487" y="486"/>
			<point x="467" y="517"/>
			<point x="422" y="517" type="curve" smooth="yes"/>
			<point x="386" y="517"/>
			<point x="373" y="492"/>
			<point x="369" y="453" type="curve"/>
			<point x="396" y="444" type="line" smooth="yes"/>
			<point x="432" y="432"/>
			<point x="439" y="417"/>
			<point x="439" y="396" type="curve" smooth="yes"/>
			<point x="439" y="346"/>
			<point x="389" y="269"/>
			<point x="273" y="173" type="curve"/>
			<point x="196" y="440" type="line" smooth="yes"/>
			<point x="183" y="486"/>
			<point x="167" y="516"/>
			<point x="119" y="516" type="curve" smooth="yes"/>
			<point x="85" y="516"/>
			<point x="44" y="499"/>
			<point x="25" y="487" type="curve"/>
			<point x="38" y="454" type="line"/>
			<point x="59" y="462"/>
			<point x="82" y="472"/>
			<point x="105" y="472" type="curve" smooth="yes"/>
			<point x="125" y="472"/>
			<point x="144" y="455"/>
			<point x="155" y="418" type="curve" smooth="yes"/>
			<point x="235" y="148" type="line"/>
			<point x="115" y="54"/>
			<point x="18" y="-51"/>
			<point x="18" y="-152" type="curve" smooth="yes"/>
			<point x="18" y="-200"/>
			<point x="38" y="-231"/>
		</contour>
	</outline>
</glyph>
<glyph name="psi" format="2">
	<unicode hex="03C8"/>
	<advance width="720"/>
	<outline>
		<contour>
			<point x="265" y="-230" type="line"/>
			<point x="312" y="-222" type="line"/>
			<point x="347" y="-13" type="line"/>
			<point x="569" y="6"/>
			<point x="659" y="188"/>
			<point x="659" y="381" type="curve" smooth="yes"/>
			<point x="659" y="486"/>
			<point x="613" y="517"/>
			<point x="573" y="517" type="curve" smooth="yes"/>
			<point x="537" y="517"/>
			<point x="525" y="488"/>
			<point x="523" y="453" type="curve"/>
			<point x="552" y="445" type="line" smooth="yes"/>
			<point x="595" y="433"/>
			<point x="620" y="425"/>
			<point x="620" y="379" type="curve" smooth="yes"/>
			<point x="620" y="203"/>
			<point x="542" y="46"/>
			<point x="353" y="27" type="curve"/>
			<point x="469" y="720" type="line"/>
			<point x="429" y="720" type="line"/>
			<point x="302" y="25" type="line"/>
			<point x="183" y="28"/>
			<point x="148" y="76"/>
			<point x="148" y="155" type="curve" smooth="yes"/>
			<point x="148" y="215"/>
			<point x="196" y="392"/>
			<point x="196" y="450" type="curve" smooth="yes"/>
			<point x="196" y="488"/>
			<point x="176" y="517"/>
			<point x="129" y="517" type="curve" smooth="yes"/>
			<point x="90" y="517"/>
			<point x="51" y="494"/>
			<point x="28" y="473" type="curve"/>
			<point x="47" y="445" type="line"/>
			<point x="67" y="460"/>
			<point x="89" y="473"/>
			<point x="114" y="473" type="curve" smooth="yes"/>
			<point x="134" y="473"/>
			<point x="147" y="456"/>
			<point x="147" y="442" type="curve" smooth="yes"/>
			<point x="147" y="392"/>
			<point x="99" y="215"/>
			<point x="99" y="138" type="curve" smooth="yes"/>
			<point x="99" y="46"/>
			<point x="166" y="-10"/>
			<point x="295" y="-14" type="curve"/>
			<point x="256" y="-225" type="line"/>
		</contour>
	</outline>
</glyph>
<glyph name="omega" format="2">
	<unicode hex="03C9"/>
	<advance width="712"/>
	<outline>
		<contour>
			<point x="197" y="-14" type="curve" smooth="yes"/>
			<point x="293" y="-14"/>
			<point x="334" y="79"/>
			<point x="344" y="121" type="curve"/>
			<point x="346" y="121" type="line"/>
			<point x="353" y="76"/>
			<point x="380" y="-14"/>
			<point x="483" y="-14" type="curve" smooth="yes"/>
			<point x="571" y="-14"/>
			<point x="652" y="75"/>
			<point x="652" y="255" type="curve" smooth="yes"/>
			<point x="652" y="367"/>
			<point x="618" y="462"/>
			<point x="569" y="514" type="curve"/>
			<point x="564" y="517" type="line"/>
			<point x="516" y="503" type="line"/>
			<point x="567" y="446"/>
			<point x="603" y="339"/>
			<point x="603" y="249" type="curve" smooth="yes"/>
			<point x="603" y="95"/>
			<point x="538" y="29"/>
			<point x="471" y="29" type="curve" smooth="yes"/>
			<point x="417" y="29"/>
			<point x="375" y="78"/>
			<point x="368" y="150" type="curve"/>
			<point x="394" y="196"/>
			<point x="413" y="233"/>
			<point x="413" y="266" type="curve" smooth="yes"/>
			<point x="413" y="317"/>
			<point x="386" y="331"/>
			<point x="363" y="331" type="curve" smooth="yes"/>
			<point x="334" y="331"/>
			<point x="307" y="303"/>
			<point x="307" y="258" type="curve" smooth="yes"/>
			<point x="307" y="228"/>
			<point x="313" y="207"/>
			<point x="331" y="150" type="curve"/>
			<point x="309" y="92"/>
			<point x="276" y="29"/>
			<point x="202" y="29" type="curve" smooth="yes"/>
			<point x="126" y="29"/>
			<point x="107" y="106"/>
			<point x="107" y="170" type="curve" smooth="yes"/>
			<point x="107" y="360"/>
			<point x="196" y="451"/>
			<point x="243" y="496" type="curve"/>
			<point x="215" y="516" type="line"/>
			<point x="150" y="470"/>
			<point x="59" y="335"/>
			<point x="59" y="176" type="curve" smooth="yes"/>
			<point x="59" y="64"/>
			<point x="109" y="-14"/>
		</contour>
	</outline>
	<anchor name="bottom" x="345" y="-30"/>
	<anchor name="top" x="393" y="550"/>
</glyph>
<glyph name="KoppaArchaic" format="2">
	<unicode hex="03D8"/>
	<advance width="693"/>
	<outline>
		<contour>
			<point x="307" y="-217" type="line"/>
			<point x="355" y="-212" type="line"/>
			<point x="356" y="-132"/>
			<point x="358" y="-48"/>
			<point x="359" y="-14" type="curve"/>
			<point x="538" y="-5"/>
			<point x="644" y="150"/>
			<point x="644" y="378" type="curve" smooth="yes"/>
			<point x="644" y="583"/>
			<point x="541" y="715"/>
			<point x="373" y="715" type="curve" smooth="yes"/>
			<point x="182" y="715"/>
			<point x="65" y="561"/>
			<point x="65" y="331" type="curve" smooth="yes"/>
			<point x="65" y="133"/>
			<point x="157" y="3"/>
			<point x="312" y="-12" type="curve"/>
			<point x="309" y="-57"/>
			<point x="303" y="-152"/>
			<point x="296" y="-206" type="curve"/>
		</contour>
		<contour>
			<point x="361" y="31" type="curve"/>
			<point x="364" y="101"/>
			<point x="369" y="177"/>
			<point x="377" y="234" type="curve"/>
			<point x="366" y="245" type="line"/>
			<point x="318" y="240" type="line"/>
			<point x="317" y="155"/>
			<point x="315" y="97"/>
			<point x="314" y="34" type="curve"/>
			<point x="187" y="52"/>
			<point x="116" y="161"/>
			<point x="116" y="339" type="curve" smooth="yes"/>
			<point x="116" y="544"/>
			<point x="215" y="670"/>
			<point x="366" y="670" type="curve" smooth="yes"/>
			<point x="512" y="670"/>
			<point x="593" y="562"/>
			<point x="593" y="374" type="curve" smooth="yes"/>
			<point x="593" y="162"/>
			<point x="506" y="36"/>
		</contour>
	</outline>
</glyph>
<glyph name="Koppa" format="2">
	<unicode hex="03DE"/>
	<advance width="521"/>
	<outline>
		<contour>
			<point x="292" y="-91" type="curve" smooth="yes"/>
			<point x="323" y="-91"/>
			<point x="348" y="-78"/>
			<point x="363" y="-62" type="curve"/>
			<point x="354" y="-38" type="line"/>
			<point x="336" y="-47"/>
			<point x="323" y="-51"/>
			<point x="307" y="-51" type="curve" smooth="yes"/>
			<point x="280" y="-51"/>
			<point x="266" y="-35"/>
			<point x="266" y="-9" type="curve" smooth="yes"/>
			<point x="266" y="42"/>
			<point x="307" y="101"/>
			<point x="401" y="235" type="curve" smooth="yes"/>
			<point x="477" y="344" type="line"/>
			<point x="457" y="382" type="line"/>
			<point x="102" y="189" type="line"/>
			<point x="268" y="422"/>
			<point x="300" y="467"/>
			<point x="300" y="528" type="curve" smooth="yes"/>
			<point x="300" y="571"/>
			<point x="277" y="600"/>
			<point x="228" y="600" type="curve" smooth="yes"/>
			<point x="197" y="600"/>
			<point x="172" y="587"/>
			<point x="157" y="571" type="curve"/>
			<point x="166" y="547" type="line"/>
			<point x="184" y="556"/>
			<point x="197" y="560"/>
			<point x="213" y="560" type="curve" smooth="yes"/>
			<point x="241" y="560"/>
			<point x="254" y="543"/>
			<point x="254" y="515" type="curve" smooth="yes"/>
			<point x="254" y="465"/>
			<point x="215" y="413"/>
			<point x="119" y="274" type="curve" smooth="yes"/>
			<point x="43" y="165" type="line"/>
			<point x="64" y="129" type="line"/>
			<point x="411" y="310" type="line"/>
			<point x="251" y="95"/>
			<point x="220" y="40"/>
			<point x="220" y="-19" type="curve" smooth="yes"/>
			<point x="220" y="-62"/>
			<point x="243" y="-91"/>
		</contour>
	</outline>
</glyph>
<glyph name="koppa" format="2">
	<unicode hex="03DF"/>
	<advance width="430"/>
	<outline>
		<contour>
			<point x="201" y="-48" type="curve" smooth="yes"/>
			<point x="236" y="-48"/>
			<point x="261" y="-35"/>
			<point x="282" y="-19" type="curve"/>
			<point x="272" y="5" type="line"/>
			<point x="262" y="-1"/>
			<point x="247" y="-8"/>
			<point x="227" y="-8" type="curve" smooth="yes"/>
			<point x="197" y="-8"/>
			<point x="191" y="10"/>
			<point x="191" y="26" type="curve" smooth="yes"/>
			<point x="191" y="52"/>
			<point x="211" y="73"/>
			<point x="265" y="130" type="curve" smooth="yes"/>
			<point x="390" y="262" type="line"/>
			<point x="391" y="276" type="line"/>
			<point x="145" y="276" type="line"/>
			<point x="230" y="366" type="line" smooth="yes"/>
			<point x="289" y="428"/>
			<point x="300" y="454"/>
			<point x="300" y="482" type="curve" smooth="yes"/>
			<point x="300" y="521"/>
			<point x="274" y="539"/>
			<point x="236" y="539" type="curve" smooth="yes"/>
			<point x="201" y="539"/>
			<point x="176" y="526"/>
			<point x="155" y="510" type="curve"/>
			<point x="165" y="486" type="line"/>
			<point x="175" y="492"/>
			<point x="190" y="499"/>
			<point x="210" y="499" type="curve" smooth="yes"/>
			<point x="240" y="499"/>
			<point x="246" y="481"/>
			<point x="246" y="465" type="curve" smooth="yes"/>
			<point x="244" y="439"/>
			<point x="226" y="418"/>
			<point x="172" y="361" type="curve" smooth="yes"/>
			<point x="45" y="227" type="line"/>
			<point x="44" y="213" type="line"/>
			<point x="290" y="213" type="line"/>
			<point x="207" y="125" type="line" smooth="yes"/>
			<point x="148" y="63"/>
			<point x="137" y="36"/>
			<point x="137" y="9" type="curve" smooth="yes"/>
			<point x="137" y="-31"/>
			<point x="163" y="-48"/>
		</contour>
	</outline>
</glyph>
<glyph name="Sampi" format="2">
	<unicode hex="03E0"/>
	<advance width="793"/>
	<outline>
		<contour>
			<point x="240" y="-177" type="line"/>
			<point x="261" y="-163" type="line"/>
			<point x="241" y="-119" type="line" smooth="yes"/>
			<point x="236" y="-104"/>
			<point x="230" y="-92"/>
			<point x="248" y="-80" type="curve" smooth="yes"/>
			<point x="641" y="207" type="line"/>
			<point x="658" y="152"/>
			<point x="664" y="93"/>
			<point x="664" y="31" type="curve" smooth="yes"/>
			<point x="664" y="-20"/>
			<point x="657" y="-97"/>
			<point x="650" y="-170" type="curve"/>
			<point x="707" y="-172" type="line"/>
			<point x="716" y="-105"/>
			<point x="723" y="-25"/>
			<point x="723" y="38" type="curve" smooth="yes"/>
			<point x="723" y="366"/>
			<point x="553" y="528"/>
			<point x="189" y="532" type="curve"/>
			<point x="185" y="489" type="line"/>
			<point x="316" y="483"/>
			<point x="414" y="455"/>
			<point x="485" y="411" type="curve"/>
			<point x="118" y="140" type="line" smooth="yes"/>
			<point x="97" y="126"/>
			<point x="85" y="125"/>
			<point x="65" y="149" type="curve" smooth="yes"/>
			<point x="41" y="177" type="line"/>
			<point x="22" y="165" type="line"/>
			<point x="126" y="3" type="line"/>
			<point x="147" y="17" type="line"/>
			<point x="127" y="61" type="line" smooth="yes"/>
			<point x="121" y="79"/>
			<point x="118" y="89"/>
			<point x="133" y="100" type="curve" smooth="yes"/>
			<point x="522" y="385" type="line"/>
			<point x="569" y="347"/>
			<point x="602" y="301"/>
			<point x="625" y="249" type="curve"/>
			<point x="233" y="-40" type="line" smooth="yes"/>
			<point x="212" y="-54"/>
			<point x="199" y="-55"/>
			<point x="179" y="-31" type="curve" smooth="yes"/>
			<point x="156" y="-3" type="line"/>
			<point x="137" y="-15" type="line"/>
		</contour>
	</outline>
</glyph>
<glyph name="Dje-cy" format="2">
	<unicode hex="0402"/>
	<advance width="735"/>
	<outline>
		<contour>
			<point x="172" y="32" type="line"/>
			<point x="168" y="0" type="line"/>
			<point x="398" y="0" type="line"/>
			<point x="401" y="33" type="line"/>
			<point x="304" y="45" type="line"/>
			<point x="315" y="320" type="line"/>
			<point x="350" y="345"/>
			<point x="417" y="370"/>
			<point x="484" y="370" type="curve" smooth="yes"/>
			<point x="584" y="370"/>
			<point x="651" y="314"/>
			<point x="651" y="205" type="curve" smooth="yes"/>
			<point x="651" y="93"/>
			<point x="605" y="-5"/>
			<point x="496" y="-77" type="curve"/>
			<point x="516" y="-106" type="line"/>
			<point x="628" y="-38"/>
			<point x="702" y="78"/>
			<point x="702" y="203" type="curve" smooth="yes"/>
			<point x="702" y="343"/>
			<point x="616" y="411"/>
			<point x="495" y="411" type="curve" smooth="yes"/>
			<point x="428" y="411"/>
			<point x="370" y="394"/>
			<point x="317" y="367" type="curve"/>
			<point x="328" y="661" type="line"/>
			<point x="476" y="661" type="line" smooth="yes"/>
			<point x="530" y="661"/>
			<point x="550" y="655"/>
			<point x="565" y="592" type="curve" smooth="yes"/>
			<point x="577" y="543" type="line"/>
			<point x="612" y="547" type="line"/>
			<point x="598" y="700" type="line"/>
			<point x="61" y="700" type="line"/>
			<point x="40" y="547" type="line"/>
			<point x="75" y="543" type="line"/>
			<point x="90" y="592" type="line" smooth="yes"/>
			<point x="109" y="653"/>
			<point x="119" y="661"/>
			<point x="184" y="661" type="curve" smooth="yes"/>
			<point x="281" y="661" type="line"/>
			<point x="257" y="46" type="line"/>
		</contour>
	</outline>
</glyph>
<glyph name="Lje-cy" format="2">
	<unicode hex="0409"/>
	<advance width="918"/>
	<outline>
		<contour>
			<point x="507" y="661" type="line"/>
			<point x="482" y="46" type="line"/>
			<point x="398" y="32" type="line"/>
			<point x="394" y="0" type="line"/>
			<point x="620" y="0" type="line" smooth="yes"/>
			<point x="793" y="0"/>
			<point x="896" y="77"/>
			<point x="896" y="216" type="curve" smooth="yes"/>
			<point x="896" y="330"/>
			<point x="813" y="393"/>
			<point x="684" y="393" type="curve" smooth="yes"/>
			<point x="643" y="393"/>
			<point x="618" y="390"/>
			<point x="581" y="385" type="curve"/>
			<point x="579" y="346" type="line"/>
			<point x="610" y="351"/>
			<point x="639" y="354"/>
			<point x="677" y="354" type="curve" smooth="yes"/>
			<point x="784" y="354"/>
			<point x="844" y="306"/>
			<point x="844" y="217" type="curve" smooth="yes"/>
			<point x="844" y="91"/>
			<point x="762" y="39"/>
			<point x="623" y="39" type="curve" smooth="yes"/>
			<point x="529" y="39" type="line"/>
			<point x="553" y="655" type="line"/>
			<point x="640" y="668" type="line"/>
			<point x="643" y="700" type="line"/>
			<point x="174" y="700" type="line"/>
			<point x="170" y="668" type="line"/>
			<point x="258" y="655" type="line"/>
			<point x="231" y="228"/>
			<point x="172" y="68"/>
			<point x="119" y="48" type="curve"/>
			<point x="69" y="95" type="line"/>
			<point x="46" y="86"/>
			<point x="29" y="65"/>
			<point x="29" y="39" type="curve" smooth="yes"/>
			<point x="29" y="7"/>
			<point x="56" y="-14"/>
			<point x="90" y="-14" type="curve" smooth="yes"/>
			<point x="168" y="-14"/>
			<point x="264" y="72"/>
			<point x="303" y="661" type="curve"/>
		</contour>
	</outline>
</glyph>
<glyph name="Be-cy" format="2">
	<unicode hex="0411"/>
	<advance width="591"/>
	<outline>
		<contour>
			<point x="61" y="32" type="line"/>
			<point x="57" y="0" type="line"/>
			<point x="283" y="0" type="line" smooth="yes"/>
			<point x="459" y="0"/>
			<point x="559" y="71"/>
			<point x="559" y="213" type="curve" smooth="yes"/>
			<point x="559" y="333"/>
			<point x="472" y="395"/>
			<point x="346" y="395" type="curve" smooth="yes"/>
			<point x="305" y="395"/>
			<point x="280" y="392"/>
			<point x="243" y="387" type="curve"/>
			<point x="241" y="348" type="line"/>
			<point x="272" y="353"/>
			<point x="302" y="356"/>
			<point x="340" y="356" type="curve" smooth="yes"/>
			<point x="441" y="356"/>
			<point x="507" y="306"/>
			<point x="507" y="216" type="curve" smooth="yes"/>
			<point x="507" y="88"/>
			<point x="425" y="39"/>
			<point x="286" y="39" type="curve" smooth="yes"/>
			<point x="192" y="39" type="line"/>
			<point x="216" y="661" type="line"/>
			<point x="381" y="661" type="line" smooth="yes"/>
			<point x="435" y="661"/>
			<point x="459" y="655"/>
			<point x="476" y="591" type="curve" smooth="yes"/>
			<point x="489" y="542" type="line"/>
			<point x="524" y="547" type="line"/>
			<point x="510" y="700" type="line"/>
			<point x="85" y="700" type="line"/>
			<point x="81" y="668" type="line"/>
			<point x="169" y="655" type="line"/>
			<point x="145" y="46" type="line"/>
		</contour>
	</outline>
</glyph>
<glyph name="De-cy" format="2">
	<unicode hex="0414"/>
	<advance width="678"/>
	<outline>
		<contour>
			<point x="10" y="-156" type="line"/>
			<point x="46" y="-156" type="line"/>
			<point x="55" y="-24"/>
			<point x="81" y="0"/>
			<point x="126" y="0" type="curve" smooth="yes"/>
			<point x="537" y="0" type="line" smooth="yes"/>
			<point x="580" y="0"/>
			<point x="603" y="-10"/>
			<point x="590" y="-157" type="curve"/>
			<point x="626" y="-160" type="line"/>
			<point x="652" y="39" type="line"/>
			<point x="535" y="39" type="line"/>
			<point x="560" y="655" type="line"/>
			<point x="645" y="668" type="line"/>
			<point x="648" y="700" type="line"/>
			<point x="151" y="700" type="line"/>
			<point x="147" y="668" type="line"/>
			<point x="237" y="655" type="line"/>
			<point x="210" y="237"/>
			<point x="151" y="110"/>
			<point x="113" y="39" type="curve"/>
			<point x="14" y="39" type="line"/>
		</contour>
		<contour>
			<point x="166" y="39" type="line"/>
			<point x="196" y="99"/>
			<point x="256" y="270"/>
			<point x="283" y="661" type="curve"/>
			<point x="510" y="661" type="line"/>
			<point x="486" y="39" type="line"/>
		</contour>
	</outline>
</glyph>
<glyph name="Ze-cy" format="2">
	<unicode hex="0417"/>
	<advance width="557"/>
	<outline>
		<contour>
			<point x="93" y="584" type="curve"/>
			<point x="126" y="559" type="line"/>
			<point x="168" y="621"/>
			<point x="223" y="668"/>
			<point x="314" y="668" type="curve" smooth="yes"/>
			<point x="388" y="668"/>
			<point x="441" y="631"/>
			<point x="441" y="557" type="curve" smooth="yes"/>
			<point x="441" y="468"/>
			<point x="367" y="417"/>
			<point x="277" y="389" type="curve" smooth="yes"/>
			<point x="252" y="381"/>
			<point x="227" y="376"/>
			<point x="200" y="372" type="curve"/>
			<point x="198" y="331" type="line"/>
			<point x="223" y="336"/>
			<point x="267" y="340"/>
			<point x="295" y="340" type="curve" smooth="yes"/>
			<point x="398" y="340"/>
			<point x="459" y="297"/>
			<point x="459" y="208" type="curve" smooth="yes"/>
			<point x="459" y="88"/>
			<point x="357" y="26"/>
			<point x="257" y="26" type="curve" smooth="yes"/>
			<point x="155" y="26"/>
			<point x="111" y="67"/>
			<point x="132" y="113" type="curve" smooth="yes"/>
			<point x="150" y="152" type="line"/>
			<point x="137" y="162"/>
			<point x="122" y="171"/>
			<point x="102" y="171" type="curve" smooth="yes"/>
			<point x="69" y="171"/>
			<point x="54" y="145"/>
			<point x="54" y="117" type="curve" smooth="yes"/>
			<point x="54" y="45"/>
			<point x="125" y="-14"/>
			<point x="254" y="-14" type="curve" smooth="yes"/>
			<point x="390" y="-14"/>
			<point x="511" y="71"/>
			<point x="511" y="205" type="curve" smooth="yes"/>
			<point x="511" y="303"/>
			<point x="446" y="360"/>
			<point x="332" y="369" type="curve"/>
			<point x="332" y="374" type="line"/>
			<point x="427" y="411"/>
			<point x="493" y="463"/>
			<point x="493" y="566" type="curve" smooth="yes"/>
			<point x="493" y="643"/>
			<point x="432" y="714"/>
			<point x="317" y="714" type="curve" smooth="yes"/>
			<point x="226" y="714"/>
			<point x="141" y="664"/>
		</contour>
	</outline>
</glyph>
<glyph name="Ka-cy" format="2">
	<unicode hex="041A"/>
	<advance width="661"/>
	<outline>
		<contour>
			<point x="228" y="391" type="curve"/>
			<point x="226" y="350" type="line"/>
			<point x="332" y="350"/>
			<point x="368" y="314"/>
			<point x="398" y="247" type="curve" smooth="yes"/>
			<point x="406" y="229"/>
			<point x="418" y="198"/>
			<point x="444" y="129" type="curve" smooth="yes"/>
			<point x="484" y="22"/>
			<point x="511" y="-14"/>
			<point x="582" y="-14" type="curve" smooth="yes"/>
			<point x="614" y="-14"/>
			<point x="648" y="3"/>
			<point x="674" y="28" type="curve"/>
			<point x="660" y="55" type="line"/>
			<point x="638" y="39"/>
			<point x="616" y="28"/>
			<point x="594" y="28" type="curve" smooth="yes"/>
			<point x="545" y="28"/>
			<point x="525" y="58"/>
			<point x="488" y="154" type="curve" smooth="yes"/>
			<point x="465" y="214"/>
			<point x="456" y="236"/>
			<point x="452" y="246" type="curve" smooth="yes"/>
			<point x="422" y="323"/>
			<point x="381" y="361"/>
			<point x="310" y="378" type="curve"/>
			<point x="310" y="380" type="line"/>
			<point x="379" y="408"/>
			<point x="417" y="477"/>
			<point x="440" y="526" type="curve" smooth="yes"/>
			<point x="475" y="601"/>
			<point x="495" y="636"/>
			<point x="518" y="636" type="curve" smooth="yes"/>
			<point x="526" y="636"/>
			<point x="530" y="635"/>
			<point x="537" y="629" type="curve" smooth="yes"/>
			<point x="568" y="604" type="line"/>
			<point x="591" y="619"/>
			<point x="601" y="639"/>
			<point x="601" y="657" type="curve" smooth="yes"/>
			<point x="601" y="689"/>
			<point x="579" y="707"/>
			<point x="542" y="707" type="curve" smooth="yes"/>
			<point x="484" y="707"/>
			<point x="460" y="656"/>
			<point x="411" y="552" type="curve" smooth="yes"/>
			<point x="367" y="459"/>
			<point x="324" y="402"/>
		</contour>
		<contour>
			<point x="171" y="655" type="line"/>
			<point x="147" y="46" type="line"/>
			<point x="62" y="32" type="line"/>
			<point x="58" y="0" type="line"/>
			<point x="288" y="0" type="line"/>
			<point x="291" y="33" type="line"/>
			<point x="194" y="45" type="line"/>
			<point x="218" y="655" type="line"/>
			<point x="305" y="668" type="line"/>
			<point x="308" y="700" type="line"/>
			<point x="87" y="700" type="line"/>
			<point x="83" y="668" type="line"/>
		</contour>
	</outline>
	<anchor name="top" x="367" y="730"/>
</glyph>
<glyph name="El-cy" format="2">
	<unicode hex="041B"/>
	<advance width="684"/>
	<outline>
		<contour>
			<point x="520" y="661" type="line"/>
			<point x="496" y="46" type="line"/>
			<point x="412" y="33" type="line"/>
			<point x="408" y="0" type="line"/>
			<point x="637" y="0" type="line"/>
			<point x="641" y="33" type="line"/>
			<point x="545" y="46" type="line"/>
			<point x="570" y="655" type="line"/>
			<point x="655" y="668" type="line"/>
			<point x="658" y="700" type="line"/>
			<point x="174" y="700" type="line"/>
			<point x="170" y="668" type="line"/>
			<point x="258" y="655" type="line"/>
			<point x="231" y="228"/>
			<point x="172" y="68"/>
			<point x="119" y="48" type="curve"/>
			<point x="69" y="95" type="line"/>
			<point x="46" y="86"/>
			<point x="29" y="65"/>
			<point x="29" y="39" type="curve" smooth="yes"/>
			<point x="29" y="7"/>
			<point x="56" y="-14"/>
			<point x="90" y="-14" type="curve" smooth="yes"/>
			<point x="168" y="-14"/>
			<point x="264" y="72"/>
			<point x="303" y="661" type="curve"/>
		</contour>
	</outline>
</glyph>
<glyph name="Pe-cy" format="2">
	<unicode hex="041F"/>
	<advance width="726"/>
	<outline>
		<contour>
			<point x="56" y="0" type="line"/>
			<point x="285" y="0" type="line"/>
			<point x="289" y="33" type="line"/>
			<point x="193" y="46" type="line"/>
			<point x="217" y="661" type="line"/>
			<point x="562" y="661" type="line"/>
			<point x="538" y="46" type="line"/>
			<point x="454" y="33" type="line"/>
			<point x="450" y="0" type="line"/>
			<point x="679" y="0" type="line"/>
			<point x="683" y="33" type="line"/>
			<point x="587" y="46" type="line"/>
			<point x="612" y="655" type="line"/>
			<point x="697" y="668" type="line"/>
			<point x="700" y="700" type="line"/>
			<point x="85" y="700" type="line"/>
			<point x="81" y="668" type="line"/>
			<point x="168" y="655" type="line"/>
			<point x="144" y="46" type="line"/>
			<point x="60" y="32" type="line"/>
		</contour>
	</outline>
</glyph>
<glyph name="U-cy" format="2">
	<unicode hex="0423"/>
	<advance width="611"/>
	<outline>
		<contour>
			<point x="326" y="202" type="line"/>
			<point x="146" y="656" type="line"/>
			<point x="231" y="668" type="line"/>
			<point x="236" y="700" type="line"/>
			<point x="16" y="700" type="line"/>
			<point x="12" y="668" type="line"/>
			<point x="94" y="656" type="line"/>
			<point x="294" y="152" type="line"/>
			<point x="258" y="88"/>
			<point x="215" y="49"/>
			<point x="188" y="49" type="curve" smooth="yes"/>
			<point x="183" y="49"/>
			<point x="176" y="49"/>
			<point x="172" y="50" type="curve"/>
			<point x="142" y="117" type="line"/>
			<point x="100" y="111"/>
			<point x="80" y="83"/>
			<point x="80" y="53" type="curve" smooth="yes"/>
			<point x="80" y="16"/>
			<point x="110" y="-9"/>
			<point x="154" y="-9" type="curve" smooth="yes"/>
			<point x="252" y="-9"/>
			<point x="322" y="103"/>
			<point x="373" y="199" type="curve" smooth="yes"/>
			<point x="437" y="320"/>
			<point x="512" y="489"/>
			<point x="582" y="655" type="curve"/>
			<point x="666" y="668" type="line"/>
			<point x="669" y="700" type="line"/>
			<point x="449" y="700" type="line"/>
			<point x="445" y="668" type="line"/>
			<point x="534" y="655" type="line"/>
			<point x="456" y="460"/>
			<point x="395" y="325"/>
			<point x="330" y="202" type="curve"/>
		</contour>
	</outline>
	<anchor name="top" x="344" y="730"/>
</glyph>
<glyph name="Che-cy" format="2">
	<unicode hex="0427"/>
	<advance width="692"/>
	<outline>
		<contour>
			<point x="517" y="350" type="curve"/>
			<point x="505" y="46" type="line"/>
			<point x="415" y="32" type="line"/>
			<point x="411" y="0" type="line"/>
			<point x="646" y="0" type="line"/>
			<point x="649" y="33" type="line"/>
			<point x="552" y="45" type="line"/>
			<point x="576" y="655" type="line"/>
			<point x="663" y="668" type="line"/>
			<point x="666" y="700" type="line"/>
			<point x="445" y="700" type="line"/>
			<point x="441" y="668" type="line"/>
			<point x="529" y="655" type="line"/>
			<point x="519" y="399" type="line"/>
			<point x="434" y="331"/>
			<point x="372" y="302"/>
			<point x="296" y="302" type="curve" smooth="yes"/>
			<point x="202" y="302"/>
			<point x="167" y="355"/>
			<point x="167" y="438" type="curve" smooth="yes"/>
			<point x="167" y="514"/>
			<point x="172" y="582"/>
			<point x="178" y="655" type="curve"/>
			<point x="264" y="668" type="line"/>
			<point x="267" y="700" type="line"/>
			<point x="46" y="700" type="line"/>
			<point x="42" y="668" type="line"/>
			<point x="129" y="655" type="line"/>
			<point x="124" y="577"/>
			<point x="120" y="500"/>
			<point x="120" y="428" type="curve" smooth="yes"/>
			<point x="120" y="323"/>
			<point x="178" y="260"/>
			<point x="290" y="260" type="curve" smooth="yes"/>
			<point x="376" y="260"/>
			<point x="446" y="297"/>
		</contour>
	</outline>
</glyph>
<glyph name="Hardsign-cy" format="2">
	<unicode hex="042A"/>
	<advance width="671"/>
	<outline>
		<contour>
			<point x="260" y="661" type="line"/>
			<point x="235" y="46" type="line"/>
			<point x="151" y="32" type="line"/>
			<point x="147" y="0" type="line"/>
			<point x="373" y="0" type="line" smooth="yes"/>
			<point x="546" y="0"/>
			<point x="649" y="77"/>
			<point x="649" y="216" type="curve" smooth="yes"/>
			<point x="649" y="330"/>
			<point x="566" y="393"/>
			<point x="437" y="393" type="curve" smooth="yes"/>
			<point x="396" y="393"/>
			<point x="371" y="390"/>
			<point x="334" y="385" type="curve"/>
			<point x="332" y="346" type="line"/>
			<point x="363" y="351"/>
			<point x="392" y="354"/>
			<point x="430" y="354" type="curve" smooth="yes"/>
			<point x="537" y="354"/>
			<point x="597" y="306"/>
			<point x="597" y="217" type="curve" smooth="yes"/>
			<point x="597" y="91"/>
			<point x="515" y="39"/>
			<point x="376" y="39" type="curve" smooth="yes"/>
			<point x="282" y="39" type="line"/>
			<point x="306" y="655" type="line"/>
			<point x="393" y="668" type="line"/>
			<point x="396" y="700" type="line"/>
			<point x="56" y="700" type="line"/>
			<point x="35" y="547" type="line"/>
			<point x="70" y="543" type="line"/>
			<point x="85" y="592" type="line" smooth="yes"/>
			<point x="104" y="653"/>
			<point x="114" y="661"/>
			<point x="179" y="661" type="curve" smooth="yes"/>
		</contour>
	</outline>
	<anchor name="top" x="227" y="730"/>
</glyph>
<glyph name="Yeru-cy" format="2">
	<unicode hex="042B"/>
	<advance width="847"/>
	<outline>
		<contour>
			<point x="163" y="655" type="line"/>
			<point x="138" y="46" type="line"/>
			<point x="54" y="32" type="line"/>
			<point x="50" y="0" type="line"/>
			<point x="276" y="0" type="line" smooth="yes"/>
			<point x="447" y="0"/>
			<point x="542" y="77"/>
			<point x="542" y="217" type="curve" smooth="yes"/>
			<point x="542" y="330"/>
			<point x="466" y="393"/>
			<point x="337" y="393" type="curve" smooth="yes"/>
			<point x="299" y="393"/>
			<point x="274" y="390"/>
			<point x="237" y="385" type="curve"/>
			<point x="235" y="346" type="line"/>
			<point x="266" y="351"/>
			<point x="295" y="354"/>
			<point x="330" y="354" type="curve" smooth="yes"/>
			<point x="438" y="354"/>
			<point x="490" y="306"/>
			<point x="490" y="215" type="curve" smooth="yes"/>
			<point x="490" y="91"/>
			<point x="415" y="39"/>
			<point x="279" y="39" type="curve" smooth="yes"/>
			<point x="185" y="39" type="line"/>
			<point x="209" y="655" type="line"/>
			<point x="296" y="668" type="line"/>
			<point x="299" y="700" type="line"/>
			<point x="79" y="700" type="line"/>
			<point x="75" y="668" type="line"/>
		</contour>
		<contour>
			<point x="687" y="655" type="line"/>
			<point x="663" y="46" type="line"/>
			<point x="578" y="32" type="line"/>
			<point x="574" y="0" type="line"/>
			<point x="804" y="0" type="line"/>
			<point x="807" y="33" type="line"/>
			<point x="710" y="45" type="line"/>
			<point x="734" y="655" type="line"/>
			<point x="821" y="668" type="line"/>
			<point x="824" y="700" type="line"/>
			<point x="603" y="700" type="line"/>
			<point x="599" y="668" type="line"/>
		</contour>
	</outline>
	<anchor name="top" x="451" y="730"/>
</glyph>
<glyph name="Ereversed-cy" format="2">
	<unicode hex="042D"/>
	<advance width="611"/>
	<outline>
		<contour>
			<point x="513" y="378" type="curve"/>
			<point x="180" y="378" type="line"/>
			<point x="178" y="337" type="line"/>
			<point x="513" y="344" type="line"/>
			<point x="501" y="153"/>
			<point x="413" y="29"/>
			<point x="265" y="29" type="curve" smooth="yes"/>
			<point x="172" y="29"/>
			<point x="127" y="67"/>
			<point x="151" y="116" type="curve" smooth="yes"/>
			<point x="164" y="142" type="line"/>
			<point x="147" y="155"/>
			<point x="137" y="161"/>
			<point x="117" y="161" type="curve" smooth="yes"/>
			<point x="91" y="161"/>
			<point x="70" y="139"/>
			<point x="70" y="107" type="curve" smooth="yes"/>
			<point x="70" y="34"/>
			<point x="148" y="-14"/>
			<point x="261" y="-14" type="curve" smooth="yes"/>
			<point x="443" y="-14"/>
			<point x="564" y="136"/>
			<point x="564" y="385" type="curve" smooth="yes"/>
			<point x="564" y="592"/>
			<point x="469" y="715"/>
			<point x="320" y="715" type="curve" smooth="yes"/>
			<point x="218" y="715"/>
			<point x="143" y="667"/>
			<point x="84" y="591" type="curve"/>
			<point x="111" y="563" type="line"/>
			<point x="170" y="637"/>
			<point x="229" y="673"/>
			<point x="312" y="673" type="curve" smooth="yes"/>
			<point x="436" y="673"/>
			<point x="513" y="561"/>
		</contour>
	</outline>
	<anchor name="top" x="312" y="730"/>
</glyph>
<glyph name="Ia-cy" format="2">
	<unicode hex="042F"/>
	<advance width="683"/>
	<outline>
		<contour>
			<point x="520" y="659" type="line"/>
			<point x="496" y="46" type="line"/>
			<point x="411" y="32" type="line"/>
			<point x="407" y="0" type="line"/>
			<point x="637" y="0" type="line"/>
			<point x="640" y="33" type="line"/>
			<point x="543" y="45" type="line"/>
			<point x="567" y="655" type="line"/>
			<point x="654" y="668" type="line"/>
			<point x="657" y="700" type="line"/>
			<point x="427" y="700" type="line" smooth="yes"/>
			<point x="266" y="700"/>
			<point x="172" y="621"/>
			<point x="172" y="500" type="curve" smooth="yes"/>
			<point x="172" y="397"/>
			<point x="240" y="337"/>
			<point x="346" y="323" type="curve"/>
			<point x="346" y="320" type="line"/>
			<point x="282" y="301"/>
			<point x="249" y="255"/>
			<point x="199" y="165" type="curve" smooth="yes"/>
			<point x="133" y="46"/>
			<point x="117" y="28"/>
			<point x="77" y="28" type="curve" smooth="yes"/>
			<point x="56" y="28"/>
			<point x="35" y="33"/>
			<point x="17" y="48" type="curve"/>
			<point x="-2" y="21" type="line"/>
			<point x="17" y="0"/>
			<point x="46" y="-14"/>
			<point x="83" y="-14" type="curve" smooth="yes"/>
			<point x="139" y="-14"/>
			<point x="172" y="19"/>
			<point x="223" y="112" type="curve" smooth="yes"/>
			<point x="306" y="265"/>
			<point x="327" y="303"/>
			<point x="425" y="312" type="curve" smooth="yes"/>
			<point x="468" y="316" type="line"/>
			<point x="470" y="357" type="line"/>
			<point x="447" y="354"/>
			<point x="425" y="352"/>
			<point x="402" y="352" type="curve" smooth="yes"/>
			<point x="288" y="352"/>
			<point x="223" y="405"/>
			<point x="223" y="497" type="curve" smooth="yes"/>
			<point x="223" y="596"/>
			<point x="290" y="659"/>
			<point x="429" y="659" type="curve" smooth="yes"/>
		</contour>
	</outline>
	<anchor name="top" x="432" y="730"/>
</glyph>
<glyph name="de-cy" format="2">
	<unicode hex="0434"/>
	<advance width="487"/>
	<outline>
		<contour>
			<point x="115" y="716" type="curve"/>
			<point x="133" y="677" type="line"/>
			<point x="182" y="703"/>
			<point x="229" y="723"/>
			<point x="279" y="723" type="curve" smooth="yes"/>
			<point x="353" y="723"/>
			<point x="386" y="672"/>
			<point x="397" y="542" type="curve" smooth="yes"/>
			<point x="399" y="520"/>
			<point x="400" y="496"/>
			<point x="401" y="469" type="curve"/>
			<point x="372" y="494"/>
			<point x="313" y="515"/>
			<point x="257" y="515" type="curve" smooth="yes"/>
			<point x="149" y="515"/>
			<point x="55" y="413"/>
			<point x="55" y="220" type="curve" smooth="yes"/>
			<point x="55" y="88"/>
			<point x="109" y="-14"/>
			<point x="224" y="-14" type="curve" smooth="yes"/>
			<point x="349" y="-14"/>
			<point x="450" y="117"/>
			<point x="450" y="432" type="curve" smooth="yes"/>
			<point x="450" y="605"/>
			<point x="424" y="769"/>
			<point x="295" y="769" type="curve" smooth="yes"/>
			<point x="228" y="769"/>
			<point x="173" y="746"/>
		</contour>
		<contour>
			<point x="226" y="31" type="curve" smooth="yes"/>
			<point x="160" y="31"/>
			<point x="105" y="85"/>
			<point x="105" y="225" type="curve" smooth="yes"/>
			<point x="105" y="377"/>
			<point x="171" y="472"/>
			<point x="263" y="472" type="curve" smooth="yes"/>
			<point x="313" y="472"/>
			<point x="376" y="446"/>
			<point x="402" y="419" type="curve"/>
			<point x="401" y="376"/>
			<point x="398" y="336"/>
			<point x="394" y="296" type="curve" smooth="yes"/>
			<point x="375" y="112"/>
			<point x="306" y="31"/>
		</contour>
	</outline>
</glyph>
<glyph name="el-cy" format="2">
	<unicode hex="043B"/>
	<advance width="528"/>
	<outline>
		<contour>
			<point x="100" y="466" type="curve"/>
			<point x="110" y="439" type="line"/>
			<point x="128" y="447"/>
			<point x="178" y="460"/>
			<point x="208" y="464" type="curve"/>
			<point x="193" y="362"/>
			<point x="174" y="245"/>
			<point x="153" y="156" type="curve" smooth="yes"/>
			<point x="139" y="97"/>
			<point x="117" y="50"/>
			<point x="93" y="46" type="curve"/>
			<point x="58" y="88" type="line"/>
			<point x="33" y="83"/>
			<point x="15" y="61"/>
			<point x="15" y="37" type="curve" smooth="yes"/>
			<point x="15" y="5"/>
			<point x="41" y="-14"/>
			<point x="71" y="-14" type="curve" smooth="yes"/>
			<point x="123" y="-14"/>
			<point x="162" y="30"/>
			<point x="189" y="137" type="curve" smooth="yes"/>
			<point x="210" y="221"/>
			<point x="236" y="367"/>
			<point x="249" y="470" type="curve"/>
			<point x="296" y="473"/>
			<point x="344" y="470"/>
			<point x="375" y="459" type="curve"/>
			<point x="353" y="78" type="line" smooth="yes"/>
			<point x="350" y="22"/>
			<point x="355" y="-14"/>
			<point x="406" y="-14" type="curve" smooth="yes"/>
			<point x="434" y="-14"/>
			<point x="485" y="3"/>
			<point x="506" y="15" type="curve"/>
			<point x="494" y="48" type="line"/>
			<point x="463" y="36"/>
			<point x="441" y="29"/>
			<point x="426" y="29" type="curve" smooth="yes"/>
			<point x="405" y="29"/>
			<point x="399" y="44"/>
			<point x="401" y="70" type="curve" smooth="yes"/>
			<point x="425" y="466" type="line"/>
			<point x="416" y="500"/>
			<point x="378" y="516"/>
			<point x="312" y="516" type="curve" smooth="yes"/>
			<point x="230" y="516"/>
			<point x="149" y="493"/>
		</contour>
	</outline>
</glyph>
<glyph name="ef-cy" format="2">
	<unicode hex="0444"/>
	<advance width="827"/>
	<outline>
		<contour>
			<point x="433" y="323" type="line"/>
			<point x="449" y="756" type="line"/>
			<point x="436" y="767" type="line"/>
			<point x="315" y="762" type="line"/>
			<point x="312" y="728" type="line"/>
			<point x="400" y="721" type="line"/>
			<point x="393" y="492" type="line"/>
			<point x="368" y="503"/>
			<point x="316" y="517"/>
			<point x="274" y="517" type="curve" smooth="yes"/>
			<point x="159" y="517"/>
			<point x="54" y="422"/>
			<point x="54" y="198" type="curve" smooth="yes"/>
			<point x="54" y="77"/>
			<point x="96" y="-14"/>
			<point x="196" y="-14" type="curve" smooth="yes"/>
			<point x="277" y="-14"/>
			<point x="335" y="45"/>
			<point x="380" y="163" type="curve"/>
			<point x="387" y="162" type="line"/>
			<point x="369" y="-216" type="line"/>
			<point x="382" y="-227" type="line"/>
			<point x="503" y="-222" type="line"/>
			<point x="506" y="-188" type="line"/>
			<point x="417" y="-181" type="line"/>
			<point x="429" y="14" type="line"/>
			<point x="451" y="2"/>
			<point x="509" y="-14"/>
			<point x="554" y="-14" type="curve" smooth="yes"/>
			<point x="669" y="-14"/>
			<point x="774" y="81"/>
			<point x="774" y="305" type="curve" smooth="yes"/>
			<point x="774" y="426"/>
			<point x="732" y="517"/>
			<point x="632" y="517" type="curve" smooth="yes"/>
			<point x="546" y="517"/>
			<point x="476" y="453"/>
			<point x="441" y="321" type="curve"/>
		</contour>
		<contour>
			<point x="202" y="33" type="curve" smooth="yes"/>
			<point x="131" y="33"/>
			<point x="103" y="108"/>
			<point x="103" y="203" type="curve" smooth="yes"/>
			<point x="103" y="366"/>
			<point x="168" y="473"/>
			<point x="275" y="473" type="curve" smooth="yes"/>
			<point x="323" y="473"/>
			<point x="365" y="460"/>
			<point x="391" y="442" type="curve"/>
			<point x="384" y="268" type="line"/>
			<point x="339" y="114"/>
			<point x="268" y="33"/>
		</contour>
		<contour>
			<point x="626" y="470" type="curve" smooth="yes"/>
			<point x="697" y="470"/>
			<point x="725" y="395"/>
			<point x="725" y="300" type="curve" smooth="yes"/>
			<point x="725" y="137"/>
			<point x="660" y="30"/>
			<point x="553" y="30" type="curve" smooth="yes"/>
			<point x="499" y="30"/>
			<point x="453" y="48"/>
			<point x="431" y="58" type="curve"/>
			<point x="441" y="238" type="line"/>
			<point x="486" y="393"/>
			<point x="560" y="470"/>
		</contour>
	</outline>
</glyph>
<glyph name="che-cy" format="2">
	<unicode hex="0447"/>
	<advance width="500"/>
	<outline>
		<contour>
			<point x="-3" y="473" type="curve"/>
			<point x="16" y="445" type="line"/>
			<point x="44" y="465"/>
			<point x="64" y="474"/>
			<point x="84" y="474" type="curve" smooth="yes"/>
			<point x="110" y="474"/>
			<point x="114" y="461"/>
			<point x="110" y="436" type="curve" smooth="yes"/>
			<point x="97" y="358"/>
			<point x="90" y="312"/>
			<point x="88" y="291" type="curve" smooth="yes"/>
			<point x="80" y="209"/>
			<point x="101" y="151"/>
			<point x="177" y="151" type="curve" smooth="yes"/>
			<point x="253" y="151"/>
			<point x="290" y="202"/>
			<point x="352" y="370" type="curve"/>
			<point x="358" y="369" type="line"/>
			<point x="322" y="88" type="line" smooth="yes"/>
			<point x="313" y="20"/>
			<point x="327" y="-14"/>
			<point x="378" y="-14" type="curve" smooth="yes"/>
			<point x="406" y="-14"/>
			<point x="457" y="3"/>
			<point x="478" y="15" type="curve"/>
			<point x="466" y="48" type="line"/>
			<point x="435" y="36"/>
			<point x="413" y="29"/>
			<point x="398" y="29" type="curve" smooth="yes"/>
			<point x="375" y="29"/>
			<point x="368" y="45"/>
			<point x="371" y="72" type="curve" smooth="yes"/>
			<point x="418" y="503" type="line"/>
			<point x="378" y="503" type="line"/>
			<point x="274" y="253"/>
			<point x="255" y="195"/>
			<point x="185" y="195" type="curve" smooth="yes"/>
			<point x="138" y="195"/>
			<point x="130" y="226"/>
			<point x="135" y="277" type="curve" smooth="yes"/>
			<point x="140" y="328"/>
			<point x="149" y="387"/>
			<point x="158" y="442" type="curve" smooth="yes"/>
			<point x="167" y="494"/>
			<point x="141" y="517"/>
			<point x="101" y="517" type="curve" smooth="yes"/>
			<point x="63" y="517"/>
			<point x="20" y="494"/>
		</contour>
	</outline>
</glyph>
<glyph name="sha-cy" format="2">
	<unicode hex="0448"/>
	<advance width="853"/>
	<outline>
		<contour>
			<point x="15" y="488" type="curve"/>
			<point x="27" y="455" type="line"/>
			<point x="58" y="467"/>
			<point x="80" y="474"/>
			<point x="95" y="474" type="curve" smooth="yes"/>
			<point x="118" y="474"/>
			<point x="127" y="464"/>
			<point x="124" y="436" type="curve" smooth="yes"/>
			<point x="96" y="138" type="line" smooth="yes"/>
			<point x="87" y="45"/>
			<point x="112" y="-14"/>
			<point x="196" y="-14" type="curve" smooth="yes"/>
			<point x="270" y="-14"/>
			<point x="308" y="27"/>
			<point x="343" y="144" type="curve" smooth="yes"/>
			<point x="417" y="390" type="line"/>
			<point x="425" y="388" type="line"/>
			<point x="415" y="309"/>
			<point x="406" y="236"/>
			<point x="398" y="160" type="curve" smooth="yes"/>
			<point x="385" y="39"/>
			<point x="421" y="-13"/>
			<point x="495" y="-13" type="curve" smooth="yes"/>
			<point x="567" y="-13"/>
			<point x="596" y="24"/>
			<point x="627" y="135" type="curve" smooth="yes"/>
			<point x="697" y="390" type="line"/>
			<point x="703" y="388" type="line"/>
			<point x="675" y="63" type="line" smooth="yes"/>
			<point x="671" y="11"/>
			<point x="695" y="-14"/>
			<point x="734" y="-14" type="curve" smooth="yes"/>
			<point x="771" y="-14"/>
			<point x="814" y="9"/>
			<point x="837" y="30" type="curve"/>
			<point x="818" y="58" type="line"/>
			<point x="790" y="38"/>
			<point x="770" y="30"/>
			<point x="750" y="30" type="curve" smooth="yes"/>
			<point x="729" y="30"/>
			<point x="724" y="42"/>
			<point x="725" y="67" type="curve" smooth="yes"/>
			<point x="742" y="503" type="line"/>
			<point x="702" y="503" type="line"/>
			<point x="592" y="161" type="line" smooth="yes"/>
			<point x="562" y="67"/>
			<point x="550" y="30"/>
			<point x="500" y="30" type="curve" smooth="yes"/>
			<point x="456" y="30"/>
			<point x="435" y="61"/>
			<point x="440" y="133" type="curve" smooth="yes"/>
			<point x="467" y="503" type="line"/>
			<point x="426" y="503" type="line"/>
			<point x="308" y="166" type="line" smooth="yes"/>
			<point x="267" y="49"/>
			<point x="246" y="29"/>
			<point x="202" y="29" type="curve" smooth="yes"/>
			<point x="163" y="29"/>
			<point x="137" y="56"/>
			<point x="144" y="134" type="curve" smooth="yes"/>
			<point x="173" y="442" type="line" smooth="yes"/>
			<point x="177" y="488"/>
			<point x="159" y="517"/>
			<point x="115" y="517" type="curve" smooth="yes"/>
			<point x="87" y="517"/>
			<point x="38" y="500"/>
		</contour>
	</outline>
</glyph>
<glyph name="shcha-cy" format="2">
	<unicode hex="0449"/>
	<advance width="862"/>
	<outline>
		<contour>
			<point x="31" y="488" type="curve"/>
			<point x="43" y="455" type="line"/>
			<point x="74" y="467"/>
			<point x="96" y="474"/>
			<point x="111" y="474" type="curve" smooth="yes"/>
			<point x="132" y="474"/>
			<point x="141" y="464"/>
			<point x="138" y="436" type="curve" smooth="yes"/>
			<point x="110" y="138" type="line" smooth="yes"/>
			<point x="101" y="45"/>
			<point x="126" y="-14"/>
			<point x="210" y="-14" type="curve" smooth="yes"/>
			<point x="284" y="-14"/>
			<point x="322" y="27"/>
			<point x="357" y="144" type="curve" smooth="yes"/>
			<point x="431" y="390" type="line"/>
			<point x="439" y="388" type="line"/>
			<point x="429" y="309"/>
			<point x="420" y="236"/>
			<point x="412" y="160" type="curve" smooth="yes"/>
			<point x="399" y="39"/>
			<point x="435" y="-13"/>
			<point x="509" y="-13" type="curve" smooth="yes"/>
			<point x="581" y="-13"/>
			<point x="610" y="24"/>
			<point x="641" y="135" type="curve" smooth="yes"/>
			<point x="711" y="390" type="line"/>
			<point x="717" y="388" type="line"/>
			<point x="704" y="281"/>
			<point x="691" y="169"/>
			<point x="683" y="72" type="curve" smooth="yes"/>
			<point x="678" y="9"/>
			<point x="699" y="-14"/>
			<point x="732" y="-14" type="curve" smooth="yes"/>
			<point x="753" y="-14"/>
			<point x="767" y="-7"/>
			<point x="783" y="8" type="curve"/>
			<point x="785" y="8" type="line"/>
			<point x="777" y="-48"/>
			<point x="743" y="-117"/>
			<point x="701" y="-167" type="curve"/>
			<point x="724" y="-195" type="line"/>
			<point x="782" y="-140"/>
			<point x="833" y="-34"/>
			<point x="847" y="59" type="curve"/>
			<point x="811" y="69" type="line"/>
			<point x="799" y="48"/>
			<point x="775" y="29"/>
			<point x="758" y="29" type="curve" smooth="yes"/>
			<point x="737" y="29"/>
			<point x="732" y="45"/>
			<point x="733" y="72" type="curve" smooth="yes"/>
			<point x="756" y="503" type="line"/>
			<point x="716" y="503" type="line"/>
			<point x="606" y="161" type="line" smooth="yes"/>
			<point x="576" y="67"/>
			<point x="564" y="30"/>
			<point x="514" y="30" type="curve" smooth="yes"/>
			<point x="470" y="30"/>
			<point x="449" y="61"/>
			<point x="454" y="133" type="curve" smooth="yes"/>
			<point x="481" y="503" type="line"/>
			<point x="440" y="503" type="line"/>
			<point x="322" y="166" type="line" smooth="yes"/>
			<point x="281" y="49"/>
			<point x="260" y="29"/>
			<point x="216" y="29" type="curve" smooth="yes"/>
			<point x="177" y="29"/>
			<point x="151" y="56"/>
			<point x="158" y="134" type="curve" smooth="yes"/>
			<point x="187" y="442" type="line" smooth="yes"/>
			<point x="192" y="492"/>
			<point x="172" y="517"/>
			<point x="131" y="517" type="curve" smooth="yes"/>
			<point x="103" y="517"/>
			<point x="52" y="500"/>
		</contour>
	</outline>
</glyph>
<glyph name="hardsign-cy" format="2">
	<unicode hex="044A"/>
	<advance width="462"/>
	<outline>
		<contour>
			<point x="191" y="280" type="curve"/>
			<point x="223" y="338"/>
			<point x="281" y="423"/>
			<point x="340" y="487" type="curve"/>
			<point x="339" y="513" type="line"/>
			<point x="313" y="508"/>
			<point x="276" y="503"/>
			<point x="240" y="503" type="curve" smooth="yes"/>
			<point x="189" y="503"/>
			<point x="142" y="513"/>
			<point x="97" y="513" type="curve" smooth="yes"/>
			<point x="56" y="513"/>
			<point x="35" y="449"/>
			<point x="25" y="307" type="curve"/>
			<point x="52" y="304" type="line"/>
			<point x="59" y="396"/>
			<point x="72" y="465"/>
			<point x="130" y="465" type="curve" smooth="yes"/>
			<point x="174" y="465"/>
			<point x="256" y="465"/>
			<point x="294" y="480" type="curve"/>
			<point x="297" y="475" type="line"/>
			<point x="195" y="383"/>
			<point x="110" y="268"/>
			<point x="110" y="138" type="curve" smooth="yes"/>
			<point x="110" y="45"/>
			<point x="157" y="-14"/>
			<point x="240" y="-14" type="curve" smooth="yes"/>
			<point x="341" y="-14"/>
			<point x="429" y="73"/>
			<point x="429" y="195" type="curve" smooth="yes"/>
			<point x="429" y="258"/>
			<point x="390" y="306"/>
			<point x="314" y="306" type="curve" smooth="yes"/>
			<point x="273" y="306"/>
			<point x="239" y="297"/>
		</contour>
		<contour>
			<point x="177" y="237" type="curve"/>
			<point x="214" y="254"/>
			<point x="253" y="268"/>
			<point x="298" y="268" type="curve" smooth="yes"/>
			<point x="346" y="268"/>
			<point x="380" y="247"/>
			<point x="380" y="182" type="curve" smooth="yes"/>
			<point x="380" y="87"/>
			<point x="313" y="25"/>
			<point x="247" y="25" type="curve" smooth="yes"/>
			<point x="189" y="25"/>
			<point x="159" y="65"/>
			<point x="159" y="136" type="curve" smooth="yes"/>
			<point x="159" y="162"/>
			<point x="165" y="209"/>
		</contour>
	</outline>
	<anchor name="top" x="214" y="550"/>
</glyph>
<glyph name="softsign-cy" format="2">
	<unicode hex="044C"/>
	<advance width="448"/>
	<outline>
		<contour>
			<point x="156" y="278" type="curve"/>
			<point x="164" y="332"/>
			<point x="172" y="392"/>
			<point x="178" y="444" type="curve" smooth="yes"/>
			<point x="184" y="494"/>
			<point x="161" y="517"/>
			<point x="121" y="517" type="curve" smooth="yes"/>
			<point x="83" y="517"/>
			<point x="40" y="494"/>
			<point x="17" y="473" type="curve"/>
			<point x="36" y="445" type="line"/>
			<point x="64" y="465"/>
			<point x="84" y="473"/>
			<point x="104" y="473" type="curve" smooth="yes"/>
			<point x="130" y="473"/>
			<point x="133" y="461"/>
			<point x="129" y="436" type="curve" smooth="yes"/>
			<point x="114" y="336"/>
			<point x="94" y="203"/>
			<point x="94" y="138" type="curve" smooth="yes"/>
			<point x="94" y="45"/>
			<point x="133" y="-14"/>
			<point x="221" y="-14" type="curve" smooth="yes"/>
			<point x="327" y="-14"/>
			<point x="415" y="73"/>
			<point x="415" y="195" type="curve" smooth="yes"/>
			<point x="415" y="258"/>
			<point x="378" y="307"/>
			<point x="298" y="307" type="curve" smooth="yes"/>
			<point x="257" y="307"/>
			<point x="217" y="299"/>
		</contour>
		<contour>
			<point x="151" y="236" type="curve"/>
			<point x="188" y="251"/>
			<point x="237" y="268"/>
			<point x="280" y="268" type="curve" smooth="yes"/>
			<point x="334" y="268"/>
			<point x="365" y="247"/>
			<point x="365" y="182" type="curve" smooth="yes"/>
			<point x="365" y="87"/>
			<point x="299" y="25"/>
			<point x="229" y="25" type="curve" smooth="yes"/>
			<point x="175" y="25"/>
			<point x="144" y="59"/>
			<point x="144" y="136" type="curve" smooth="yes"/>
			<point x="144" y="162"/>
			<point x="146" y="197"/>
		</contour>
	</outline>
</glyph>
<glyph name="ereversed-cy" format="2">
	<unicode hex="044D"/>
	<advance width="464"/>
	<outline>
		<contour>
			<point x="114" y="84" type="curve" smooth="yes"/>
			<point x="124" y="120" type="line"/>
			<point x="117" y="125"/>
			<point x="105" y="131"/>
			<point x="87" y="131" type="curve" smooth="yes"/>
			<point x="60" y="131"/>
			<point x="40" y="115"/>
			<point x="40" y="82" type="curve" smooth="yes"/>
			<point x="40" y="25"/>
			<point x="98" y="-14"/>
			<point x="184" y="-14" type="curve" smooth="yes"/>
			<point x="319" y="-14"/>
			<point x="410" y="107"/>
			<point x="410" y="278" type="curve" smooth="yes"/>
			<point x="410" y="412"/>
			<point x="350" y="516"/>
			<point x="231" y="516" type="curve" smooth="yes"/>
			<point x="157" y="516"/>
			<point x="102" y="481"/>
			<point x="59" y="405" type="curve"/>
			<point x="91" y="386" type="line"/>
			<point x="125" y="449"/>
			<point x="172" y="476"/>
			<point x="225" y="476" type="curve" smooth="yes"/>
			<point x="315" y="476"/>
			<point x="360" y="391"/>
			<point x="360" y="285" type="curve"/>
			<point x="108" y="285" type="line"/>
			<point x="104" y="239" type="line"/>
			<point x="359" y="245" type="line"/>
			<point x="353" y="138"/>
			<point x="301" y="25"/>
			<point x="187" y="25" type="curve" smooth="yes"/>
			<point x="143" y="25"/>
			<point x="102" y="43"/>
		</contour>
	</outline>
	<anchor name="top" x="232" y="550"/>
</glyph>
<glyph name="ia-cy" format="2">
	<unicode hex="044F"/>
	<advance width="498"/>
	<outline>
		<contour>
			<point x="328" y="249" type="curve"/>
			<point x="322" y="78" type="line" smooth="yes"/>
			<point x="320" y="22"/>
			<point x="326" y="-14"/>
			<point x="377" y="-14" type="curve" smooth="yes"/>
			<point x="405" y="-14"/>
			<point x="455" y="3"/>
			<point x="476" y="15" type="curve"/>
			<point x="464" y="48" type="line"/>
			<point x="433" y="36"/>
			<point x="411" y="29"/>
			<point x="396" y="29" type="curve" smooth="yes"/>
			<point x="375" y="29"/>
			<point x="369" y="44"/>
			<point x="370" y="70" type="curve" smooth="yes"/>
			<point x="389" y="513" type="line"/>
			<point x="384" y="516" type="line"/>
			<point x="338" y="502" type="line"/>
			<point x="304" y="512"/>
			<point x="282" y="516"/>
			<point x="256" y="516" type="curve" smooth="yes"/>
			<point x="136" y="516"/>
			<point x="74" y="442"/>
			<point x="74" y="353" type="curve" smooth="yes"/>
			<point x="74" y="277"/>
			<point x="131" y="232"/>
			<point x="203" y="223" type="curve"/>
			<point x="166" y="200" type="line"/>
			<point x="78" y="140"/>
			<point x="49" y="94"/>
			<point x="49" y="41" type="curve" smooth="yes"/>
			<point x="49" y="11"/>
			<point x="69" y="-14"/>
			<point x="103" y="-14" type="curve" smooth="yes"/>
			<point x="136" y="-14"/>
			<point x="148" y="10"/>
			<point x="153" y="35" type="curve"/>
			<point x="128" y="45" type="line" smooth="yes"/>
			<point x="115" y="50"/>
			<point x="108" y="58"/>
			<point x="108" y="71" type="curve" smooth="yes"/>
			<point x="108" y="116"/>
			<point x="179" y="179"/>
		</contour>
		<contour>
			<point x="337" y="462" type="curve"/>
			<point x="330" y="293" type="line"/>
			<point x="297" y="273"/>
			<point x="262" y="256"/>
			<point x="239" y="256" type="curve" smooth="yes"/>
			<point x="170" y="256"/>
			<point x="125" y="292"/>
			<point x="125" y="357" type="curve" smooth="yes"/>
			<point x="125" y="428"/>
			<point x="171" y="479"/>
			<point x="247" y="479" type="curve" smooth="yes"/>
			<point x="287" y="479"/>
			<point x="304" y="474"/>
		</contour>
	</outline>
	<anchor name="top" x="262" y="550"/>
</glyph>
<glyph name="Yat-cy" format="2">
	<unicode hex="0462"/>
	<advance width="677"/>
	<outline>
		<contour>
			<point x="263" y="565" type="line"/>
			<point x="242" y="46" type="line"/>
			<point x="158" y="32" type="line"/>
			<point x="154" y="0" type="line"/>
			<point x="380" y="0" type="line" smooth="yes"/>
			<point x="551" y="0"/>
			<point x="654" y="77"/>
			<point x="654" y="210" type="curve" smooth="yes"/>
			<point x="654" y="330"/>
			<point x="561" y="380"/>
			<point x="444" y="380" type="curve" smooth="yes"/>
			<point x="403" y="380"/>
			<point x="378" y="377"/>
			<point x="341" y="372" type="curve"/>
			<point x="339" y="333" type="line"/>
			<point x="370" y="338"/>
			<point x="399" y="341"/>
			<point x="436" y="341" type="curve" smooth="yes"/>
			<point x="529" y="341"/>
			<point x="602" y="304"/>
			<point x="602" y="208" type="curve" smooth="yes"/>
			<point x="602" y="91"/>
			<point x="520" y="39"/>
			<point x="382" y="39" type="curve" smooth="yes"/>
			<point x="289" y="39" type="line"/>
			<point x="309" y="565" type="line"/>
			<point x="416" y="565" type="line" smooth="yes"/>
			<point x="470" y="565"/>
			<point x="490" y="559"/>
			<point x="505" y="496" type="curve" smooth="yes"/>
			<point x="517" y="447" type="line"/>
			<point x="552" y="451" type="line"/>
			<point x="538" y="604" type="line"/>
			<point x="311" y="604" type="line"/>
			<point x="314" y="695" type="line"/>
			<point x="401" y="708" type="line"/>
			<point x="404" y="740" type="line"/>
			<point x="184" y="740" type="line"/>
			<point x="180" y="708" type="line"/>
			<point x="268" y="695" type="line"/>
			<point x="264" y="604" type="line"/>
			<point x="56" y="604" type="line"/>
			<point x="35" y="451" type="line"/>
			<point x="70" y="447" type="line"/>
			<point x="85" y="496" type="line" smooth="yes"/>
			<point x="104" y="557"/>
			<point x="114" y="565"/>
			<point x="179" y="565" type="curve" smooth="yes"/>
		</contour>
	</outline>
</glyph>
<glyph name="yusbig-cy" format="2">
	<unicode hex="046B"/>
	<advance width="642"/>
	<outline>
		<contour>
			<point x="562" y="473" type="line"/>
			<point x="565" y="502" type="line"/>
			<point x="123" y="502" type="line"/>
			<point x="110" y="472" type="line"/>
			<point x="168" y="455" type="line"/>
			<point x="275" y="282" type="line"/>
			<point x="227" y="259"/>
			<point x="174" y="229"/>
			<point x="139" y="204" type="curve" smooth="yes"/>
			<point x="67" y="152"/>
			<point x="30" y="97"/>
			<point x="30" y="48" type="curve" smooth="yes"/>
			<point x="30" y="11"/>
			<point x="52" y="-14"/>
			<point x="86" y="-14" type="curve" smooth="yes"/>
			<point x="113" y="-14"/>
			<point x="130" y="3"/>
			<point x="135" y="35" type="curve"/>
			<point x="114" y="43" type="line" smooth="yes"/>
			<point x="98" y="49"/>
			<point x="91" y="58"/>
			<point x="91" y="77" type="curve" smooth="yes"/>
			<point x="91" y="135"/>
			<point x="187" y="204"/>
			<point x="297" y="248" type="curve"/>
			<point x="283" y="0" type="line"/>
			<point x="332" y="0" type="line"/>
			<point x="344" y="206" type="line"/>
			<point x="379" y="261" type="line"/>
			<point x="415" y="200"/>
			<point x="460" y="120"/>
			<point x="488" y="65" type="curve" smooth="yes"/>
			<point x="520" y="3"/>
			<point x="541" y="-14"/>
			<point x="576" y="-14" type="curve" smooth="yes"/>
			<point x="604" y="-14"/>
			<point x="631" y="11"/>
			<point x="662" y="62" type="curve"/>
			<point x="634" y="83" type="line"/>
			<point x="619" y="57"/>
			<point x="603" y="31"/>
			<point x="585" y="31" type="curve" smooth="yes"/>
			<point x="567" y="31"/>
			<point x="555" y="47"/>
			<point x="533" y="89" type="curve" smooth="yes"/>
			<point x="504" y="144"/>
			<point x="456" y="232"/>
			<point x="409" y="307" type="curve"/>
			<point x="505" y="458" type="line"/>
		</contour>
		<contour>
			<point x="337" y="271" type="line"/>
			<point x="222" y="465" type="line"/>
			<point x="462" y="465" type="line"/>
			<point x="342" y="271" type="line"/>
		</contour>
	</outline>
</glyph>
<glyph name="Gheupturn-cy" format="2">
	<unicode hex="0490"/>
	<advance width="494"/>
	<outline>
		<contour>
			<point x="61" y="32" type="line"/>
			<point x="57" y="0" type="line"/>
			<point x="318" y="0" type="line"/>
			<point x="321" y="33" type="line"/>
			<point x="193" y="45" type="line"/>
			<point x="217" y="661" type="line"/>
			<point x="494" y="661" type="line"/>
			<point x="533" y="814" type="line"/>
			<point x="499" y="819" type="line"/>
			<point x="486" y="780" type="line" smooth="yes"/>
			<point x="465" y="717"/>
			<point x="439" y="700"/>
			<point x="365" y="700" type="curve" smooth="yes"/>
			<point x="86" y="700" type="line"/>
			<point x="82" y="668" type="line"/>
			<point x="170" y="655" type="line"/>
			<point x="146" y="46" type="line"/>
		</contour>
	</outline>
</glyph>
<glyph name="gheupturn-cy" format="2">
	<unicode hex="0491"/>
	<advance width="408"/>
	<outline>
		<contour>
			<point x="218" y="475" type="curve" smooth="yes"/>
			<point x="269" y="475"/>
			<point x="311" y="465"/>
			<point x="356" y="465" type="curve" smooth="yes"/>
			<point x="376" y="465"/>
			<point x="391" y="478"/>
			<point x="401" y="505" type="curve" smooth="yes"/>
			<point x="411" y="532"/>
			<point x="418" y="573"/>
			<point x="423" y="630" type="curve"/>
			<point x="396" y="633" type="line"/>
			<point x="390" y="571"/>
			<point x="367" y="521"/>
			<point x="323" y="517" type="curve" smooth="yes"/>
			<point x="280" y="513"/>
			<point x="205" y="514"/>
			<point x="167" y="499" type="curve" smooth="yes"/>
			<point x="117" y="479"/>
			<point x="97" y="425"/>
			<point x="95" y="355" type="curve" smooth="yes"/>
			<point x="88" y="149"/>
			<point x="85" y="-15"/>
			<point x="74" y="-90" type="curve" smooth="yes"/>
			<point x="66" y="-145"/>
			<point x="46" y="-165"/>
			<point x="25" y="-166" type="curve" smooth="yes"/>
			<point x="16" y="-167"/>
			<point x="8" y="-164"/>
			<point x="0" y="-160" type="curve" smooth="yes"/>
			<point x="-30" y="-144" type="line"/>
			<point x="-42" y="-157"/>
			<point x="-51" y="-171"/>
			<point x="-51" y="-189" type="curve" smooth="yes"/>
			<point x="-51" y="-212"/>
			<point x="-35" y="-229"/>
			<point x="-3" y="-229" type="curve" smooth="yes"/>
			<point x="30" y="-229"/>
			<point x="54" y="-214"/>
			<point x="78" y="-178" type="curve" smooth="yes"/>
			<point x="108" y="-134"/>
			<point x="126" y="-44"/>
			<point x="137" y="122" type="curve" smooth="yes"/>
			<point x="157" y="416" type="line" smooth="yes"/>
			<point x="160" y="454"/>
			<point x="178" y="475"/>
		</contour>
	</outline>
</glyph>
<glyph name="ghestroke-cy" format="2">
	<unicode hex="0493"/>
	<advance width="410"/>
	<outline>
		<contour>
			<point x="360" y="235" type="line"/>
			<point x="365" y="277" type="line"/>
			<point x="251" y="277" type="line"/>
			<point x="301" y="314"/>
			<point x="345" y="361"/>
			<point x="345" y="396" type="curve" smooth="yes"/>
			<point x="345" y="463"/>
			<point x="296" y="516"/>
			<point x="244" y="516" type="curve" smooth="yes"/>
			<point x="204" y="516"/>
			<point x="139" y="488"/>
			<point x="54" y="444" type="curve"/>
			<point x="72" y="405" type="line"/>
			<point x="106" y="426"/>
			<point x="187" y="470"/>
			<point x="232" y="470" type="curve" smooth="yes"/>
			<point x="268" y="470"/>
			<point x="295" y="436"/>
			<point x="295" y="397" type="curve" smooth="yes"/>
			<point x="295" y="359"/>
			<point x="246" y="316"/>
			<point x="193" y="277" type="curve"/>
			<point x="42" y="277" type="line"/>
			<point x="39" y="235" type="line"/>
			<point x="138" y="235" type="line"/>
			<point x="88" y="196"/>
			<point x="45" y="154"/>
			<point x="45" y="112" type="curve" smooth="yes"/>
			<point x="45" y="44"/>
			<point x="89" y="-14"/>
			<point x="149" y="-14" type="curve" smooth="yes"/>
			<point x="196" y="-14"/>
			<point x="267" y="12"/>
			<point x="339" y="52" type="curve"/>
			<point x="326" y="89" type="line"/>
			<point x="267" y="58"/>
			<point x="211" y="34"/>
			<point x="157" y="34" type="curve" smooth="yes"/>
			<point x="116" y="34"/>
			<point x="96" y="76"/>
			<point x="96" y="115" type="curve" smooth="yes"/>
			<point x="96" y="153"/>
			<point x="145" y="195"/>
			<point x="198" y="235" type="curve"/>
		</contour>
	</outline>
</glyph>
